<svg width="659" height="690" viewBox="0 0 659 690" fill="none" xmlns="http://www.w3.org/2000/svg">
  <path d="M254.924 689.574C395.714 689.574 509.847 669.411 509.847 644.539C509.847 619.667 395.714 599.504 254.924 599.504C114.133 599.504 0 619.667 0 644.539C0 669.411 114.133 689.574 254.924 689.574Z" fill="#3F3D56"/>
  <path d="M409.861 498.278C547.457 498.278 659 386.735 659 249.139C659 111.543 547.457 0 409.861 0C272.265 0 160.722 111.543 160.722 249.139C160.722 386.735 272.265 498.278 409.861 498.278Z" fill="#3F3D56"/>
  <path opacity="0.05" d="M409.861 454.811C523.451 454.811 615.533 362.729 615.533 249.139C615.533 135.549 523.451 43.4668 409.861 43.4668C296.271 43.4668 204.188 135.549 204.188 249.139C204.188 362.729 296.271 454.811 409.861 454.811Z" fill="black"/>
  <path opacity="0.05" d="M409.861 417.706C502.958 417.706 578.427 342.236 578.427 249.139C578.427 156.043 502.958 80.5728 409.861 80.5728C316.764 80.5728 241.294 156.043 241.294 249.139C241.294 342.236 316.764 417.706 409.861 417.706Z" fill="black"/>
  <path opacity="0.05" d="M409.861 369.998C476.609 369.998 530.72 315.888 530.72 249.139C530.72 182.391 476.609 128.28 409.861 128.28C343.112 128.28 289.002 182.391 289.002 249.139C289.002 315.888 343.112 369.998 409.861 369.998Z" fill="black"/>
  <path d="M162.928 271.436C162.928 271.436 143.341 326.57 152.046 346.158C160.752 365.745 174.535 384.607 174.535 384.607C174.535 384.607 169.457 275.063 162.928 271.436Z" fill="#D0CDE1"/>
  <path opacity="0.1" d="M162.928 271.436C162.928 271.436 143.341 326.57 152.046 346.158C160.752 365.745 174.535 384.607 174.535 384.607C174.535 384.607 169.457 275.063 162.928 271.436Z" fill="black"/>
  <path d="M176.712 399.116C176.712 399.116 175.261 412.9 174.535 413.625C173.81 414.351 175.261 415.801 174.535 417.978C173.81 420.154 173.085 423.056 174.535 423.781C175.986 424.507 166.555 488.347 166.555 488.347C166.555 488.347 143.341 518.816 152.772 566.696L155.674 615.302C155.674 615.302 178.163 616.753 178.163 608.773C178.163 608.773 176.712 599.342 176.712 594.989C176.712 590.637 180.339 590.637 178.163 588.46C175.986 586.284 175.986 584.833 175.986 584.833C175.986 584.833 179.614 581.931 178.888 581.206C178.163 580.48 185.417 528.973 185.417 528.973C185.417 528.973 193.397 520.993 193.397 516.64V512.287C193.397 512.287 197.025 502.856 197.025 502.131C197.025 501.405 216.612 457.152 216.612 457.152L224.592 489.073L233.297 534.776C233.297 534.776 237.65 576.127 246.356 592.087C246.356 592.087 261.59 644.32 261.59 642.869C261.59 641.419 286.981 637.791 286.256 631.262C285.53 624.733 271.021 533.325 271.021 533.325L274.648 397.665L176.712 399.116Z" fill="#2F2E41"/>
  <path d="M157.125 611.675C157.125 611.675 137.537 650.124 150.595 651.575C163.654 653.026 168.732 653.026 174.535 647.222C177.708 644.049 184.134 639.792 189.307 636.585C192.372 634.715 194.848 632.019 196.451 628.806C198.054 625.594 198.72 621.994 198.371 618.421C197.988 614.871 196.662 611.947 193.397 611.675C184.692 610.949 174.535 602.969 174.535 602.969L157.125 611.675Z" fill="#2F2E41"/>
  <path d="M265.218 639.967C265.218 639.967 245.63 678.417 258.688 679.868C271.747 681.318 276.825 681.319 282.629 675.515C285.801 672.342 292.227 668.085 297.4 664.878C300.465 663.008 302.941 660.312 304.544 657.099C306.147 653.886 306.813 650.287 306.464 646.713C306.081 643.164 304.755 640.24 301.49 639.967C292.785 639.242 282.629 631.262 282.629 631.262L265.218 639.967Z" fill="#2F2E41"/>
  <path d="M244.516 208.514C261.358 208.514 275.011 194.861 275.011 178.019C275.011 161.177 261.358 147.523 244.516 147.523C227.674 147.523 214.02 161.177 214.02 178.019C214.02 194.861 227.674 208.514 244.516 208.514Z" fill="#FFB8B8"/>
  <path d="M224.912 188.039C224.912 188.039 203.129 228.119 201.386 228.119C199.644 228.119 240.595 241.188 240.595 241.188C240.595 241.188 251.922 202.851 253.664 199.366L224.912 188.039Z" fill="#FFB8B8"/>
  <path d="M258.326 231.898C258.326 231.898 214.798 207.958 210.446 208.683C206.093 209.409 159.664 250.034 160.389 266.72C161.115 283.405 166.918 310.973 166.918 310.973C166.918 310.973 169.095 387.871 173.447 388.597C177.8 389.322 172.722 402.38 174.173 402.38C175.624 402.38 275.737 402.38 276.462 400.204C277.188 398.028 258.326 231.898 258.326 231.898Z" fill="#D0CDE1"/>
  <path d="M282.629 404.194C282.629 404.194 296.412 446.271 284.805 444.82C273.198 443.369 268.119 408.547 268.119 408.547L282.629 404.194Z" fill="#FFB8B8"/>
  <path d="M245.63 229.359C245.63 229.359 218.788 235.163 223.141 271.436C227.494 307.708 235.474 343.981 235.474 343.981L262.316 402.743L265.218 413.625L284.805 408.547L270.296 324.394C270.296 324.394 265.218 234.437 258.688 231.535C254.571 229.78 250.094 229.034 245.63 229.359Z" fill="#D0CDE1"/>
  <path opacity="0.1" d="M229.307 342.893L262.679 402.38L234.563 339.697L229.307 342.893Z" fill="black"/>
  <path d="M274.876 169.039L274.977 166.709L279.613 167.863C279.563 167.115 279.352 166.386 278.993 165.728C278.634 165.069 278.137 164.497 277.536 164.049L282.474 163.773C278.33 157.885 273.036 152.898 266.911 149.112C260.786 145.327 253.958 142.823 246.838 141.75C236.157 140.202 224.264 142.442 216.94 150.369C213.387 154.214 211.155 159.104 209.567 164.092C206.643 173.279 206.047 184.231 212.145 191.699C218.343 199.289 229.169 200.776 238.923 201.715C242.355 202.046 245.952 202.353 249.132 201.022C249.486 197.374 249.019 193.693 247.765 190.249C247.243 189.183 246.994 188.004 247.039 186.818C247.473 183.916 251.343 183.185 254.251 183.577C257.159 183.969 260.655 184.569 262.566 182.342C263.882 180.808 263.804 178.575 263.978 176.561C264.453 171.08 274.826 170.189 274.876 169.039Z" fill="#2F2E41"/>
  <path d="M461.92 650.737C481.544 650.737 497.452 634.828 497.452 615.204C497.452 595.58 481.544 579.672 461.92 579.672C442.296 579.672 426.387 595.58 426.387 615.204C426.387 634.828 442.296 650.737 461.92 650.737Z" fill="#16161D"/>
  <path d="M44.622 638.342C64.2459 638.342 80.1542 622.433 80.1542 602.809C80.1542 583.185 64.2459 567.277 44.622 567.277C24.998 567.277 9.08966 583.185 9.08966 602.809C9.08966 622.433 24.998 638.342 44.622 638.342Z" fill="#16161D"/>
  <path d="M44.6219 581.325C58.7694 581.325 70.2382 569.856 70.2382 555.709C70.2382 541.561 58.7694 530.092 44.6219 530.092C30.4744 530.092 19.0056 541.561 19.0056 555.709C19.0056 569.856 30.4744 581.325 44.6219 581.325Z" fill="#16161D"/>
  <path d="M44.6219 534.224C54.6621 534.224 62.8012 526.085 62.8012 516.045C62.8012 506.004 54.6621 497.865 44.6219 497.865C34.5818 497.865 26.4426 506.004 26.4426 516.045C26.4426 526.085 34.5818 534.224 44.6219 534.224Z" fill="#16161D"/>
</svg>
