<svg width="714" height="411" viewBox="0 0 714 411" fill="none" xmlns="http://www.w3.org/2000/svg">
  <path opacity="0.5" d="M177.435 269.169C134.326 254.272 85.0361 241.662 44.7598 263.07C39.6552 265.783 34.6254 269.199 31.875 274.282C24.6105 287.654 36.1575 304.995 30.5297 319.129C24.902 333.264 3.72122 340.38 5.45515 355.478C5.91105 359.425 8.04855 362.998 10.5672 366.077C26.3444 385.355 55.268 387.305 79.7148 382.522C104.162 377.738 128.07 367.819 152.958 369.067C176.874 370.301 198.877 381.774 220.79 391.431C257.733 407.756 300.879 419.469 337.792 403.062C354.706 395.542 368.689 382.738 384.877 373.799C406.693 361.862 431.77 357.26 456.401 360.673C472.844 362.99 488.539 368.821 504.63 372.842C541.177 381.969 579.323 381.67 616.983 381.311C623.994 381.243 631.116 381.161 637.835 379.158C647.783 376.168 655.989 369.284 663.889 362.549C674.27 353.707 685.204 343.99 688.552 330.767C692.506 315.071 684.322 298.387 672.185 287.721C660.047 277.055 644.532 271.224 629.39 265.603C625.653 264.228 621.662 262.83 617.835 263.869C615.324 264.557 613.209 266.231 611.333 268.033C600.586 278.378 591.505 295.876 576.849 293.065C571.617 292.064 567.335 288.424 563.195 285.06C541.087 267.121 511.349 253.27 484.667 263.182C465.153 270.432 451.379 289.051 431.603 295.622C417.538 300.301 402.254 298.275 387.456 299.187C365.931 300.503 344.982 308.112 323.428 307.648C268.465 306.467 222.674 253.906 167.935 258.914C163.645 259.302 158.967 260.289 156.336 263.682" fill="#16161D"/>
  <path d="M108.123 219.171C108.123 219.171 62.4503 246.745 146.672 289.216C146.672 289.216 165.23 254.758 144.714 226.661C140.733 221.186 134.883 217.362 128.271 215.913C121.659 214.464 114.746 215.49 108.84 218.798L108.123 219.171Z" fill="#16161D"/>
  <path d="M108.668 218.596C108.668 218.596 147.771 248.494 146.68 289.194" stroke="#535461" stroke-miterlimit="10"/>
  <path d="M685.959 196.201C695.212 230.039 655.743 326.439 655.743 326.439C655.743 326.439 572.694 263.555 563.434 229.718C561.011 221.605 560.235 213.089 561.15 204.672C562.065 196.254 564.654 188.105 568.763 180.702C572.872 173.299 578.419 166.793 585.079 161.564C591.738 156.336 599.375 152.492 607.541 150.258C615.707 148.023 624.237 147.444 632.63 148.553C641.023 149.663 649.11 152.439 656.415 156.719C663.72 160.998 670.096 166.695 675.168 173.474C680.24 180.253 683.907 187.978 685.952 196.194L685.959 196.201Z" fill="#16161D"/>
  <path opacity="0.1" d="M685.959 196.201C695.212 230.039 655.743 326.439 655.743 326.439C655.743 326.439 572.694 263.555 563.434 229.718C561.011 221.605 560.235 213.089 561.15 204.672C562.065 196.254 564.654 188.105 568.763 180.702C572.872 173.299 578.419 166.793 585.079 161.564C591.738 156.336 599.375 152.492 607.541 150.258C615.707 148.023 624.237 147.444 632.63 148.553C641.023 149.663 649.11 152.439 656.415 156.719C663.72 160.998 670.096 166.695 675.168 173.474C680.24 180.253 683.907 187.978 685.952 196.194L685.959 196.201Z" fill="black"/>
  <path d="M608.276 151.884C608.276 151.884 659.973 229.934 656.109 326.626" stroke="#535461" stroke-miterlimit="10"/>
  <path d="M699.15 258.047C699.15 258.047 652.275 232.543 658.209 326.686C658.209 326.686 697.312 325.289 711.191 293.387C713.904 287.182 714.248 280.198 712.155 273.757C710.063 267.316 705.68 261.867 699.838 258.443L699.15 258.047Z" fill="#16161D"/>
  <path d="M699.92 258.211C699.92 258.211 693.866 307.08 658.209 326.686" stroke="#535461" stroke-miterlimit="10"/>
  <path d="M12.8766 247.552C12.8766 247.552 -32.8182 275.119 51.4115 317.567C51.4115 317.567 69.9689 283.109 49.4533 255.012C45.4721 249.538 39.6216 245.714 33.0099 244.264C26.3983 242.815 19.4848 243.841 13.5791 247.149L12.8766 247.552Z" fill="#16161D"/>
  <path d="M13.3998 246.977C13.3998 246.977 52.5027 276.875 51.4115 317.574" stroke="#535461" stroke-miterlimit="10"/>
  <path d="M583.03 283.438H535.011C536.116 281.215 536.689 278.766 536.685 276.285V57.6067C536.685 53.3426 534.991 49.2531 531.976 46.2379C528.962 43.2227 524.872 41.5288 520.609 41.5288H148.915C144.651 41.5288 140.562 43.2227 137.547 46.2379C134.532 49.2531 132.839 53.3426 132.839 57.6067V276.292C132.835 278.774 133.408 281.223 134.513 283.445H84.7969C84.2366 283.445 83.6818 283.556 83.1644 283.771C82.6469 283.986 82.1772 284.301 81.782 284.699C81.3868 285.096 81.074 285.568 80.8616 286.086C80.6492 286.605 80.5414 287.16 80.5444 287.721V291.152C80.5444 297.46 83.0499 303.509 87.5098 307.97C91.9698 312.43 98.0187 314.936 104.326 314.936H563.501C569.808 314.936 575.857 312.43 580.317 307.97C584.777 303.509 587.283 297.46 587.283 291.152V287.721C587.286 287.16 587.179 286.603 586.967 286.084C586.755 285.564 586.443 285.092 586.048 284.694C585.652 284.296 585.182 283.98 584.664 283.764C584.146 283.549 583.591 283.438 583.03 283.438ZM287.15 297.042L283.009 292.37H385.236L380.677 297.049L287.15 297.042Z" fill="url(#paint0_linear)"/>
  <path d="M514.712 44.6235H154.774C145.173 44.6235 137.39 52.4075 137.39 62.0095V272.398C137.39 282 145.173 289.784 154.774 289.784H514.712C524.313 289.784 532.096 282 532.096 272.398V62.0095C532.096 52.4075 524.313 44.6235 514.712 44.6235Z" fill="#535461"/>
  <path d="M522.956 80.3599H145.701V280.643H522.956V80.3599Z" fill="white"/>
  <path d="M334.332 66.2325C336.169 66.2325 337.658 64.7433 337.658 62.9063C337.658 61.0693 336.169 59.5801 334.332 59.5801C332.495 59.5801 331.006 61.0693 331.006 62.9063C331.006 64.7433 332.495 66.2325 334.332 66.2325Z" fill="white"/>
  <path d="M392.575 281.054L379.616 294.351H288.241L276.53 281.054H90.4396C89.3375 281.054 88.2806 281.492 87.5013 282.271C86.722 283.05 86.2842 284.107 86.2842 285.21V288.558C86.2842 294.723 88.733 300.636 93.092 304.996C97.451 309.355 103.363 311.804 109.528 311.804H558.299C561.352 311.804 564.374 311.203 567.194 310.035C570.014 308.867 572.576 307.154 574.735 304.996C576.893 302.837 578.605 300.274 579.773 297.454C580.941 294.634 581.543 291.611 581.543 288.558V285.21C581.543 284.107 581.105 283.05 580.325 282.271C579.546 281.492 578.489 281.054 577.387 281.054H392.575Z" fill="#535461"/>
  <path d="M193.899 92.8276V263.189H475.587" stroke="#535461" stroke-width="2" stroke-miterlimit="10"/>
  <path opacity="0.5" d="M247.905 211.667H218.824V256.544H247.905V211.667Z" fill="#16161D"/>
  <path opacity="0.7" d="M297.763 171.774H268.682V256.544H297.763V171.774Z" fill="#16161D"/>
  <path opacity="0.5" d="M347.62 195.873H318.54V256.537H347.62V195.873Z" fill="#16161D"/>
  <path opacity="0.8" d="M397.478 158.477H368.398V256.544H397.478V158.477Z" fill="#16161D"/>
  <path d="M447.336 123.571H418.255V256.537H447.336V123.571Z" fill="#16161D"/>
  <path d="M232.95 184.242L283.637 138.535L333.495 181.746L382.523 129.393L432.381 108.614" stroke="#535461" stroke-width="2" stroke-miterlimit="10"/>
  <path d="M232.95 190.057C236.161 190.057 238.765 187.454 238.765 184.242C238.765 181.03 236.161 178.427 232.95 178.427C229.739 178.427 227.135 181.03 227.135 184.242C227.135 187.454 229.739 190.057 232.95 190.057Z" fill="#16161D"/>
  <path d="M332.665 186.731C335.877 186.731 338.48 184.128 338.48 180.916C338.48 177.704 335.877 175.101 332.665 175.101C329.454 175.101 326.851 177.704 326.851 180.916C326.851 184.128 329.454 186.731 332.665 186.731Z" fill="#16161D"/>
  <path d="M383.353 135.209C386.564 135.209 389.167 132.605 389.167 129.393C389.167 126.182 386.564 123.578 383.353 123.578C380.141 123.578 377.538 126.182 377.538 129.393C377.538 132.605 380.141 135.209 383.353 135.209Z" fill="#16161D"/>
  <path d="M283.637 143.513C286.849 143.513 289.452 140.909 289.452 137.698C289.452 134.486 286.849 131.882 283.637 131.882C280.426 131.882 277.823 134.486 277.823 137.698C277.823 140.909 280.426 143.513 283.637 143.513Z" fill="#16161D"/>
  <path d="M432.381 114.429C435.592 114.429 438.195 111.826 438.195 108.614C438.195 105.402 435.592 102.799 432.381 102.799C429.169 102.799 426.566 105.402 426.566 108.614C426.566 111.826 429.169 114.429 432.381 114.429Z" fill="#16161D"/>
  <path d="M648.71 288.334C645.645 287.325 641.101 286.159 637.499 286.57C634.069 285.322 626.004 282.085 620.496 277.212C620.655 272.42 620.533 267.623 620.13 262.845C617.312 230.802 623.65 209.678 623.65 209.678C623.65 209.678 628.628 193.563 628.082 180.191C628.403 180.796 628.583 181.155 628.583 181.155C629.016 169.622 632.947 157.685 635.892 150.248C636.004 150.216 636.114 150.176 636.221 150.128L639.509 142.325C639.771 141.869 639.98 141.385 640.13 140.882L640.66 139.649L640.503 139.581C640.556 139.379 640.608 139.163 640.66 138.946C642.761 130.059 644.397 108.98 644.397 108.98C650.033 86.7955 636.654 73.1019 636.654 73.1019L613.949 53.5633C614.062 53.8176 614.138 54.087 614.173 54.3631L613.986 54.1986C613.665 53.2792 613.314 52.1805 612.97 50.9247C613.771 50.3496 614.521 49.7069 615.212 49.0037C617.794 46.5654 619.569 43.397 620.302 39.9221C620.742 37.2047 620.855 34.4443 620.638 31.7L620.264 22.2745C620.247 20.4298 620.06 18.5907 619.704 16.7806C617.992 9.30599 610.332 4.07374 602.641 3.72991C600.194 3.71566 597.749 3.84545 595.317 4.11859C593.328 4.28198 591.332 4.32441 589.338 4.24566C589.111 4.25769 588.886 4.19751 588.695 4.07375C588.522 3.9011 588.423 3.66789 588.419 3.42345C588.379 2.98598 588.429 2.54511 588.565 2.12753C588.702 1.70996 588.921 1.32438 589.211 0.994192C589.512 0.730312 589.862 0.529518 590.242 0.403701L589.697 0.530768C589.966 0.318633 590.269 0.154295 590.593 0.0449219C588.6 0.395466 586.683 1.09106 584.928 2.10045C584.445 2.41809 584.001 2.79193 583.605 3.21416C582.56 4.13125 581.881 5.3945 581.692 6.77209C580.756 5.98141 580.057 4.9464 579.674 3.78224C579.555 3.3062 579.555 2.80819 579.674 2.33216C579.54 2.4966 579.41 2.66602 579.286 2.84043C579.286 2.7881 579.286 2.73579 579.286 2.68347C577.841 4.45902 576.819 6.53946 576.296 8.76781C576.095 8.52651 575.944 8.24761 575.851 7.94733C575.759 7.64706 575.727 7.33141 575.758 7.01875C575.646 7.37006 575.541 7.72136 575.444 8.07267C575.41 7.83969 575.41 7.60303 575.444 7.37005C574.564 10.0648 574.167 12.8938 574.271 15.7267C574.271 18.5521 575.526 22.9547 578.553 23.9488C578.71 24.0011 578.867 24.0385 579.032 24.0759C577.329 26.7205 576.31 29.7463 576.064 32.8819C575.819 36.0176 576.356 39.1651 577.626 42.0424C578.896 44.9196 580.861 47.4366 583.343 49.3678C585.825 51.2989 588.748 52.5838 591.849 53.1073C591.899 53.4511 591.946 53.8124 591.991 54.1911H592.111C592.193 54.9386 592.26 55.7608 592.305 56.598C591.541 57.3465 590.705 58.0175 589.809 58.6012C587.268 60.1035 584.433 61.0415 581.498 61.3518C577.992 61.6269 574.586 62.6462 571.505 64.3417C567.881 66.3673 563.882 69.3198 562.627 72.9076C560.534 78.8873 549.009 88.1932 541.281 89.3518L538.531 89.1948L538.329 89.135V89.1874L537.657 89.15H537.619H537.44V89.1874L536.745 89.15C536.745 89.15 536.678 89.4714 536.58 90.0395C532.694 88.7015 524.435 84.9941 513.688 75.2397C501.73 64.3791 485.549 66.5168 479.309 67.8847C479.096 67.9315 478.903 68.042 478.755 68.2014C478.608 68.3608 478.512 68.5615 478.481 68.7767C478.45 68.9919 478.486 69.2115 478.583 69.406C478.68 69.6005 478.834 69.7608 479.025 69.8654C481.543 71.2482 485.445 73.2589 487.246 73.4832C487.246 73.4832 483.509 77.3924 487.485 79.4629C487.962 79.6935 488.493 79.7883 489.021 79.7369C489.548 79.6855 490.051 79.4898 490.475 79.1713C492.403 77.7586 497.761 80.9578 505.527 82.6246C505.527 82.6246 527.44 105.303 538.322 108.786C538.572 109.281 538.849 109.763 539.151 110.228L539.824 110.176V110.228H540.108L540.19 110.976C540.19 110.976 557.111 110.086 562.612 103.942C563.001 103.594 563.359 103.211 563.68 102.799L557.798 176.798H557.851L557.798 177.5H562.126C562.496 186.601 562.104 195.717 560.952 204.753V252.994C560.952 252.994 560.728 257.239 569.547 263.458C578.794 269.897 587.704 276.805 596.244 284.156L597.312 285.082C595.691 299.845 592.297 327.359 589.465 328.383L591.214 328.689C588.224 332.479 579.734 342.891 577.148 343.168C573.979 343.519 571.864 348.452 577.148 349.506C587.699 351.333 598.547 350.263 608.538 346.412C609.534 346.019 610.37 345.303 610.912 344.379C611.454 343.455 611.671 342.376 611.528 341.314L610.504 333.54C610.698 333.648 610.854 333.812 610.952 334.011C611.655 336.127 610.952 331.193 610.952 331.193C613.847 321.887 616.122 312.398 617.761 302.79L628.224 311.834C628.224 311.834 628.433 311.573 628.799 311.087C631.363 316.902 635.937 328.802 634.913 337.517C633.508 349.476 646.871 338.922 645.474 331.881C644.338 326.185 649.42 302.042 651.4 293.013C651.614 292.038 651.456 291.019 650.959 290.154C650.461 289.289 649.66 288.64 648.71 288.334Z" fill="url(#paint1_linear)"/>
  <path d="M539.361 92.9993C539.361 92.9993 529.391 91.2801 514.607 77.8706C502.911 67.2641 487.134 69.3496 481.05 70.6875C480.843 70.7323 480.654 70.8395 480.51 70.9947C480.365 71.1499 480.271 71.3456 480.241 71.5555C480.211 71.7655 480.246 71.9797 480.341 72.1692C480.436 72.3588 480.587 72.5147 480.773 72.616C483.232 73.9614 487.044 75.9272 488.83 76.1515C488.83 76.1515 485.146 79.9635 489.062 82.0041C489.531 82.2344 490.055 82.3298 490.575 82.2797C491.095 82.2295 491.59 82.0358 492.007 81.7201C493.89 80.3447 499.122 83.4691 506.708 85.0911C506.708 85.0911 536.274 115.692 543.15 110.505L539.361 92.9993Z" fill="#FEC3BE"/>
  <path d="M590.265 51.3957C590.265 51.3957 593.015 63.086 590.265 71.338L602.641 73.0571L613.643 67.5558V60.3353C613.643 60.3353 608.486 49.3327 609.861 36.6108L590.265 51.3957Z" fill="#FEC3BE"/>
  <path d="M625.309 304.786C625.309 304.786 634.278 322.321 632.873 334.012C631.468 345.702 644.562 335.387 643.187 328.51C642.073 322.949 647.036 299.359 648.971 290.584C649.181 289.636 649.031 288.643 648.55 287.799C648.07 286.955 647.293 286.32 646.37 286.017C642.237 284.656 635.317 282.99 631.841 285.539C626.707 289.313 625.309 304.786 625.309 304.786Z" fill="#8B416F"/>
  <path d="M591.296 324.04C591.296 324.04 579.607 339.169 576.513 339.513C573.419 339.857 571.356 344.67 576.513 345.702C586.809 347.494 597.399 346.461 607.155 342.712C608.132 342.331 608.952 341.633 609.485 340.731C610.017 339.828 610.231 338.773 610.093 337.734L608.12 323.009L591.296 324.04Z" fill="#8B416F"/>
  <path d="M572.043 163.478L560.833 164.972C562.371 178.068 562.326 191.301 560.698 204.386V251.476C560.698 251.476 560.482 255.625 569.091 261.657C578.12 267.934 586.821 274.67 595.16 281.838L626.356 308.867C626.356 308.867 638.732 293.738 637.013 284.798C637.013 284.798 616.385 278.265 613.635 267.607C612.058 261.507 604.061 256.395 597.514 253.181C593.399 251.182 590.09 247.835 588.139 243.696C586.189 239.557 585.712 234.875 586.789 230.428C587.172 228.882 587.762 227.396 588.546 226.01C594.046 216.383 601.954 194.721 601.954 194.721L586.827 165.884L572.043 163.478Z" fill="#4D4981"/>
  <path opacity="0.05" d="M572.043 163.478L560.833 164.972C562.371 178.068 562.326 191.301 560.698 204.386V251.476C560.698 251.476 560.482 255.625 569.091 261.657C578.12 267.934 586.821 274.67 595.16 281.838L626.356 308.867C626.356 308.867 638.732 293.738 637.013 284.798C637.013 284.798 616.385 278.265 613.635 267.607C612.058 261.507 604.061 256.395 597.514 253.181C593.399 251.182 590.09 247.835 588.139 243.696C586.189 239.557 585.712 234.875 586.789 230.428C587.172 228.882 587.762 227.396 588.546 226.01C594.046 216.383 601.954 194.721 601.954 194.721L586.827 165.884L572.043 163.478Z" fill="black"/>
  <path d="M588.546 325.094C588.546 325.094 608.829 328.532 609.517 330.595C610.205 332.658 609.517 327.845 609.517 327.845C609.517 327.845 621.206 292.43 618.486 261.149C615.765 229.867 621.923 209.23 621.923 209.23C621.923 209.23 629.143 185.849 625.018 172.44C620.892 159.03 577.574 164.875 577.574 164.875C577.574 164.875 592.701 200.29 592.357 217.138C592.357 217.138 594.076 268.025 597.17 273.87C597.14 273.841 592.327 323.696 588.546 325.094Z" fill="#4D4981"/>
  <path d="M590.93 60.335C590.93 60.335 592.993 73.0418 613.62 67.5555L599.898 172.073C599.898 172.073 560.018 173.449 560.362 168.635L568.583 105.377L590.93 60.335Z" fill="white"/>
  <path opacity="0.1" d="M591.468 59.6475C588.782 62.2922 585.282 63.9539 581.535 64.364C578.113 64.6263 574.785 65.615 571.774 67.2641C568.239 69.2449 564.301 72.1226 563.105 75.6282C560.698 82.5049 545.571 93.8514 538.695 91.4445L541.102 112.075C541.102 112.075 560.698 111.043 564.136 103.479L558.299 177.096H563.456C563.456 177.096 566.206 157.154 568.269 153.028C570.332 148.902 574.458 126.209 574.801 120.708C575.145 115.206 580.302 83.5738 584.771 78.1023L591.498 61.7703L591.468 59.6475Z" fill="black"/>
  <path opacity="0.1" d="M591.468 60.6792C588.395 63.0828 584.722 64.5954 580.848 65.0519C577.426 65.3199 574.102 66.3136 571.094 67.967C567.559 69.9477 563.621 72.8255 562.425 76.3311C560.018 83.2077 544.891 94.5542 538.015 92.1474L540.422 112.777C540.422 112.777 560.018 111.746 563.456 104.182L557.612 177.754H562.769C562.769 177.754 565.519 157.812 567.582 153.686C569.644 149.56 573.77 126.867 574.114 121.366C574.458 115.864 579.614 84.2318 584.084 78.7603L591.468 62.7347V60.6792Z" fill="black"/>
  <path d="M591.468 59.9917C588.395 62.3953 584.722 63.9079 580.848 64.3644C577.425 64.6267 574.098 65.6154 571.087 67.2645C567.552 69.2453 563.613 72.123 562.417 75.6286C560.011 82.5053 544.884 93.8518 538.008 91.4449L540.414 112.075C540.414 112.075 560.011 111.043 563.449 103.479L557.612 177.097H562.769C562.769 177.097 565.519 157.154 567.582 153.028C569.644 148.902 573.77 126.209 574.114 120.708C574.458 115.207 579.614 83.5742 584.084 78.1027L591.475 62.1145L591.468 59.9917Z" fill="#FD6F8D"/>
  <path opacity="0.1" d="M609.001 46.7537C608.553 43.4947 609.45 41.4616 609.861 37.6421L590.265 52.4269C590.265 52.4269 590.735 54.4226 591.094 57.3452C592.083 57.5049 593.082 57.5849 594.084 57.5844C600.885 57.5844 605.78 52.2699 609.001 46.7537Z" fill="black"/>
  <path d="M594.046 56.5602C604.299 56.5602 612.611 48.2475 612.611 37.9933C612.611 27.739 604.299 19.4263 594.046 19.4263C583.793 19.4263 575.481 27.739 575.481 37.9933C575.481 48.2475 583.793 56.5602 594.046 56.5602Z" fill="#FEC3BE"/>
  <path opacity="0.1" d="M573.785 19.7928C573.666 16.6617 574.174 13.5383 575.28 10.6065C574.972 11.0678 574.843 11.6247 574.914 12.1742C574.985 12.7238 575.253 13.2289 575.668 13.5964C576.267 10.401 577.907 7.49397 580.332 5.32941C579.009 5.54618 578.329 7.18312 578.658 8.48371C579.105 9.75405 579.9 10.873 580.952 11.7128C580.84 9.74692 582.141 7.90817 583.785 6.83182C585.498 5.84768 587.369 5.16979 589.315 4.82861C588.648 5.06549 588.078 5.51659 587.694 6.11154C587.31 6.70648 587.134 7.41179 587.193 8.11745C587.199 8.35719 587.298 8.58519 587.469 8.75279C587.656 8.87229 587.876 8.92984 588.097 8.91724C590.034 8.99188 591.973 8.94945 593.904 8.79017C596.279 8.52288 598.667 8.3956 601.057 8.40897C608.53 8.7229 616.042 13.8281 617.716 21.1158C618.063 22.8841 618.245 24.6807 618.261 26.4826L618.628 35.6839C618.84 38.3683 618.73 41.0685 618.299 43.7266C617.781 46.1805 616.728 48.4898 615.215 50.4899C613.703 52.49 611.767 54.1315 609.547 55.2973C606.849 51.3881 606.61 46.3651 605.675 41.7084C605.528 40.6338 605.129 39.6093 604.51 38.7186C604.19 38.2782 603.741 37.9481 603.226 37.774C602.71 37.5999 602.153 37.5904 601.632 37.7469C600.623 38.1505 600.19 39.6903 601.027 40.378C600.279 41.26 598.882 40.6022 598.037 39.8174C595.679 37.5797 594.055 34.6787 593.381 31.4981C593.045 29.8985 592.709 27.9252 591.139 27.3796C590.599 27.2312 590.035 27.1931 589.48 27.2675C586.206 27.4917 581.087 28.8446 577.918 27.8056C575.011 26.8564 573.785 22.551 573.785 19.7928Z" fill="black"/>
  <path d="M574.129 19.4491C574.01 16.3179 574.518 13.1946 575.623 10.2627C575.316 10.724 575.186 11.2809 575.258 11.8305C575.329 12.38 575.597 12.8852 576.012 13.2526C576.61 10.0573 578.25 7.15022 580.676 4.98566C579.353 5.20243 578.673 6.83937 579.002 8.13996C579.448 9.4103 580.243 10.5293 581.296 11.369C581.184 9.40316 582.484 7.56441 584.129 6.48806C585.842 5.50391 587.713 4.82604 589.659 4.48486C588.992 4.72174 588.422 5.17284 588.038 5.76779C587.654 6.36273 587.478 7.06804 587.537 7.7737C587.542 8.01344 587.642 8.24144 587.813 8.40904C588 8.52854 588.22 8.58608 588.441 8.57348C590.377 8.64812 592.317 8.60568 594.248 8.44641C596.623 8.17912 599.011 8.05184 601.401 8.06521C608.874 8.37914 616.385 13.4843 618.06 20.7721C618.407 22.5404 618.589 24.3369 618.605 26.1389L618.971 35.3401C619.184 38.0245 619.074 40.7248 618.643 43.3828C618.125 45.8367 617.072 48.146 615.559 50.1461C614.047 52.1462 612.111 53.7877 609.891 54.9536C607.193 51.0443 606.954 46.0214 606.019 41.3647C605.872 40.2901 605.472 39.2655 604.853 38.3748C604.534 37.9344 604.085 37.6043 603.57 37.4302C603.054 37.2561 602.497 37.2466 601.976 37.4031C600.967 37.8068 600.534 39.3465 601.371 40.0342C600.623 40.9162 599.226 40.2584 598.381 39.4736C596.023 37.236 594.399 34.335 593.725 31.1543C593.389 29.5548 593.052 27.5815 591.483 27.0358C590.943 26.8874 590.379 26.8493 589.824 26.9237C586.55 27.1479 581.431 28.5008 578.262 27.4619C575.354 26.5051 574.129 22.2072 574.129 19.4491Z" fill="#784F69"/>
  <path opacity="0.1" d="M537.118 91.4521C537.118 91.4521 534.368 104.159 539.525 112.082L542.447 111.843L540.855 91.6614L537.118 91.4521Z" fill="black"/>
  <path d="M537.866 91.4521C537.866 91.4521 535.115 104.159 540.272 112.082L543.195 111.843L541.603 91.6614L537.866 91.4521Z" fill="#FD6F8D"/>
  <path opacity="0.1" d="M611.752 56.7549L633.927 75.8376C633.927 75.8376 646.991 89.2471 641.49 110.909C641.49 110.909 639.083 142.541 636.333 143.917C636.333 143.917 626.707 163.171 626.019 181.394C626.019 181.394 613.127 155.435 607.282 171.251C601.438 187.068 587.851 189.302 587.851 189.302L595.414 95.75C595.414 95.75 614.502 62.5701 611.752 56.7549Z" fill="black"/>
  <path d="M612.439 56.7549L634.614 75.8376C634.614 75.8376 647.678 89.2471 642.178 110.909C642.178 110.909 639.771 142.541 637.021 143.917C637.021 143.917 627.394 163.171 626.707 181.394C626.707 181.394 613.127 154.06 607.275 169.876C601.423 185.692 588.538 189.31 588.538 189.31L596.102 95.7949C596.102 95.7949 615.19 62.5701 612.439 56.7549Z" fill="#FD6F8D"/>
  <path d="M622.581 137.354C622.581 137.354 628.082 133.572 637.021 143.887L615.018 183.771L607.626 172.612C607.626 172.612 623.269 141.824 622.581 137.354Z" fill="#FEC3BE"/>
  <path opacity="0.1" d="M617.252 139.589C617.252 139.589 629.42 153.252 634.166 151.062L638.56 140.83L622.066 133.744L617.252 139.589Z" fill="black"/>
  <path d="M617.252 138.901C617.252 138.901 629.42 152.564 634.166 150.374L638.56 140.142L622.066 133.056L617.252 138.901Z" fill="#FD6F8D"/>
  <path opacity="0.1" d="M608.374 170.003C608.374 170.003 614.166 181.873 617.252 182.56L612.768 187.718L606.236 175.34L608.374 170.003Z" fill="black"/>
  <path d="M608.03 170.369C608.03 170.369 613.822 182.239 616.909 182.927L612.424 188.084L605.877 175.684L608.03 170.369Z" fill="#4D4981"/>
  <path opacity="0.1" d="M618.971 96.9536C618.971 96.9536 619.659 121.71 616.909 130.993L618.971 96.9536Z" fill="black"/>
  <path opacity="0.1" d="M563.277 101.767C563.277 101.767 567.402 100.392 567.402 96.9536L563.277 101.767Z" fill="black"/>
  <path d="M62.3008 105.908C62.3008 105.908 42.7045 146.451 55.5744 194.43C68.4442 242.41 64.3561 299.823 51.5236 314.024" stroke="#535461" stroke-width="2" stroke-miterlimit="10"/>
  <path d="M62.3008 111.32C65.2851 111.32 67.7044 108.9 67.7044 105.915C67.7044 102.931 65.2851 100.511 62.3008 100.511C59.3165 100.511 56.8973 102.931 56.8973 105.915C56.8973 108.9 59.3165 111.32 62.3008 111.32Z" fill="#16161D"/>
  <path d="M54.1544 131.987C54.1544 131.987 74.4681 135.649 79.8717 128.25" stroke="#535461" stroke-width="2" stroke-miterlimit="10"/>
  <path d="M52.2261 143.76C52.2261 143.76 40.0065 130.238 40.6791 122.128" stroke="#535461" stroke-width="2" stroke-miterlimit="10"/>
  <path d="M51.1873 168.53C51.1873 168.53 62.3008 171.46 72.4427 149.844" stroke="#535461" stroke-width="2" stroke-miterlimit="10"/>
  <path d="M54.1544 186.544C54.1544 186.544 26.5014 168.747 29.872 157.266" stroke="#535461" stroke-width="2" stroke-miterlimit="10"/>
  <path d="M58.4742 206.913C58.4742 206.913 77.8463 189.721 75.8209 172.806" stroke="#535461" stroke-width="2" stroke-miterlimit="10"/>
  <path d="M60.5818 218.887C60.5818 218.887 35.9183 211.995 36.6657 201.187" stroke="#535461" stroke-width="2" stroke-miterlimit="10"/>
  <path d="M62.3008 233.156C62.3008 233.156 77.8388 218.76 79.8642 209.985" stroke="#535461" stroke-width="2" stroke-miterlimit="10"/>
  <path d="M63.3845 257.636C63.3845 257.636 47.4429 239.024 46.7628 229.568" stroke="#535461" stroke-width="2" stroke-miterlimit="10"/>
  <path d="M63.3845 273.041C63.3845 273.041 81.2245 253.218 82.5697 243.763" stroke="#535461" stroke-width="2" stroke-miterlimit="10"/>
  <path d="M40.6791 128.885C43.6634 128.885 46.0827 126.465 46.0827 123.481C46.0827 120.496 43.6634 118.077 40.6791 118.077C37.6948 118.077 35.2756 120.496 35.2756 123.481C35.2756 126.465 37.6948 128.885 40.6791 128.885Z" fill="#16161D"/>
  <path d="M34.603 206.591C37.5873 206.591 40.0065 204.172 40.0065 201.187C40.0065 198.202 37.5873 195.783 34.603 195.783C31.6187 195.783 29.1994 198.202 29.1994 201.187C29.1994 204.172 31.6187 206.591 34.603 206.591Z" fill="#16161D"/>
  <path d="M29.872 162.671C32.8563 162.671 35.2756 160.251 35.2756 157.266C35.2756 154.282 32.8563 151.862 29.872 151.862C26.8877 151.862 24.4684 154.282 24.4684 157.266C24.4684 160.251 26.8877 162.671 29.872 162.671Z" fill="#16161D"/>
  <path d="M79.8717 133.616C82.856 133.616 85.2752 131.197 85.2752 128.212C85.2752 125.228 82.856 122.808 79.8717 122.808C76.8874 122.808 74.4681 125.228 74.4681 128.212C74.4681 131.197 76.8874 133.616 79.8717 133.616Z" fill="#16161D"/>
  <path d="M79.8717 216.727C82.856 216.727 85.2752 214.307 85.2752 211.323C85.2752 208.338 82.856 205.918 79.8717 205.918C76.8874 205.918 74.4681 208.338 74.4681 211.323C74.4681 214.307 76.8874 216.727 79.8717 216.727Z" fill="#16161D"/>
  <path d="M71.09 155.24C74.0743 155.24 76.4935 152.821 76.4935 149.836C76.4935 146.852 74.0743 144.432 71.09 144.432C68.1057 144.432 65.6864 146.852 65.6864 149.836C65.6864 152.821 68.1057 155.24 71.09 155.24Z" fill="#16161D"/>
  <path d="M81.8971 252.545C84.8814 252.545 87.3006 250.126 87.3006 247.141C87.3006 244.156 84.8814 241.737 81.8971 241.737C78.9128 241.737 76.4935 244.156 76.4935 247.141C76.4935 250.126 78.9128 252.545 81.8971 252.545Z" fill="#16161D"/>
  <path d="M45.41 238.351C48.3943 238.351 50.8136 235.932 50.8136 232.947C50.8136 229.962 48.3943 227.543 45.41 227.543C42.4257 227.543 40.0065 229.962 40.0065 232.947C40.0065 235.932 42.4257 238.351 45.41 238.351Z" fill="#16161D"/>
  <path d="M76.4935 178.21C79.4778 178.21 81.8971 175.791 81.8971 172.806C81.8971 169.821 79.4778 167.402 76.4935 167.402C73.5092 167.402 71.09 169.821 71.09 172.806C71.09 175.791 73.5092 178.21 76.4935 178.21Z" fill="#16161D"/>
  <defs>
    <linearGradient id="paint0_linear" x1="333.913" y1="314.906" x2="333.913" y2="41.5213" gradientUnits="userSpaceOnUse">
      <stop stop-color="#808080" stop-opacity="0.25"/>
      <stop offset="0.54" stop-color="#808080" stop-opacity="0.12"/>
      <stop offset="1" stop-color="#808080" stop-opacity="0.1"/>
    </linearGradient>
    <linearGradient id="paint1_linear" x1="152450" y1="225531" x2="152450" y2="61332.1" gradientUnits="userSpaceOnUse">
      <stop stop-color="#808080" stop-opacity="0.25"/>
      <stop offset="0.54" stop-color="#808080" stop-opacity="0.12"/>
      <stop offset="1" stop-color="#808080" stop-opacity="0.1"/>
    </linearGradient>
  </defs>
</svg>
