<svg width="659" height="518" viewBox="0 0 659 518" fill="none" xmlns="http://www.w3.org/2000/svg">
  <path d="M214.442 127.857L136.346 192.691C139.566 196.231 142.036 200.387 143.606 204.91C145.176 209.432 145.813 214.227 145.479 219.003C145.145 223.779 143.847 228.437 141.664 232.697C139.48 236.956 136.456 240.728 132.775 243.784C129.093 246.841 124.831 249.118 120.245 250.478C115.66 251.838 110.846 252.253 106.096 251.698C101.345 251.143 96.7569 249.629 92.6076 247.248C88.4584 244.867 84.8347 241.668 81.9556 237.845L11.939 295.972L124.174 431.451L326.678 263.336L214.442 127.857Z" fill="#F2F2F2"/>
  <path d="M659 324.152C659 404.228 611.446 432.187 552.786 432.187C494.126 432.187 446.572 404.228 446.572 324.152C446.572 244.076 552.786 142.207 552.786 142.207C552.786 142.207 659 244.076 659 324.152Z" fill="#F2F2F2"/>
  <path d="M548.917 419.938L550.005 352.922L595.276 270.013L550.175 342.409L550.664 312.276L581.865 252.292L550.794 304.301V304.302L551.673 250.106L585.083 202.351L551.812 241.583L552.361 142.207L548.907 273.763L549.191 268.336L515.223 216.287L548.647 278.754L545.481 339.282L545.388 337.675L506.228 282.901L545.268 343.351L544.873 350.921L544.802 351.034L544.834 351.655L536.804 505.219H547.533L548.82 425.9L587.766 365.599L548.917 419.938Z" fill="#3F3D56"/>
  <path d="M460.388 517.588C542.386 517.588 608.859 512.626 608.859 506.506C608.859 500.385 542.386 495.424 460.388 495.424C378.39 495.424 311.918 500.385 311.918 506.506C311.918 512.626 378.39 517.588 460.388 517.588Z" fill="#3F3D56"/>
  <path d="M474.063 0H450.621V509.765H474.063V0Z" fill="#3F3D56"/>
  <path d="M595.492 488.326C595.492 502.973 586.795 508.087 576.065 508.087C575.816 508.087 575.568 508.084 575.32 508.078C574.823 508.068 574.331 508.044 573.844 508.011C564.161 507.325 556.637 501.948 556.637 488.326C556.637 474.229 574.632 456.441 575.984 455.125L575.987 455.122C576.039 455.071 576.065 455.047 576.065 455.047C576.065 455.047 595.492 473.679 595.492 488.326Z" fill="#16161D"/>
  <path d="M575.357 505.846L582.462 495.907L575.339 506.937L575.32 508.078C574.823 508.068 574.331 508.044 573.844 508.011L574.61 493.357L574.604 493.243L574.617 493.222L574.689 491.838L567.548 480.78L574.712 490.8L574.728 491.094L575.307 480.022L569.193 468.596L575.382 478.079L575.984 455.125L575.986 455.046V455.122L575.886 473.223L581.972 466.047L575.861 474.782L575.7 484.695L581.383 475.182L575.676 486.154L575.586 491.665L583.837 478.423L575.556 493.588L575.357 505.846Z" fill="#3F3D56"/>
  <path d="M422.767 477.361L418.611 474.27C418.611 474.27 415.861 489.652 418.93 491.957C422 494.261 433.511 498.102 433.511 502.711C433.511 507.321 459.602 513.466 460.37 506.553C461.137 499.639 458.067 495.798 458.067 495.798C458.067 495.798 445.789 483.506 444.254 481.202C442.72 478.897 438.883 474.288 438.883 474.288L422.767 477.361Z" fill="#2F2E41"/>
  <path d="M484.159 286.077C484.159 286.077 484.044 286.753 483.844 287.99C483.66 289.088 483.407 290.64 483.1 292.553C479.877 312.242 470.476 370.203 471.113 372.116C471.881 374.421 477.252 382.871 471.113 385.176C470.522 385.398 469.885 386.121 469.202 387.257C467.884 389.706 466.797 392.273 465.956 394.924C462.296 405.556 458.382 422.572 456.118 434.356C455.128 439.534 454.453 443.698 454.254 445.879C454.184 446.384 454.176 446.894 454.23 447.4C454.998 450.473 449.626 461.228 447.324 464.301C445.022 467.374 441.185 470.447 441.952 473.52C442.72 476.592 422.767 485.043 420.465 479.665C418.163 474.288 418.163 471.215 417.395 469.679C416.628 468.142 415.861 457.387 419.698 455.851C423.535 454.314 421.232 427.427 425.069 422.05C426.351 420.26 428.308 414.199 430.357 406.908C431.162 404.051 431.976 401.008 432.774 397.959C436.012 385.46 438.883 372.884 438.883 372.884L438.115 283.004L480.322 277.627L481.404 280.016L483.56 284.756L484.159 286.077Z" fill="#2F2E41"/>
  <path d="M486.461 433.573C486.461 433.573 492.6 427.427 495.67 433.573C498.74 439.718 501.809 463.533 507.181 468.91C512.553 474.288 519.459 501.175 511.785 502.711C504.111 504.248 495.67 500.407 494.903 495.798C494.135 491.188 478.02 467.374 478.02 465.069C478.02 462.765 488.763 454.314 488.763 454.314L486.461 433.573Z" fill="#2F2E41"/>
  <path d="M392.071 243.826C392.071 243.826 402.047 333.706 404.35 342.156C406.652 350.606 418.93 382.871 422.767 388.249C426.604 393.626 451.161 437.414 454.23 439.718C457.3 442.023 463.439 448.169 463.439 448.169C463.439 448.169 474.95 459.692 476.485 461.997C478.02 464.301 491.066 457.387 491.833 452.778C492.6 448.169 491.065 440.487 490.298 437.414C489.531 434.341 491.833 429.732 489.531 427.427C487.229 425.123 475.718 413.599 475.718 408.222C475.718 402.844 455.765 371.348 448.091 364.434C440.417 357.52 441.952 345.997 441.952 345.997V299.136L484.159 286.077C484.159 286.077 481.857 249.203 476.485 249.203C471.113 249.203 400.513 236.912 392.071 243.826Z" fill="#2F2E41"/>
  <path d="M454.231 115.535C468.217 115.535 479.555 104.185 479.555 90.184C479.555 76.1831 468.217 64.8331 454.231 64.8331C440.244 64.8331 428.906 76.1831 428.906 90.184C428.906 104.185 440.244 115.535 454.231 115.535Z" fill="#9F616A"/>
  <path d="M445.789 110.157C445.789 110.157 442.72 121.681 438.883 124.753C435.046 127.826 448.859 140.886 448.859 140.886L474.95 142.422L479.555 127.826C479.555 127.826 471.113 110.926 473.416 100.171C475.718 89.4158 445.789 110.157 445.789 110.157Z" fill="#9F616A"/>
  <path d="M435.046 123.217C435.046 123.217 441.952 123.985 443.487 126.29C445.022 128.594 455.765 135.508 464.207 133.972C472.648 132.435 478.02 130.131 479.555 130.899C481.089 131.667 484.159 147.8 484.159 147.8L475.718 172.382L477.252 239.984L479.555 258.421C479.555 258.421 484.159 252.276 465.741 256.117C447.324 259.958 423.535 253.044 415.861 252.276C408.187 251.508 395.141 249.203 394.374 244.594C393.606 239.984 396.676 223.084 396.676 223.084L408.954 171.614L416.628 143.959L435.046 123.217Z" fill="#3F3D56"/>
  <path d="M442.304 119.75C442.304 119.75 435.813 116.303 433.511 119.376C431.209 122.449 402.047 127.058 402.047 129.363C402.047 131.667 395.908 193.892 397.443 199.269C398.978 204.647 394.373 210.793 394.373 210.793L389.002 233.839C389.002 233.839 374.421 277.627 380.56 279.163C386.699 280.699 392.071 279.163 394.373 279.163C396.676 279.163 395.908 249.971 402.047 242.289C408.187 234.607 416.628 215.402 418.163 211.561C419.698 207.72 438.883 154.713 438.115 148.568C437.348 142.422 442.304 119.75 442.304 119.75Z" fill="#D0CDE1"/>
  <path d="M474.183 123.217C474.183 123.217 480.322 123.217 481.089 124.753C481.857 126.29 489.531 136.276 492.6 138.581C495.67 140.886 506.414 150.872 506.414 153.177C506.414 155.482 484.159 172.382 484.159 172.382C484.159 172.382 474.95 217.706 479.555 233.071C484.159 248.435 491.066 285.309 487.996 287.613C484.926 289.918 478.02 290.686 478.02 287.613C478.02 284.541 473.415 251.508 469.578 244.594C465.741 237.68 454.23 193.892 458.835 181.601C463.439 169.309 474.183 123.217 474.183 123.217Z" fill="#D0CDE1"/>
  <path d="M372.886 199.269C372.886 199.269 372.119 223.084 380.56 235.375C389.002 247.666 394.374 261.494 394.374 261.494C394.374 261.494 408.187 257.653 410.489 253.044C412.791 248.435 427.372 252.276 427.372 250.739C427.372 249.203 409.722 241.521 408.187 239.984C406.652 238.448 401.28 238.448 398.211 235.375C395.141 232.302 394.374 225.388 394.374 225.388L391.304 205.415L372.886 199.269Z" fill="#9F616A"/>
  <path d="M436.789 74.5531C434.84 74.376 432.831 74.1811 431.109 73.2515C427.251 71.1687 426.228 65.2375 429.165 61.9802C429.975 61.1514 430.881 60.4223 431.863 59.8085L437.696 55.8339C440.276 54.076 442.917 52.2894 445.926 51.4607C448.648 50.7112 451.522 50.7882 454.339 50.9635C459.808 51.3038 465.311 52.0067 470.455 53.8969C475.599 55.7872 480.398 58.9495 483.513 63.4621C488.452 70.6159 488.52 80.264 485.8 88.5227C483.08 96.7814 477.912 103.973 472.821 111.019L470.179 98.1151C469.944 96.9658 469.64 95.7062 468.685 95.026C466.311 93.3354 463.408 96.8065 460.496 96.784C458.624 96.7696 457.053 95.2286 456.344 93.4947C455.634 91.7609 455.588 89.8408 455.423 87.9744C455.076 84.0213 453.696 78.5209 449.956 76.3408C446.471 74.3092 440.706 74.9093 436.789 74.5531Z" fill="#2F2E41"/>
  <path opacity="0.1" d="M438.209 286.697C438.209 286.697 440.801 361.745 442.336 364.05C443.871 366.355 442.336 286.461 442.336 286.461L438.209 286.697Z" fill="black"/>
  <path d="M408.187 129.363H402.048C402.048 129.363 375.956 164.7 379.026 167.005C382.095 169.309 379.026 175.455 379.026 175.455L372.886 186.978C372.886 186.978 365.212 193.892 367.515 195.428C369.817 196.965 372.886 203.11 372.886 203.11C372.886 203.11 388.234 200.806 392.839 210.024L402.792 197.446L408.187 129.363Z" fill="#D0CDE1"/>
  <path d="M478.02 195.428C478.02 195.428 461.137 196.197 441.952 183.905L422.767 175.455C422.767 175.455 405.884 149.336 404.35 153.945C402.815 158.554 406.652 167.773 406.652 167.773C406.652 167.773 383.499 178.499 382.897 179.917C382.295 181.335 395.908 177.76 395.908 177.76C395.908 177.76 393.606 192.356 406.652 193.124C419.698 193.892 423.535 190.819 423.535 190.819C423.535 190.819 478.787 236.912 487.996 222.316C497.205 207.72 478.02 195.428 478.02 195.428Z" fill="#9F616A"/>
  <path d="M497.972 150.104L506.414 153.177V176.223L509.483 180.832C509.483 180.832 508.716 190.051 506.414 192.356C504.111 194.66 499.507 193.892 501.042 199.269C501.964 202.775 502.224 206.423 501.809 210.024C501.809 210.024 487.996 227.693 487.229 225.388C486.461 223.084 475.718 194.66 474.183 194.66C472.648 194.66 489.531 150.104 489.531 150.104H497.972Z" fill="#D0CDE1"/>
  <path d="M397.059 266.488C397.059 266.488 389.125 258.806 393.092 258.421C397.059 258.037 410.873 250.355 413.175 254.196C415.477 258.037 397.059 266.488 397.059 266.488Z" fill="#2F2E41"/>
  <path d="M275.918 492.165C289.714 469.124 296.981 442.758 296.941 415.895C296.941 333.811 230.468 267.268 148.47 267.268C66.4725 267.268 4.41079e-05 333.811 4.41079e-05 415.895C-0.0401928 442.758 7.22726 469.124 21.0225 492.165H275.918Z" fill="#3F3D56"/>
  <path d="M148.47 420.459C156.382 420.459 162.796 414.038 162.796 406.117C162.796 398.197 156.382 391.776 148.47 391.776C140.558 391.776 134.144 398.197 134.144 406.117C134.144 414.038 140.558 420.459 148.47 420.459Z" fill="#16161D"/>
  <path d="M34.5129 436.755C38.4689 436.755 41.6759 433.545 41.6759 429.585C41.6759 425.624 38.4689 422.414 34.5129 422.414C30.5569 422.414 27.3499 425.624 27.3499 429.585C27.3499 433.545 30.5569 436.755 34.5129 436.755Z" fill="#16161D"/>
  <path d="M38.7158 374.649C42.6718 374.649 45.8788 371.439 45.8788 367.478C45.8788 363.518 42.6718 360.308 38.7158 360.308C34.7597 360.308 31.5527 363.518 31.5527 367.478C31.5527 371.439 34.7597 374.649 38.7158 374.649Z" fill="#16161D"/>
  <path d="M74.2719 323.58C78.228 323.58 81.435 320.37 81.435 316.41C81.435 312.45 78.228 309.239 74.2719 309.239C70.3159 309.239 67.1089 312.45 67.1089 316.41C67.1089 320.37 70.3159 323.58 74.2719 323.58Z" fill="#16161D"/>
  <path d="M131.024 298.138C134.98 298.138 138.187 294.928 138.187 290.967C138.187 287.007 134.98 283.797 131.024 283.797C127.068 283.797 123.861 287.007 123.861 290.967C123.861 294.928 127.068 298.138 131.024 298.138Z" fill="#16161D"/>
  <path d="M192.76 305.59C196.716 305.59 199.923 302.38 199.923 298.42C199.923 294.459 196.716 291.249 192.76 291.249C188.804 291.249 185.597 294.459 185.597 298.42C185.597 302.38 188.804 305.59 192.76 305.59Z" fill="#16161D"/>
  <path d="M241.844 343.808C245.8 343.808 249.007 340.597 249.007 336.637C249.007 332.677 245.8 329.467 241.844 329.467C237.888 329.467 234.681 332.677 234.681 336.637C234.681 340.597 237.888 343.808 241.844 343.808Z" fill="#16161D"/>
  <path d="M264.254 401.873C268.21 401.873 271.417 398.663 271.417 394.703C271.417 390.742 268.21 387.532 264.254 387.532C260.298 387.532 257.091 390.742 257.091 394.703C257.091 398.663 260.298 401.873 264.254 401.873Z" fill="#16161D"/>
  <path d="M253.589 463.2C257.545 463.2 260.752 459.989 260.752 456.029C260.752 452.069 257.545 448.859 253.589 448.859C249.633 448.859 246.426 452.069 246.426 456.029C246.426 459.989 249.633 463.2 253.589 463.2Z" fill="#16161D"/>
  <path d="M148.47 406.117L222.054 350.056" stroke="#16161D" stroke-width="4" stroke-miterlimit="10"/>
  <path d="M216.547 138.919C221.853 138.919 226.155 134.613 226.155 129.3C226.155 123.988 221.853 119.682 216.547 119.682C211.24 119.682 206.938 123.988 206.938 129.3C206.938 134.613 211.24 138.919 216.547 138.919Z" stroke="#3F3D56" stroke-width="2" stroke-miterlimit="10"/>
  <path d="M271.246 251.041C276.553 251.041 280.855 246.735 280.855 241.423C280.855 236.11 276.553 231.804 271.246 231.804C265.94 231.804 261.638 236.11 261.638 241.423C261.638 246.735 265.94 251.041 271.246 251.041Z" fill="#3F3D56"/>
  <path d="M109.544 243.763C124.929 243.763 137.4 231.279 137.4 215.878C137.4 200.477 124.929 187.993 109.544 187.993C94.16 187.993 81.6885 200.477 81.6885 215.878C81.6885 231.279 94.16 243.763 109.544 243.763Z" fill="#F2F2F2"/>
</svg>
