<svg width="724" height="428" viewBox="0 0 724 428" fill="none" xmlns="http://www.w3.org/2000/svg">
  <g clip-path="url(#clip0)">
    <path opacity="0.2" d="M105.804 0.049035C100.172 -0.111815 94.3992 0.0490296 89.1159 1.67151C74.7408 6.09138 67.927 20.5539 70.1424 33.0512C72.3577 45.5485 81.4706 56.4373 90.9259 66.389C100.381 76.3408 110.626 86.1806 115.812 98.0764C118.397 104.014 119.606 110.665 116.979 116.595C112.925 125.736 100.703 130.841 88.9692 131.904C77.2356 132.967 65.4531 130.897 53.6777 130.204C48.7369 129.918 43.6563 129.883 39.002 131.218C33.8935 132.673 29.6375 135.645 25.724 138.743C10.4543 150.898 -1.76843 167.48 0.20929 184.9C2.44558 204.643 22.3905 220.245 44.2363 228.617C51.4693 231.414 59.1216 233.638 65.4881 237.596C82.2603 248.037 86.027 267.619 84.3568 284.9C82.6866 302.181 76.998 319.483 80.1638 336.61C83.8886 356.534 100.374 374.535 122.611 382.941C142.424 390.431 167.218 389.935 184.808 379.368C193.383 374.207 199.868 367.038 205.508 359.625C213.882 348.678 220.8 336.689 226.089 323.958C228.542 318.021 230.848 311.636 236.572 307.51C240.066 304.971 244.594 303.551 249.074 302.447C262.575 299.118 276.797 298.208 290.424 295.243C304.052 292.278 317.763 286.732 325.171 276.871C335.653 262.885 330.761 244.967 330.81 228.519C330.894 190.992 358.142 157.402 368.198 120.819C371.483 108.867 372.706 95.6427 365.368 84.9777C360.385 77.7395 351.978 72.5153 343.145 68.4801C323.71 59.6054 301.62 55.6541 279.893 51.8077C249.696 46.4647 213.028 45.7723 189.623 28.4845C167.163 11.889 136.434 0.049035 105.804 0.049035Z" fill="#16161D"/>
    <path d="M399.039 428C578.51 428 724 389.012 724 340.917C724 292.823 578.51 253.835 399.039 253.835C219.567 253.835 74.0773 292.823 74.0773 340.917C74.0773 389.012 219.567 428 399.039 428Z" fill="#F5F5F5"/>
    <path d="M668.917 130.68C668.917 130.68 643.878 155.738 658.015 192.922C672.153 230.106 633.78 291.942 633.78 291.942C633.78 291.942 634.192 291.879 634.954 291.746C686.381 282.655 711.938 223.798 683.341 180.068C672.712 163.815 663.983 144.765 668.917 130.68Z" fill="#16161D"/>
    <path d="M668.917 130.68C668.917 130.68 654.78 161.395 668.917 186.453C683.055 211.51 671.342 281.837 633.78 291.942" stroke="#535461" stroke-width="2" stroke-miterlimit="10"/>
    <path d="M713.517 232.036C713.517 232.036 684.942 227.483 682.342 253.107C679.742 278.731 627.399 282.284 627.399 282.284L628.377 282.935C671.594 311.321 712.937 301.02 706.648 263.353C704.363 249.31 704.551 235.232 713.517 232.036Z" fill="#16161D"/>
    <path opacity="0.2" d="M713.517 232.036C713.517 232.036 684.942 227.483 682.342 253.107C679.742 278.731 627.399 282.284 627.399 282.284L628.377 282.935C671.594 311.321 712.937 301.02 706.648 263.353C704.363 249.31 704.551 235.232 713.517 232.036Z" fill="#F5F5F5"/>
    <path d="M713.517 232.036C713.517 232.036 691.336 236.932 693.16 257.087C694.984 277.242 660.224 301.46 627.399 282.263" stroke="#535461" stroke-width="2" stroke-miterlimit="10"/>
    <path d="M647.386 293.669H602.492C603.525 291.59 604.061 289.299 604.058 286.977V82.376C604.058 78.3863 602.474 74.5601 599.655 71.739C596.836 68.9179 593.012 67.333 589.026 67.333H241.464C239.489 67.3321 237.534 67.7205 235.709 68.4761C233.884 69.2316 232.227 70.3396 230.83 71.7365C229.433 73.1335 228.325 74.7921 227.57 76.6177C226.814 78.4432 226.425 80.3999 226.425 82.376V286.984C226.421 289.306 226.957 291.597 227.99 293.676H181.51C180.455 293.676 179.444 294.096 178.698 294.842C177.953 295.588 177.534 296.6 177.534 297.656V300.866C177.539 306.764 179.885 312.419 184.054 316.588C188.224 320.756 193.877 323.098 199.771 323.098H629.125C635.023 323.098 640.679 320.753 644.849 316.58C649.019 312.407 651.362 306.747 651.362 300.845V297.635C651.359 296.582 650.938 295.573 650.193 294.83C649.447 294.087 648.438 293.669 647.386 293.669ZM370.721 306.398L366.892 302.027H462.437L458.174 306.405L370.721 306.398Z" fill="url(#paint0_linear)"/>
    <path d="M583.512 70.2283H246.95C237.972 70.2283 230.695 77.5112 230.695 86.4951V283.34C230.695 292.324 237.972 299.607 246.95 299.607H583.512C592.489 299.607 599.767 292.324 599.767 283.34V86.4951C599.767 77.5112 592.489 70.2283 583.512 70.2283Z" fill="#535461"/>
    <path d="M591.213 103.664H238.459V291.054H591.213V103.664Z" fill="white"/>
    <path d="M414.839 90.4464C416.557 90.4464 417.949 89.053 417.949 87.3343C417.949 85.6155 416.557 84.2222 414.839 84.2222C413.122 84.2222 411.73 85.6155 411.73 87.3343C411.73 89.053 413.122 90.4464 414.839 90.4464Z" fill="white"/>
    <path d="M469.307 291.438L457.182 303.88H371.714L360.763 291.438H186.793C185.763 291.438 184.775 291.848 184.046 292.577C183.317 293.307 182.908 294.296 182.908 295.327V298.46C182.908 304.228 185.198 309.76 189.274 313.839C193.349 317.918 198.878 320.21 204.642 320.21H624.261C630.026 320.21 635.554 317.918 639.63 313.839C643.706 309.76 645.995 304.228 645.995 298.46V295.327C645.995 294.296 645.586 293.307 644.857 292.577C644.129 291.848 643.14 291.438 642.11 291.438H469.307Z" fill="#535461"/>
    <path d="M348.31 110.252H199.505C195.89 110.248 192.422 111.681 189.863 114.236C187.303 116.791 185.862 120.258 185.857 123.875V330.182C185.862 333.8 187.303 337.267 189.863 339.822C192.422 342.376 195.89 343.809 199.505 343.806H348.31C351.925 343.809 355.393 342.376 357.952 339.822C360.512 337.267 361.953 333.8 361.958 330.182V123.875C361.953 120.258 360.512 116.791 357.952 114.236C355.393 111.681 351.925 110.248 348.31 110.252Z" fill="url(#paint1_linear)"/>
    <path d="M345.885 113.049H201.923C194.204 113.049 187.947 119.311 187.947 127.036V327.749C187.947 335.473 194.204 341.736 201.923 341.736H345.885C353.604 341.736 359.862 335.473 359.862 327.749V127.036C359.862 119.311 353.604 113.049 345.885 113.049Z" fill="#535461"/>
    <path d="M351.126 134.68H196.682V320.105H351.126V134.68Z" fill="white"/>
    <path d="M273.205 125.638C274.363 125.638 275.302 124.698 275.302 123.54C275.302 122.381 274.363 121.442 273.205 121.442C272.047 121.442 271.109 122.381 271.109 123.54C271.109 124.698 272.047 125.638 273.205 125.638Z" fill="white"/>
    <path d="M273.205 336.84C276.679 336.84 279.495 334.022 279.495 330.546C279.495 327.07 276.679 324.252 273.205 324.252C269.732 324.252 266.916 327.07 266.916 330.546C266.916 334.022 269.732 336.84 273.205 336.84Z" fill="white"/>
    <path d="M234.888 180.187H158.483C157.491 180.185 156.508 180.378 155.591 180.757C154.674 181.135 153.84 181.69 153.137 182.391C152.435 183.092 151.877 183.924 151.495 184.84C151.114 185.757 150.917 186.74 150.915 187.732V355.17C150.917 356.163 151.114 357.145 151.495 358.062C151.877 358.979 152.435 359.811 153.137 360.512C153.84 361.212 154.674 361.768 155.591 362.146C156.508 362.524 157.491 362.718 158.483 362.716H234.888C235.88 362.718 236.862 362.524 237.78 362.146C238.697 361.768 239.531 361.212 240.234 360.512C240.936 359.811 241.494 358.979 241.876 358.062C242.257 357.145 242.454 356.163 242.456 355.17V187.732C242.454 186.74 242.257 185.757 241.876 184.84C241.494 183.924 240.936 183.092 240.234 182.391C239.531 181.69 238.697 181.135 237.78 180.757C236.862 180.378 235.88 180.185 234.888 180.187Z" fill="url(#paint2_linear)"/>
    <path d="M234.07 181.585H159.294C155.048 181.585 151.607 185.03 151.607 189.278V354.324C151.607 358.573 155.048 362.017 159.294 362.017H234.07C238.316 362.017 241.757 358.573 241.757 354.324V189.278C241.757 185.03 238.316 181.585 234.07 181.585Z" fill="#535461"/>
    <path d="M235.118 198.37H158.246V345.232H235.118V198.37Z" fill="white"/>
    <path d="M187.597 190.677C187.983 190.677 188.296 190.364 188.296 189.977C188.296 189.591 187.983 189.278 187.597 189.278C187.211 189.278 186.898 189.591 186.898 189.977C186.898 190.364 187.211 190.677 187.597 190.677Z" fill="white"/>
    <path d="M205.767 189.278H191.79C191.404 189.278 191.091 189.591 191.091 189.977C191.091 190.364 191.404 190.677 191.79 190.677H205.767C206.153 190.677 206.466 190.364 206.466 189.977C206.466 189.591 206.153 189.278 205.767 189.278Z" fill="white"/>
    <path d="M196.333 357.121C199.034 357.121 201.224 354.929 201.224 352.226C201.224 349.522 199.034 347.33 196.333 347.33C193.631 347.33 191.441 349.522 191.441 352.226C191.441 354.929 193.631 357.121 196.333 357.121Z" fill="white"/>
    <path d="M142.375 375.025C142.375 375.025 133.108 343.554 144.115 320.378C148.8 310.69 150.218 299.742 148.154 289.18C147.134 284.176 145.658 279.277 143.745 274.542" stroke="#535461" stroke-width="2" stroke-miterlimit="10"/>
    <path d="M150.565 259.898C150.565 263.759 143.577 274.941 143.577 274.941C143.577 274.941 136.589 263.752 136.589 259.898C136.589 258.043 137.325 256.265 138.635 254.953C139.946 253.642 141.724 252.905 143.577 252.905C145.43 252.905 147.208 253.642 148.519 254.953C149.829 256.265 150.565 258.043 150.565 259.898Z" fill="#16161D"/>
    <path d="M162.131 281.27C160.035 284.508 148.099 290.103 148.099 290.103C148.099 290.103 148.315 276.913 150.412 273.675C150.888 272.86 151.526 272.149 152.285 271.586C153.043 271.024 153.909 270.621 154.827 270.402C155.746 270.183 156.7 270.153 157.631 270.314C158.561 270.474 159.45 270.822 160.243 271.336C161.036 271.85 161.716 272.519 162.243 273.303C162.77 274.087 163.133 274.97 163.31 275.899C163.486 276.828 163.473 277.782 163.27 278.705C163.068 279.629 162.68 280.501 162.131 281.27Z" fill="#16161D"/>
    <path d="M161.6 317.783C158.155 319.517 145.031 318.322 145.031 318.322C145.031 318.322 151.872 307.048 155.311 305.314C156.952 304.571 158.817 304.492 160.516 305.093C162.215 305.693 163.616 306.927 164.427 308.537C165.239 310.147 165.398 312.008 164.871 313.732C164.344 315.456 163.172 316.91 161.6 317.79V317.783Z" fill="#16161D"/>
    <path d="M155.003 345.33C151.9 347.624 138.762 348.659 138.762 348.659C138.762 348.659 143.598 336.393 146.701 334.099C148.194 333.102 150.013 332.718 151.781 333.027C153.549 333.336 155.13 334.313 156.198 335.757C157.265 337.201 157.736 339.001 157.514 340.783C157.291 342.565 156.392 344.193 155.003 345.33Z" fill="#16161D"/>
    <path d="M133.416 290.851C136.211 293.537 149.063 296.327 149.063 296.327C149.063 296.327 145.911 283.522 143.144 280.837C142.497 280.146 141.718 279.594 140.852 279.214C139.986 278.834 139.052 278.634 138.107 278.625C137.162 278.617 136.224 278.8 135.352 279.164C134.48 279.529 133.69 280.067 133.031 280.745C132.373 281.424 131.858 282.229 131.52 283.113C131.181 283.996 131.025 284.939 131.061 285.884C131.097 286.83 131.324 287.758 131.729 288.613C132.134 289.468 132.708 290.232 133.416 290.858V290.851Z" fill="#16161D"/>
    <path d="M126.106 323.161C129.551 324.895 142.676 323.699 142.676 323.699C142.676 323.699 135.834 312.426 132.396 310.692C131.573 310.231 130.665 309.941 129.727 309.841C128.79 309.741 127.842 309.831 126.94 310.107C126.038 310.383 125.202 310.839 124.481 311.447C123.759 312.055 123.169 312.802 122.744 313.645C122.319 314.487 122.069 315.407 122.009 316.349C121.949 317.29 122.08 318.235 122.394 319.124C122.708 320.014 123.199 320.831 123.837 321.526C124.475 322.221 125.247 322.779 126.106 323.168V323.161Z" fill="#16161D"/>
    <path d="M123.311 355.541C126.414 357.835 139.552 358.87 139.552 358.87C139.552 358.87 134.716 346.603 131.613 344.309C130.12 343.312 128.301 342.929 126.533 343.237C124.765 343.546 123.183 344.524 122.116 345.968C121.049 347.412 120.577 349.211 120.8 350.993C121.022 352.776 121.921 354.404 123.311 355.541Z" fill="#16161D"/>
    <path d="M695.348 274.913C687.611 265.521 678.24 254.73 679.554 242.233C680.616 232.113 678.072 222.756 678.575 212.601C679.274 198.174 676.381 186.879 665.996 177.634C659.93 172.228 649.79 167.983 646.771 169.067C640.789 171.207 634.262 170.389 628.105 171.864C623.43 172.955 620.32 174.662 618.391 176.76C614.513 180.257 614.45 185.152 616.218 190.362C614.675 193.19 613.743 196.311 613.484 199.523C613.225 202.735 613.644 205.965 614.713 209.004C615.783 212.043 617.48 214.823 619.693 217.163C621.906 219.504 624.586 221.352 627.56 222.588C623.248 224.392 619.523 228.546 618.07 236.981C617.059 242.773 615.532 248.462 613.506 253.982C612.596 254.408 611.662 254.783 610.711 255.108C610.92 255.192 611.137 255.247 611.347 255.324C610.893 255.499 610.445 255.674 609.949 255.828C610.775 256.151 611.629 256.399 612.5 256.569C606.909 270.703 599.921 279.459 599.921 279.459C599.921 279.459 586.887 282.34 581.821 277.298C581.821 277.298 582.645 278.263 583.763 279.711C578.809 277.655 570.674 274.298 563.721 271.535C558.675 269.528 557.382 271.535 557.431 274.333C556.2 274.487 555.012 274.887 553.937 275.508C552.446 274.548 550.883 273.706 549.262 272.99C546.368 272.291 536.955 267.227 527.542 284.508C522.063 294.558 508.016 312.902 497.219 326.469C476.219 336.134 448.88 348.372 438.719 351.449H432.206C431.353 350.051 430.759 349.17 430.759 349.17L430.256 349.505L430.039 349.17C430.039 349.17 417.25 358.03 404.266 358.1C402.419 358.075 400.581 357.84 398.787 357.401C392.819 355.897 388.612 355.226 385.607 355.303C382.05 355.24 380.016 356.086 378.786 357.681C378.621 357.89 378.469 358.109 378.332 358.338C378.194 358.565 378.068 358.798 377.955 359.037C377.843 359.289 377.731 359.555 377.633 359.828C377.593 360.071 377.608 360.32 377.678 360.556C377.749 360.793 377.872 361.01 378.038 361.191C378.213 361.436 378.402 361.67 378.605 361.891L378.968 362.282C380.603 363.975 383.58 366.22 387.284 368.723C388.353 369.423 389.485 370.192 390.667 370.954L392.91 372.353L394.915 373.605L395.719 374.101L396.614 374.647L398.214 375.619L399.164 376.192L400.96 377.262L402.414 378.123C406.216 380.367 410.003 382.542 413.421 384.473L415.811 385.899L416.041 386.025L417.579 386.885L420.235 388.361L422.058 389.368L422.911 389.837L423.827 390.34L424.008 390.438L425.602 391.305C425.929 391.36 426.265 391.344 426.586 391.257C426.907 391.17 427.205 391.015 427.461 390.802C427.922 388.844 429.047 384.647 430.256 384.326C431.465 384.004 436.699 374.85 438.174 368.723H452.304C455.088 368.485 457.852 368.06 460.579 367.451C456.931 370.052 453.318 371.689 450.508 370.989C444.568 369.514 438.942 373.136 438.376 376.71C438.376 376.787 438.328 376.857 438.307 376.934C438.286 377.011 438.272 377.081 438.258 377.15C438.244 377.22 438.216 377.325 438.202 377.416C438.188 377.507 438.202 377.563 438.202 377.64C438.202 377.717 438.202 377.815 438.202 377.906C438.202 377.997 438.202 378.053 438.202 378.123C438.202 378.193 438.202 378.304 438.202 378.395C438.202 378.486 438.202 378.535 438.202 378.605C438.202 378.675 438.244 378.794 438.272 378.892C438.3 378.99 438.272 379.018 438.321 379.074C438.365 379.2 438.416 379.324 438.474 379.444L438.509 379.535C438.588 379.688 438.676 379.835 438.775 379.976L438.887 380.123C438.956 380.221 439.033 380.319 439.117 380.409L439.278 380.57C439.362 380.654 439.453 380.738 439.544 380.822L439.739 380.983L440.054 381.214L440.284 381.368L440.662 381.591L440.913 381.724L441.388 381.948L441.626 382.053C441.878 382.158 442.143 382.256 442.43 382.347C442.884 382.493 443.422 382.647 444.03 382.801L444.638 382.948L445.526 383.151L445.994 383.256C446.599 383.386 447.242 383.517 447.923 383.647L448.866 383.822L449.635 383.962L451.403 384.27C452.507 384.459 453.66 384.647 454.897 384.829L457.944 385.291L461.913 385.857L462.794 385.976L464.192 386.172L466.239 386.445L467.637 386.627L471.264 387.088L472.396 387.228L474.681 387.508C477.686 387.871 480.593 388.207 483.27 388.508L486.366 388.858L487.931 389.032L488.63 389.102L490.503 389.305L491.544 389.417L492.83 389.55L494.64 389.739H494.836L495.996 389.858C496.141 389.873 496.288 389.858 496.428 389.814C496.567 389.77 496.695 389.697 496.805 389.6C496.915 389.504 497.003 389.385 497.065 389.253C497.127 389.12 497.16 388.976 497.163 388.83C497.163 388.795 497.163 388.753 497.163 388.711C497.27 388.549 497.328 388.359 497.331 388.165C497.361 386.44 497.579 384.724 497.981 383.046C498.058 382.759 498.148 382.465 498.246 382.172L498.358 381.836C498.484 381.479 498.61 381.137 498.756 380.752C498.862 380.492 498.953 380.225 499.029 379.955C499.029 379.871 499.078 379.787 499.106 379.696C499.134 379.605 499.176 379.409 499.204 379.263C500.657 374.29 498.903 365.017 498.4 361.373C498.239 360.209 497.972 359.062 497.603 357.946C497.694 357.955 497.785 357.955 497.876 357.946C498.626 357.67 499.332 357.286 499.972 356.807C510.651 352.995 519.652 348.638 522.496 344.274C527.102 343.057 531.995 343.57 536.249 345.715C541.777 348.463 583.596 362.122 603.065 368.43C606.56 371.444 609.299 373.206 610.816 373.073C610.816 373.073 635.604 377.088 645.569 369.255C646.457 369.87 647.016 370.199 647.016 370.199C647.016 370.199 661.496 363.003 663.669 353.638C664.368 350.603 665.004 346.127 665.654 341.176C669.013 337.789 670.901 333.213 670.909 328.441C671.363 312.72 677.45 294.761 681.965 278.787C687.444 279.221 689.561 278.186 694.586 275.703L694.362 275.417C694.719 275.207 695.033 275.067 695.348 274.913ZM612.332 298.46L609.537 297.53C610.474 296.277 611.282 294.932 611.948 293.516L612.332 298.46ZM596.755 305.076L613.527 315.146L613.674 317.196C613.469 318.755 613.517 320.337 613.814 321.881C606.42 315.307 597.768 307.328 596.748 305.069L596.755 305.076ZM589.906 290.39C588.075 289.634 586.559 288.949 585.518 288.382C586.915 288.48 588.243 288.564 589.403 288.627C589.632 289.195 589.801 289.786 589.906 290.39ZM544.985 306.803C544.985 306.803 547.878 300.327 554.398 311.125C555.411 312.804 557.277 315.475 559.744 318.783L540.764 316.244C543 312.776 544.503 309.552 544.985 306.81V306.803Z" fill="url(#paint3_linear)"/>
    <path d="M586.678 280.788C586.678 280.788 573.4 275.193 562.917 270.997C552.434 266.801 558.724 280.788 558.724 280.788C558.724 280.788 576.195 285.683 576.195 286.382C576.195 287.082 590.871 287.781 590.871 287.781L586.678 280.788Z" fill="#F7C4A7"/>
    <path opacity="0.05" d="M586.678 280.788C586.678 280.788 573.4 275.193 562.917 270.997C552.434 266.801 558.724 280.788 558.724 280.788C558.724 280.788 576.195 285.683 576.195 286.382C576.195 287.082 590.871 287.781 590.871 287.781L586.678 280.788Z" fill="black"/>
    <path d="M643.284 225.539C643.284 225.539 619.523 212.951 615.33 237.428C611.137 261.905 597.859 278.69 597.859 278.69C597.859 278.69 585.28 281.487 580.388 276.592C580.388 276.592 592.268 290.579 586.678 291.977C586.678 291.977 599.257 301.069 604.847 298.271C610.438 295.474 614.631 276.592 616.728 271.696C618.824 266.801 626.512 224.141 643.284 225.539Z" fill="#575988"/>
    <path opacity="0.1" d="M643.284 225.539C643.284 225.539 619.523 212.951 615.33 237.428C611.137 261.905 597.859 278.69 597.859 278.69C597.859 278.69 585.28 281.487 580.388 276.592C580.388 276.592 592.268 290.579 586.678 291.977C586.678 291.977 599.257 301.069 604.847 298.271C610.438 295.474 614.631 276.592 616.728 271.696C618.824 266.801 626.512 224.141 643.284 225.539Z" fill="black"/>
    <path d="M630.006 217.147C630.006 217.147 644.681 233.931 645.38 247.918C646.079 261.905 662.153 233.232 663.55 232.533C664.948 231.833 649.573 208.056 648.176 200.363C646.778 192.67 630.006 217.147 630.006 217.147Z" fill="#F7C4A7"/>
    <path d="M640.139 224.315L630.879 232.708L635.247 250.366L647.127 239.177L645.73 227.987L640.139 224.315Z" fill="#F7C4A7"/>
    <path d="M446.909 348.624H430.836L437.126 364.01L452.5 359.814L446.909 348.624Z" fill="#F7C4A7"/>
    <path opacity="0.1" d="M434.554 346.407C434.554 346.407 417.907 358.009 403.686 354.401C389.464 350.792 385.6 352.142 383.944 356.8C382.413 361.087 423.666 383.759 430.242 387.34C430.344 387.396 430.457 387.427 430.574 387.432C430.69 387.437 430.805 387.415 430.912 387.367C431.018 387.32 431.112 387.249 431.186 387.159C431.26 387.069 431.312 386.964 431.339 386.85C431.786 384.948 432.87 380.871 434.03 380.556C435.539 380.151 442.416 367.269 442.038 362.205C441.661 357.142 434.554 346.407 434.554 346.407Z" fill="black"/>
    <path d="M433.855 346.407C433.855 346.407 417.209 358.009 402.987 354.401C388.766 350.792 384.901 352.142 383.245 356.8C381.714 361.087 422.967 383.759 429.543 387.34C429.645 387.396 429.759 387.427 429.875 387.432C429.991 387.437 430.107 387.415 430.213 387.367C430.319 387.32 430.413 387.249 430.487 387.159C430.561 387.069 430.614 386.964 430.64 386.85C431.087 384.948 432.171 380.871 433.331 380.556C434.84 380.151 441.717 367.269 441.34 362.205C440.962 357.142 433.855 346.407 433.855 346.407Z" fill="#F3B5B7"/>
    <path d="M571.303 318.552L524.481 312.258C524.481 312.258 448.307 348.624 439.222 349.323L441.319 365.408H455.295C460.886 365.408 515.396 353.52 523.083 341.631C527.53 340.447 532.257 340.945 536.361 343.029C543.349 346.526 610.438 368.206 610.438 368.206L571.303 318.552Z" fill="#575988"/>
    <path opacity="0.1" d="M571.303 318.552L524.481 312.258C524.481 312.258 448.307 348.624 439.222 349.323L441.319 365.408H455.295C460.886 365.408 515.396 353.52 523.083 341.631C527.53 340.447 532.257 340.945 536.361 343.029C543.349 346.526 610.438 368.206 610.438 368.206L571.303 318.552Z" fill="black"/>
    <path d="M488.141 340.232L480.454 350.023L488.141 354.219L499.322 345.827L488.141 340.232Z" fill="#F7C4A7"/>
    <path d="M621.62 329.042C621.62 329.042 596.461 307.489 594.721 303.579C592.981 299.67 551.736 273.095 548.94 272.395C546.145 271.696 537.06 266.801 527.975 283.585C518.89 300.369 485.346 340.931 485.346 340.931C485.346 340.931 495.828 355.618 499.322 354.918C502.817 354.219 541.952 321.35 544.747 305.265C544.747 305.265 547.543 298.971 553.832 309.461C560.122 319.951 600.654 370.304 608.342 369.605C608.342 369.605 638.392 374.5 644.682 362.611C650.971 350.722 621.62 329.042 621.62 329.042Z" fill="#575988"/>
    <path d="M635.946 226.588C635.946 226.588 627.21 230.435 626.512 246.52C625.813 262.605 610.438 289.879 610.438 289.879L611.836 322.049C611.836 322.049 628.608 338.833 630.006 349.324C631.404 359.814 643.284 366.807 643.284 366.807C643.284 366.807 657.261 359.814 659.357 350.722C661.454 341.631 662.851 319.252 666.346 310.86C669.84 302.467 667.743 250.016 667.743 250.016L657.261 231.833L651.67 225.539L636.994 242.324C636.994 242.324 628.958 231.484 635.946 226.588Z" fill="#DDDBE2"/>
    <path opacity="0.1" d="M615.33 311.559C615.33 311.559 613.234 286.382 619.523 280.788L632.102 245.121C632.102 245.121 636.645 227.987 635.946 226.588C635.247 225.19 619.523 240.225 619.523 240.225L609.04 277.291L611.836 316.454L615.33 311.559Z" fill="black"/>
    <path d="M614.631 311.559C614.631 311.559 612.535 286.382 618.824 280.788L631.404 245.121C631.404 245.121 636.295 227.637 635.597 226.239C634.898 224.84 618.824 240.226 618.824 240.226L608.342 277.291L611.137 316.454L614.631 311.559Z" fill="#575988"/>
    <path d="M619.523 300.369C619.523 300.369 584.581 289.18 582.485 286.382C580.388 283.585 558.025 265.402 550.338 277.99C542.651 290.578 578.99 294.075 578.99 294.075L616.029 316.454L619.523 300.369Z" fill="#F7C4A7"/>
    <path opacity="0.1" d="M489.657 349.96L479.315 348.1C479.315 348.1 462.375 369.814 453.548 367.611C444.722 365.408 436.601 374.913 445.924 377.962C454.345 380.717 490.713 384.571 497.638 385.284C497.778 385.298 497.92 385.284 498.054 385.241C498.189 385.198 498.312 385.127 498.418 385.034C498.524 384.941 498.609 384.826 498.669 384.699C498.728 384.571 498.76 384.432 498.763 384.291C498.817 381.588 499.361 378.917 500.371 376.409C502.237 371.828 500.371 361.989 499.854 358.226C499.569 356.021 498.879 353.887 497.82 351.932L489.657 349.96Z" fill="black"/>
    <path d="M489.483 350.638L479.14 348.778C479.14 348.778 462.2 370.493 453.388 368.297C444.575 366.101 436.441 375.598 445.763 378.647C454.184 381.403 490.552 385.256 497.478 385.969C497.618 385.984 497.759 385.969 497.894 385.926C498.028 385.883 498.152 385.813 498.257 385.719C498.363 385.626 498.448 385.512 498.508 385.384C498.567 385.256 498.6 385.117 498.603 384.976C498.637 382.279 499.16 379.611 500.147 377.102C502.013 372.521 500.147 362.681 499.63 358.919C499.345 356.713 498.656 354.579 497.596 352.624L489.483 350.638Z" fill="#F3B5B7"/>
    <path opacity="0.1" d="M635.247 225.19C647.598 225.19 657.61 215.17 657.61 202.81C657.61 190.451 647.598 180.431 635.247 180.431C622.896 180.431 612.884 190.451 612.884 202.81C612.884 215.17 622.896 225.19 635.247 225.19Z" fill="black"/>
    <path d="M633.151 225.19C645.501 225.19 655.513 215.17 655.513 202.81C655.513 190.451 645.501 180.431 633.151 180.431C620.8 180.431 610.788 190.451 610.788 202.81C610.788 215.17 620.8 225.19 633.151 225.19Z" fill="#F7C4A7"/>
    <path d="M655.164 224.84C655.164 224.84 681.72 233.931 681.72 252.814C681.72 271.696 667.044 301.768 666.346 326.245C665.647 350.722 627.21 347.225 627.21 347.225C627.21 347.225 621.62 264.703 627.21 258.408C632.801 252.114 657.959 227.637 655.164 224.84Z" fill="#575988"/>
    <path opacity="0.1" d="M650.272 264.003C650.272 264.003 640.488 307.363 617.427 299.67C617.427 299.67 605.546 317.154 613.932 324.846C613.932 324.846 634.199 329.742 647.477 316.454C660.755 303.167 670.539 298.271 672.635 282.186C674.732 266.101 676.129 243.722 669.141 245.82C662.152 247.918 650.272 264.003 650.272 264.003Z" fill="black"/>
    <path d="M650.971 263.304C650.971 263.304 641.187 306.663 618.126 298.97C618.126 298.97 606.245 316.454 614.631 324.147C614.631 324.147 634.898 329.042 648.176 315.755C661.454 302.467 671.237 297.572 673.334 281.487C675.43 265.402 676.828 243.023 669.84 245.121C662.851 247.219 650.971 263.304 650.971 263.304Z" fill="#575988"/>
    <path d="M500.748 374.85C500.748 374.913 500.706 374.989 500.685 375.045C500.204 376.241 499.837 377.48 499.588 378.745C499.756 378.199 499.951 377.64 500.175 377.081C500.45 376.361 500.642 375.613 500.748 374.85Z" fill="#DDDBE2"/>
    <path d="M446.273 376.605C443.394 375.661 442.185 374.108 442.136 372.472C440.948 374.752 441.696 377.311 445.763 378.64C454.184 381.396 490.559 385.249 497.477 385.962C497.618 385.977 497.76 385.962 497.895 385.919C498.03 385.875 498.154 385.804 498.26 385.71C498.366 385.616 498.451 385.501 498.51 385.372C498.569 385.243 498.6 385.104 498.603 384.962C498.608 384.706 498.516 384.456 498.347 384.263C498.178 384.071 497.942 383.948 497.687 383.92C490.098 383.109 454.583 379.319 446.273 376.605Z" fill="#DDDBE2"/>
    <path d="M384.209 355.569C384.395 355.053 384.629 354.557 384.908 354.086C384.155 354.849 383.592 355.778 383.266 356.799C381.735 361.086 422.988 383.759 429.564 387.34C429.667 387.396 429.781 387.427 429.897 387.431C430.014 387.436 430.13 387.413 430.236 387.365C430.342 387.317 430.436 387.245 430.51 387.154C430.584 387.064 430.635 386.957 430.661 386.843C430.7 386.682 430.685 386.513 430.618 386.361C430.551 386.209 430.436 386.084 430.291 386.004C423.023 382.025 382.7 359.807 384.209 355.569Z" fill="#DDDBE2"/>
    <path d="M434.288 379.332C433.918 379.43 433.554 379.927 433.212 380.605L433.324 380.563C433.631 380.479 434.155 379.864 434.791 378.955C434.656 379.118 434.483 379.248 434.288 379.332Z" fill="#DDDBE2"/>
    <path opacity="0.1" d="M630.048 222.511C628.077 226.861 627.665 231.763 626.218 236.323C623.346 245.366 616.141 252.849 607.51 255.737C614.771 258.632 623.339 255.094 628.951 249.219C634.562 243.345 637.854 235.526 641.006 227.917C649.154 233.4 648.162 246.002 650.901 255.814C652.077 260.083 654.154 264.049 656.994 267.446C659.833 270.842 663.368 273.589 667.359 275.501C671.337 277.287 675.661 278.167 680.02 278.079C684.379 277.991 688.664 276.936 692.566 274.99C685.095 265.899 674.459 253.359 675.724 241.219C676.751 231.386 669.7 223.875 670.182 214.007C670.881 200.02 665.528 192.915 655.507 183.935C649.65 178.683 658.868 171.277 651.313 173.445C648.343 174.298 645.213 171.116 642.298 172.165C636.526 174.263 630.222 173.452 624.282 174.851C593.408 182.11 632.927 216.161 630.048 222.511Z" fill="black"/>
    <path d="M630.747 221.812C628.776 226.162 628.364 231.064 626.917 235.624C624.045 244.666 616.84 252.149 608.209 255.038C615.47 257.933 624.038 254.394 629.649 248.52C635.261 242.645 638.553 234.826 641.704 227.218C649.853 232.7 648.861 245.303 651.6 255.115C652.776 259.383 654.853 263.35 657.693 266.746C660.532 270.143 664.066 272.889 668.058 274.801C672.035 276.587 676.36 277.468 680.719 277.38C685.078 277.291 689.363 276.236 693.265 274.291C685.794 265.199 675.857 254.758 677.122 242.617C678.149 232.784 676.619 222.679 677.122 212.818C677.821 198.831 670.965 185.32 660.937 176.34C655.08 171.088 645.932 170.417 643.011 171.445C637.239 173.543 630.935 172.732 624.995 174.13C594.106 181.41 633.626 215.462 630.747 221.812Z" fill="#FC6681"/>
  </g>
  <defs>
    <linearGradient id="paint0_linear" x1="414.448" y1="323.112" x2="414.448" y2="67.326" gradientUnits="userSpaceOnUse">
      <stop stop-color="#808080" stop-opacity="0.25"/>
      <stop offset="0.54" stop-color="#808080" stop-opacity="0.12"/>
      <stop offset="1" stop-color="#808080" stop-opacity="0.1"/>
    </linearGradient>
    <linearGradient id="paint1_linear" x1="83647.2" y1="148569" x2="83647.2" y2="70561.7" gradientUnits="userSpaceOnUse">
      <stop stop-color="#808080" stop-opacity="0.25"/>
      <stop offset="0.54" stop-color="#808080" stop-opacity="0.12"/>
      <stop offset="1" stop-color="#808080" stop-opacity="0.1"/>
    </linearGradient>
    <linearGradient id="paint2_linear" x1="33420.7" y1="121133" x2="33420.7" y2="73493.1" gradientUnits="userSpaceOnUse">
      <stop stop-color="#808080" stop-opacity="0.25"/>
      <stop offset="0.54" stop-color="#808080" stop-opacity="0.12"/>
      <stop offset="1" stop-color="#808080" stop-opacity="0.1"/>
    </linearGradient>
    <linearGradient id="paint3_linear" x1="270352" y1="156691" x2="270352" y2="85919.6" gradientUnits="userSpaceOnUse">
      <stop stop-color="#808080" stop-opacity="0.25"/>
      <stop offset="0.54" stop-color="#808080" stop-opacity="0.12"/>
      <stop offset="1" stop-color="#808080" stop-opacity="0.1"/>
    </linearGradient>
    <clipPath id="clip0">
      <rect width="724" height="428" fill="white"/>
    </clipPath>
  </defs>
</svg>
