<svg width="659" height="414" viewBox="0 0 659 414" fill="none" xmlns="http://www.w3.org/2000/svg">
  <path d="M566.794 15.2671H107.674C96.2959 15.2671 87.0723 24.4907 87.0723 35.8686V345.064C87.0723 356.442 96.2959 365.665 107.674 365.665H566.794C578.172 365.665 587.395 356.442 587.395 345.064V35.8686C587.395 24.4907 578.172 15.2671 566.794 15.2671Z" fill="#F2F2F2"/>
  <path d="M510.471 89.3682H181.803C177.072 89.3682 173.236 93.204 173.236 97.9356V109.522C173.236 114.254 177.072 118.089 181.803 118.089H510.471C515.203 118.089 519.039 114.254 519.039 109.522V97.9356C519.039 93.204 515.203 89.3682 510.471 89.3682Z" fill="white"/>
  <path d="M582.303 0.33252H123.183C111.805 0.33252 102.582 9.55612 102.582 20.934V330.129C102.582 341.507 111.805 350.731 123.183 350.731H582.303C593.681 350.731 602.905 341.507 602.905 330.129V20.934C602.905 9.55612 593.681 0.33252 582.303 0.33252Z" stroke="#3F3D56" stroke-miterlimit="10"/>
  <path d="M102.869 27.3301H603.192" stroke="#3F3D56" stroke-miterlimit="10"/>
  <path d="M119.814 23.022C123.621 23.022 126.708 19.9359 126.708 16.1289C126.708 12.322 123.621 9.23584 119.814 9.23584C116.008 9.23584 112.921 12.322 112.921 16.1289C112.921 19.9359 116.008 23.022 119.814 23.022Z" fill="#16161D"/>
  <path d="M139.345 23.3091C143.152 23.3091 146.238 20.223 146.238 16.416C146.238 12.6091 143.152 9.52295 139.345 9.52295C135.538 9.52295 132.452 12.6091 132.452 16.416C132.452 20.223 135.538 23.3091 139.345 23.3091Z" fill="#16161D"/>
  <path d="M158.875 23.5962C162.682 23.5962 165.768 20.5101 165.768 16.7031C165.768 12.8962 162.682 9.81006 158.875 9.81006C155.068 9.81006 151.982 12.8962 151.982 16.7031C151.982 20.5101 155.068 23.5962 158.875 23.5962Z" fill="#16161D"/>
  <path d="M121.538 20.7242C125.345 20.7242 128.431 17.638 128.431 13.8311C128.431 10.0241 125.345 6.93799 121.538 6.93799C117.731 6.93799 114.645 10.0241 114.645 13.8311C114.645 17.638 117.731 20.7242 121.538 20.7242Z" stroke="#3F3D56" stroke-miterlimit="10"/>
  <path d="M141.068 21.0118C144.875 21.0118 147.961 17.9256 147.961 14.1187C147.961 10.3117 144.875 7.22559 141.068 7.22559C137.261 7.22559 134.175 10.3117 134.175 14.1187C134.175 17.9256 137.261 21.0118 141.068 21.0118Z" stroke="#3F3D56" stroke-miterlimit="10"/>
  <path d="M160.599 21.2989C164.405 21.2989 167.492 18.2127 167.492 14.4058C167.492 10.5988 164.405 7.5127 160.599 7.5127C156.792 7.5127 153.705 10.5988 153.705 14.4058C153.705 18.2127 156.792 21.2989 160.599 21.2989Z" stroke="#3F3D56" stroke-miterlimit="10"/>
  <path d="M516.79 83.624H188.122C183.39 83.624 179.555 87.4598 179.555 92.1915V103.778C179.555 108.509 183.39 112.345 188.122 112.345H516.79C521.522 112.345 525.357 108.509 525.357 103.778V92.1915C525.357 87.4598 521.522 83.624 516.79 83.624Z" stroke="#3F3D56" stroke-miterlimit="10"/>
  <path d="M504.753 98.3441C507.291 98.3441 509.348 96.2867 509.348 93.7487C509.348 91.2108 507.291 89.1533 504.753 89.1533C502.215 89.1533 500.157 91.2108 500.157 93.7487C500.157 96.2867 502.215 98.3441 504.753 98.3441Z" stroke="#3F3D56" stroke-miterlimit="10"/>
  <path d="M508.144 97.2612L516.125 105.525" stroke="#3F3D56" stroke-miterlimit="10"/>
  <path d="M245.039 96.2612H193.341C190.485 96.2612 188.171 98.5758 188.171 101.431V101.431C188.171 104.286 190.485 106.601 193.341 106.601H245.039C247.894 106.601 250.209 104.286 250.209 101.431C250.209 98.5758 247.894 96.2612 245.039 96.2612Z" fill="#16161D"/>
  <path d="M195.064 93.3887H246.762C249.617 93.3887 251.932 95.7033 251.932 98.5585V98.5585C251.932 101.414 249.617 103.728 246.762 103.728H195.064C192.209 103.728 189.894 101.414 189.894 98.5585V98.5585C189.894 95.7033 192.209 93.3887 195.064 93.3887Z" stroke="#3F3D56" stroke-miterlimit="10"/>
  <path d="M222.636 157.724H170.938C168.083 157.724 165.768 160.039 165.768 162.894V162.894C165.768 165.749 168.083 168.064 170.938 168.064H222.636C225.491 168.064 227.806 165.749 227.806 162.894C227.806 160.039 225.491 157.724 222.636 157.724Z" fill="#16161D"/>
  <path d="M222.636 190.466H170.938C168.083 190.466 165.768 192.781 165.768 195.636C165.768 198.491 168.083 200.806 170.938 200.806H222.636C225.491 200.806 227.806 198.491 227.806 195.636C227.806 192.781 225.491 190.466 222.636 190.466Z" fill="white"/>
  <path d="M222.636 223.209H170.938C168.083 223.209 165.768 225.524 165.768 228.379C165.768 231.234 168.083 233.549 170.938 233.549H222.636C225.491 233.549 227.806 231.234 227.806 228.379C227.806 225.524 225.491 223.209 222.636 223.209Z" fill="white"/>
  <path d="M222.636 255.951H170.938C168.083 255.951 165.768 258.265 165.768 261.121C165.768 263.976 168.083 266.29 170.938 266.29H222.636C225.491 266.29 227.806 263.976 227.806 261.121C227.806 258.265 225.491 255.951 222.636 255.951Z" fill="white"/>
  <path d="M222.636 288.693H170.938C168.083 288.693 165.768 291.007 165.768 293.863C165.768 296.718 168.083 299.032 170.938 299.032H222.636C225.491 299.032 227.806 296.718 227.806 293.863C227.806 291.007 225.491 288.693 222.636 288.693Z" fill="white"/>
  <path d="M173.81 154.278H225.508C228.364 154.278 230.678 156.592 230.678 159.448V159.448C230.678 162.303 228.364 164.617 225.508 164.617H173.81C170.955 164.617 168.64 162.303 168.64 159.448V159.448C168.64 156.592 170.955 154.278 173.81 154.278Z" stroke="#3F3D56" stroke-miterlimit="10"/>
  <path d="M225.508 187.02H173.81C170.955 187.02 168.64 189.335 168.64 192.19C168.64 195.045 170.955 197.36 173.81 197.36H225.508C228.364 197.36 230.678 195.045 230.678 192.19C230.678 189.335 228.364 187.02 225.508 187.02Z" stroke="#3F3D56" stroke-miterlimit="10"/>
  <path d="M225.508 219.762H173.81C170.955 219.762 168.64 222.077 168.64 224.932C168.64 227.787 170.955 230.102 173.81 230.102H225.508C228.364 230.102 230.678 227.787 230.678 224.932C230.678 222.077 228.364 219.762 225.508 219.762Z" stroke="#3F3D56" stroke-miterlimit="10"/>
  <path d="M173.81 252.504H225.508C228.364 252.504 230.678 254.819 230.678 257.674V257.674C230.678 260.529 228.364 262.844 225.508 262.844H173.81C170.955 262.844 168.64 260.529 168.64 257.674V257.674C168.64 254.819 170.955 252.504 173.81 252.504Z" stroke="#3F3D56" stroke-miterlimit="10"/>
  <path d="M173.81 285.246H225.508C228.364 285.246 230.678 287.561 230.678 290.416V290.416C230.678 293.271 228.364 295.586 225.508 295.586H173.81C170.955 295.586 168.64 293.271 168.64 290.416V290.416C168.64 287.561 170.955 285.246 173.81 285.246Z" stroke="#3F3D56" stroke-miterlimit="10"/>
  <path d="M530.733 157.724H503.898C502.426 157.724 501.232 158.918 501.232 160.391V165.397C501.232 166.87 502.426 168.064 503.898 168.064H530.733C532.206 168.064 533.399 166.87 533.399 165.397V160.391C533.399 158.918 532.206 157.724 530.733 157.724Z" fill="#57B894"/>
  <path d="M530.733 190.466H503.898C502.426 190.466 501.232 191.66 501.232 193.133V198.139C501.232 199.612 502.426 200.806 503.898 200.806H530.733C532.206 200.806 533.399 199.612 533.399 198.139V193.133C533.399 191.66 532.206 190.466 530.733 190.466Z" fill="white"/>
  <path d="M530.733 223.209H503.898C502.426 223.209 501.232 224.403 501.232 225.876V230.882C501.232 232.355 502.426 233.549 503.898 233.549H530.733C532.206 233.549 533.399 232.355 533.399 230.882V225.876C533.399 224.403 532.206 223.209 530.733 223.209Z" fill="white"/>
  <path d="M530.733 255.951H503.898C502.426 255.951 501.232 257.145 501.232 258.617V263.624C501.232 265.096 502.426 266.29 503.898 266.29H530.733C532.206 266.29 533.399 265.096 533.399 263.624V258.617C533.399 257.145 532.206 255.951 530.733 255.951Z" fill="white"/>
  <path d="M530.733 288.693H503.898C502.426 288.693 501.232 289.887 501.232 291.359V296.366C501.232 297.839 502.426 299.032 503.898 299.032H530.733C532.206 299.032 533.399 297.839 533.399 296.366V291.359C533.399 289.887 532.206 288.693 530.733 288.693Z" fill="white"/>
  <path d="M533.605 154.278H506.77C505.298 154.278 504.104 155.472 504.104 156.944V161.951C504.104 163.424 505.298 164.617 506.77 164.617H533.605C535.078 164.617 536.272 163.424 536.272 161.951V156.944C536.272 155.472 535.078 154.278 533.605 154.278Z" stroke="#3F3D56" stroke-miterlimit="10"/>
  <path d="M533.605 187.02H506.77C505.298 187.02 504.104 188.214 504.104 189.687V194.693C504.104 196.166 505.298 197.36 506.77 197.36H533.605C535.078 197.36 536.272 196.166 536.272 194.693V189.687C536.272 188.214 535.078 187.02 533.605 187.02Z" stroke="#3F3D56" stroke-miterlimit="10"/>
  <path d="M533.605 219.762H506.77C505.298 219.762 504.104 220.956 504.104 222.429V227.435C504.104 228.908 505.298 230.102 506.77 230.102H533.605C535.078 230.102 536.272 228.908 536.272 227.435V222.429C536.272 220.956 535.078 219.762 533.605 219.762Z" stroke="#3F3D56" stroke-miterlimit="10"/>
  <path d="M533.605 252.504H506.77C505.298 252.504 504.104 253.698 504.104 255.171V260.177C504.104 261.65 505.298 262.844 506.77 262.844H533.605C535.078 262.844 536.272 261.65 536.272 260.177V255.171C536.272 253.698 535.078 252.504 533.605 252.504Z" stroke="#3F3D56" stroke-miterlimit="10"/>
  <path d="M533.605 285.246H506.77C505.298 285.246 504.104 286.44 504.104 287.913V292.919C504.104 294.392 505.298 295.586 506.77 295.586H533.605C535.078 295.586 536.272 294.392 536.272 292.919V287.913C536.272 286.44 535.078 285.246 533.605 285.246Z" stroke="#3F3D56" stroke-miterlimit="10"/>
  <path d="M134.539 211.318H102.973V252.723H134.539V211.318Z" fill="#2F2E41"/>
  <path d="M78.0689 388.928C78.0689 388.928 86.8828 388.928 89.5475 391.798C92.2121 394.667 91.1873 401.432 94.0569 402.456C96.9265 403.481 103.486 411.68 97.7464 412.705C93.7412 413.42 85.7432 413.736 81.2757 413.862C79.3182 413.916 77.4018 413.295 75.8477 412.104C74.7862 411.287 73.6802 410.53 72.5346 409.835C69.46 407.991 72.5346 395.692 72.5346 395.692L78.0689 388.928Z" fill="#575A89"/>
  <path opacity="0.1" d="M78.0689 388.928C78.0689 388.928 86.8828 388.928 89.5475 391.798C92.2121 394.667 91.1873 401.432 94.0569 402.456C96.9265 403.481 103.486 411.68 97.7464 412.705C93.7412 413.42 85.7432 413.736 81.2757 413.862C79.3182 413.916 77.4018 413.295 75.8477 412.104C74.7862 411.287 73.6802 410.53 72.5346 409.835C69.46 407.991 72.5346 395.692 72.5346 395.692L78.0689 388.928Z" fill="black"/>
  <path d="M112.095 308.989C112.095 311.244 110.25 322.107 110.25 322.107L91.1873 395.078C91.1873 395.078 77.2491 391.593 76.0192 391.798C75.761 391.841 75.8368 390.646 76.1156 388.717C76.6998 384.679 78.1797 377.432 79.3828 371.602C80.3524 366.904 81.1436 363.126 81.1436 362.692C81.1436 362.188 81.5924 353.724 82.1213 343.912C82.8797 329.794 83.8082 312.883 83.8082 312.883L80.7336 268.199L81.5535 250.571L86.4729 229.459L119.064 238.273L120.603 248.667L120.704 249.341C120.704 249.341 117.625 296.885 115.986 298.32C114.346 299.755 112.095 306.734 112.095 308.989Z" fill="#3F3D56"/>
  <path d="M72.3297 379.294C72.3297 379.294 60.0313 379.089 58.8015 380.524C57.962 381.504 53.3022 391.27 50.4288 397.37C49.2534 399.826 49.0085 402.625 49.7394 405.247C50.4703 407.87 52.1274 410.139 54.4036 411.632C56.6279 413.034 59.2655 413.629 61.8761 413.32C72.9446 412.295 72.3297 405.326 72.3297 405.326L75.6093 394.667L74.7894 380.729L72.3297 379.294Z" fill="#575A89"/>
  <path opacity="0.1" d="M76.1155 388.717C76.6997 384.679 78.1796 377.431 79.3828 371.602C78.9114 378.517 77.165 389.281 76.6341 388.928C76.4671 388.844 76.2937 388.773 76.1155 388.717Z" fill="black"/>
  <path opacity="0.1" d="M91.3923 298.33C91.5972 299.56 89.3425 303.249 87.9077 307.759C86.4729 312.268 82.5784 340.555 82.5784 340.555C82.5784 340.555 82.396 341.856 82.1213 343.912C82.8797 329.794 83.8082 312.883 83.8082 312.883L80.7336 268.199L81.5535 250.571L86.4729 229.459L119.064 238.273L120.603 248.667L89.1376 236.633C89.1376 236.633 88.5226 247.702 88.5226 249.956C88.5226 252.211 91.1873 297.1 91.3923 298.33Z" fill="black"/>
  <path d="M56.7517 207.731C56.7517 207.731 46.913 220.85 49.7826 235.198C52.6522 249.546 56.3417 285.621 59.0064 289.106C61.6711 292.591 59.0064 299.15 59.0064 299.15C59.0064 299.15 54.292 361.052 54.702 363.101C55.1119 365.151 55.9318 374.785 56.9567 376.425C57.9816 378.065 57.3666 383.394 57.3666 383.394C57.3666 383.394 74.1745 388.518 74.7894 388.928C75.4043 389.338 77.659 374.785 77.659 368.636C77.659 362.487 80.7336 340.554 80.7336 340.554C80.7336 340.554 84.6281 312.268 86.063 307.759C87.4978 303.249 89.7525 299.56 89.5475 298.33C89.3425 297.1 86.6779 252.211 86.6779 249.956C86.6779 247.701 87.2928 236.633 87.2928 236.633L120.616 249.376C120.616 249.376 128.029 214.809 124.264 211.373C120.499 207.936 56.7517 207.731 56.7517 207.731Z" fill="#3F3D56"/>
  <path d="M84.7306 89.7692C98.7679 89.7692 110.147 85.3183 110.147 79.8279C110.147 74.3376 98.7679 69.8867 84.7306 69.8867C70.6933 69.8867 59.3138 74.3376 59.3138 79.8279C59.3138 85.3183 70.6933 89.7692 84.7306 89.7692Z" fill="#2F2E41"/>
  <path d="M70.0517 48.512C66.9548 51.1736 64.699 54.6786 63.5594 58.5999C63.1304 60.1084 62.9297 61.8681 63.9455 63.1C64.3291 63.4556 64.6637 63.8608 64.9403 64.3048C65.1067 64.9602 65.1153 65.6457 64.9656 66.3051C64.9977 67.57 65.3346 68.8085 65.9478 69.9153L69.3185 77.3465C69.6915 76.6983 69.6962 75.9024 70.081 75.2603C70.8277 74.0143 72.6141 73.8329 74.1282 73.7975L78.8508 73.6867C80.1237 73.7501 81.3947 73.5308 82.5727 73.0445C83.9459 72.3472 84.7713 70.9896 85.8746 69.9486C87.3013 68.6263 89.1337 67.8263 91.0734 67.6788C90.398 68.6973 89.5745 69.6094 88.6299 70.3848C91.2828 70.1131 93.7388 68.8614 95.5177 66.8747L95.5251 69.0686C96.3104 69.3632 96.9834 68.1946 97.8223 68.2889C98.8179 68.4009 98.6326 69.7843 98.5833 70.7312C98.5956 71.5992 98.9392 72.4298 99.544 73.0526C100.149 73.6755 100.969 74.0437 101.836 74.0816C102.869 69.6662 103.908 65.1675 103.496 60.6622C103.083 56.1568 100.985 51.5609 96.9651 49.1112C95.3291 48.1642 93.5439 47.5026 91.6858 47.155C87.8779 46.3602 83.9367 46.4152 80.0376 46.4741C77.8051 46.4161 75.574 46.6343 73.395 47.1236C71.2475 47.7016 69.1921 48.893 68.103 50.7361" fill="#3F3D56"/>
  <path d="M73.7645 76.9585C73.7645 76.9585 72.7397 85.3624 71.3048 85.3624C69.87 85.3624 77.454 99.0956 77.454 99.0956L97.9514 100.735L110.25 92.9464L104.306 82.9027C104.306 82.9027 94.6718 81.2629 95.9017 75.7286C97.1315 70.1943 73.7645 76.9585 73.7645 76.9585Z" fill="#FBBEBE"/>
  <path opacity="0.1" d="M73.7645 76.9585C73.7645 76.9585 72.7397 85.3624 71.3048 85.3624C69.87 85.3624 77.454 99.0956 77.454 99.0956L97.9514 100.735L110.25 92.9464L104.306 82.9027C104.306 82.9027 94.6718 81.2629 95.9017 75.7286C97.1315 70.1943 73.7645 76.9585 73.7645 76.9585Z" fill="black"/>
  <path d="M84.8331 85.3622C94.6818 85.3622 102.666 77.3782 102.666 67.5295C102.666 57.6808 94.6818 49.6968 84.8331 49.6968C74.9843 49.6968 67.0004 57.6808 67.0004 67.5295C67.0004 77.3782 74.9843 85.3622 84.8331 85.3622Z" fill="#FBBEBE"/>
  <path d="M86.4729 94.9957C86.4729 94.9957 98.7713 95.6107 102.666 81.8774C102.666 81.8774 114.759 84.3371 115.784 90.0764C116.809 95.8157 131.772 207.321 126.853 212.241C121.933 217.16 71.9197 212.241 60.8512 212.241C49.7826 212.241 43.4284 214.495 43.4284 214.495L58.3915 144.599L60.0313 96.8405L62.9009 84.1321C62.9009 84.1321 71.3527 81.5929 72.3536 83.8874C73.3546 86.1819 76.2242 97.2505 86.4729 94.9957Z" fill="#575A89"/>
  <path d="M72.9161 81.8778C72.9161 81.8778 67.8203 79.8281 64.1307 81.8778C60.4412 83.9275 49.7826 83.1076 48.3478 85.3623C46.9129 87.6171 34.4095 100.325 34.8195 101.965C35.2295 103.605 44.8632 138.246 46.708 139.475C48.5527 140.705 44.2483 212.856 38.714 221.465C33.1797 230.074 32.1548 255.696 34.8195 259.385C37.4842 263.075 35.2294 257.13 40.7637 254.876C46.298 252.621 51.6273 239.093 51.6273 239.093C51.6273 239.093 55.1119 199.738 57.3666 191.129C59.6213 182.52 78.8888 151.979 77.454 132.506C76.0192 113.034 65.7705 93.5613 68.0252 90.8967C70.2799 88.232 74.7323 84.9524 72.9161 81.8778Z" fill="#2F2E41"/>
  <path d="M99.4887 81.3653C99.4887 81.3653 107.79 77.3683 112.914 81.8777C118.039 86.3872 138.331 93.5612 138.126 98.0706C137.921 102.58 123.573 136.606 123.573 136.606C123.573 136.606 124.188 164.687 127.058 172.681C129.927 180.675 148.375 246.882 141.611 251.596C134.847 256.31 126.648 258.77 121.113 259.795C115.579 260.82 121.523 248.931 122.138 242.987C122.753 237.043 130.337 215.726 120.089 203.017C109.84 190.309 91.3922 151.774 92.6221 130.661C93.8519 109.549 96.1066 102.99 96.1066 102.99C96.1066 102.99 102.768 82.8001 99.4887 81.3653Z" fill="#2F2E41"/>
  <path d="M38.919 100.735H35.3092C35.3092 100.735 32.1549 114.879 28.6703 116.928C25.1857 118.978 23.341 121.848 23.341 123.487C23.341 125.127 20.8813 127.382 18.6266 129.637C16.3719 131.891 11.6575 137.016 12.2724 140.09C12.8873 143.165 11.8625 160.383 17.1918 160.383C22.5211 160.383 33.5897 158.743 35.2295 156.283C36.8693 153.824 47.9378 136.196 47.9378 136.196L38.919 100.735Z" fill="#2F2E41"/>
  <path d="M70.2592 41.1325C67.2991 43.8462 65.1703 47.3445 64.1201 51.2205C63.7145 52.7289 63.5247 54.4887 64.4852 55.7206C64.8503 56.0791 65.1666 56.4842 65.4259 56.9254C65.5832 57.582 65.5914 58.2655 65.4498 58.9257C65.4786 60.1843 65.7963 61.4195 66.3785 62.5358L69.5658 69.9671C69.9186 69.3189 69.923 68.523 70.2868 67.8808C70.9929 66.6349 72.6821 66.4535 74.1138 66.418L78.5794 66.3073C79.7865 66.37 80.9916 66.1501 82.0988 65.665C83.3972 64.9677 84.1777 63.6102 85.2209 62.5691C86.5427 61.2595 88.2827 60.4561 90.1368 60.2994C89.5045 61.3105 88.7259 62.2224 87.8263 63.0054C90.3677 62.7158 92.7001 61.4588 94.3393 59.4953L94.3463 61.6892C95.0889 61.9838 95.7252 60.8152 96.5185 60.9095C97.4598 61.0215 97.2846 62.4049 97.238 63.3517C97.2285 64.1966 97.5412 65.0134 98.1126 65.6358C98.684 66.2583 99.4711 66.6396 100.314 66.7022C101.29 62.2867 102.273 57.7881 101.883 53.2827C101.493 48.7774 99.5091 44.1815 95.7079 41.7318C94.1728 40.7894 92.4826 40.127 90.7159 39.7756C87.1152 38.9808 83.3885 39.0359 79.7016 39.0948C77.5885 39.0369 75.477 39.2553 73.4204 39.7442C71.3447 40.2488 69.5488 41.5453 68.4164 43.3567" fill="#3F3D56"/>
  <path d="M100.804 90.9438H49.1063C46.2511 90.9438 43.9365 93.2584 43.9365 96.1136V96.1137C43.9365 98.9689 46.2511 101.283 49.1063 101.283H100.804C103.66 101.283 105.974 98.9689 105.974 96.1136C105.974 93.2584 103.66 90.9438 100.804 90.9438Z" fill="#16161D"/>
  <path d="M50.8297 88.0713H102.528C105.383 88.0713 107.698 90.3859 107.698 93.2411V93.2411C107.698 96.0963 105.383 98.4109 102.528 98.4109H50.8297C47.9744 98.4109 45.6599 96.0963 45.6599 93.2411V93.2411C45.6599 90.3859 47.9744 88.0713 50.8297 88.0713Z" stroke="#F2F2F2" stroke-miterlimit="10"/>
  <path d="M30.925 121.643C30.925 121.643 39.329 112.009 38.0991 108.934C36.8693 105.86 40.7638 83.1077 47.9379 85.3624C55.1119 87.6171 52.0373 110.369 52.0373 110.369L40.9688 129.227L35.2295 127.177L30.925 121.643Z" fill="#FBBEBE"/>
  <path d="M33.3847 115.493L17.6017 134.761C17.6017 134.761 10.0177 155.053 20.2664 155.053C30.5151 155.053 38.5091 141.73 38.5091 141.73L46.913 121.437C46.913 121.437 40.9687 129.841 36.4593 125.332C35.1608 124.083 34.1984 122.526 33.6609 120.807C33.1235 119.087 33.0285 117.259 33.3847 115.493Z" fill="#2F2E41"/>
  <path d="M114.647 218.875H87.8122C86.3395 218.875 85.1456 220.068 85.1456 221.541V226.548C85.1456 228.02 86.3395 229.214 87.8122 229.214H114.647C116.119 229.214 117.313 228.02 117.313 226.548V221.541C117.313 220.068 116.119 218.875 114.647 218.875Z" fill="#57B894"/>
  <path d="M117.519 215.428H90.6842C89.2116 215.428 88.0177 216.622 88.0177 218.094V223.101C88.0177 224.573 89.2116 225.767 90.6842 225.767H117.519C118.992 225.767 120.185 224.573 120.185 223.101V218.094C120.185 216.622 118.992 215.428 117.519 215.428Z" stroke="#F2F2F2" stroke-miterlimit="10"/>
  <path d="M113.311 205.933C113.311 205.933 98.3614 226.999 107.585 231.303C116.809 235.608 128.492 216.34 128.492 216.34L113.311 205.933Z" fill="#FBBEBE"/>
  <path d="M129.927 94.9961L138.126 98.0707C138.126 98.0707 143.046 122.463 144.685 128.202C146.325 133.941 148.58 182.725 143.046 192.564C137.511 202.402 126.853 222.285 126.853 222.285C126.853 222.285 117.014 207.732 110.25 208.757C110.25 208.757 119.679 200.558 121.113 196.253C122.548 191.949 126.853 179.65 127.058 172.681C127.263 165.712 126.393 138.571 121.498 133.796C116.604 129.022 129.927 94.9961 129.927 94.9961Z" fill="#2F2E41"/>
  <path d="M0 413.641H168.163" stroke="#3F3D56" stroke-miterlimit="10"/>
  <path d="M533.131 305.985C533.131 345.174 557.716 376.886 588.099 376.886L533.131 305.985Z" fill="#46455B"/>
  <path d="M588.099 376.886C588.099 337.256 615.535 305.188 649.44 305.188L588.099 376.886Z" fill="#16161D"/>
  <path d="M553.047 309.538C553.047 346.763 568.725 376.886 588.099 376.886L553.047 309.538Z" fill="#16161D"/>
  <path d="M588.099 376.886C588.099 326.248 619.811 285.272 659 285.272L588.099 376.886Z" fill="#46455B"/>
  <path d="M576.535 377.386C576.535 377.386 584.331 377.145 586.68 375.473C589.029 373.8 598.671 371.802 599.254 374.485C599.837 377.168 610.969 387.829 602.168 387.9C593.367 387.971 581.719 386.529 579.374 385.101C577.029 383.673 576.535 377.386 576.535 377.386Z" fill="#A8A8A8"/>
  <path opacity="0.2" d="M602.325 386.966C593.524 387.037 581.876 385.595 579.531 384.167C577.745 383.079 577.034 379.176 576.795 377.375C576.631 377.383 576.535 377.386 576.535 377.386C576.535 377.386 577.029 383.673 579.374 385.101C581.719 386.529 593.367 387.971 602.168 387.9C604.709 387.88 605.586 386.976 605.538 385.637C605.185 386.446 604.216 386.951 602.325 386.966Z" fill="black"/>
  <path d="M532.736 388.051H649.719" stroke="#3F3D56" stroke-miterlimit="10"/>
</svg>
