<svg width="503" height="345" viewBox="0 0 503 345" fill="none" xmlns="http://www.w3.org/2000/svg">
  <path opacity="0.1" d="M473.994 195.783C457.183 217.217 463.714 248.528 474.396 273.604C477.973 282 482.018 290.883 480.509 299.886C478.664 310.896 468.865 318.947 458.577 323.214C439.822 330.992 417.38 329.138 400.147 318.388C385.255 309.097 374.589 293.989 359.443 285.121C334.095 270.281 301.832 275.885 274.308 286.108C254.835 293.34 233.546 302.745 214.197 295.187C200.582 289.869 191.17 276.925 186.043 263.204C183.567 256.58 181.77 249.409 177.042 244.158C174.232 241.037 170.563 238.821 166.806 236.953C132.494 219.892 89.1588 229.028 55.832 210.106C33.3243 197.327 18.9149 173.221 12.5349 148.085C6.1549 122.949 6.89803 96.5916 8.51788 70.7049C9.66902 52.3083 11.7344 32.6681 23.4561 18.4697C35.8561 3.44973 57.137 -2.13532 76.3721 0.719499C95.6072 3.57432 113.042 13.7493 128.381 25.7337C147.551 40.7117 165.329 59.3628 188.865 65.4301C204.894 69.5619 221.755 67.3018 238.286 66.5191C265.923 65.2106 293.57 68.1204 321.054 71.3066C347.366 74.3569 373.867 77.7139 398.932 86.2971C416.67 92.3712 430.891 103.397 447.641 111.1C458.558 116.121 470.464 117.507 480.801 123.903C493.535 131.781 505.209 145.483 501.946 161.517C498.844 176.762 482.916 184.408 473.994 195.783Z" fill="#16161D"/>
  <path d="M328.588 65.7349C328.588 65.7349 301.565 57.7093 299.78 80.5371C297.994 103.365 306.922 140.964 299.78 153.049C292.638 165.135 267.155 182.595 280.566 184.16C293.977 185.724 300.673 187.962 296.655 196.019C292.638 204.076 271.66 211.686 276.123 217.504C280.587 223.323 282.819 230.485 278.355 237.647C273.892 244.808 258.269 249.284 260.947 254.208C263.625 259.132 273.445 261.817 268.535 267.189C263.625 272.56 249.392 284.778 254.947 284.712" stroke="#535461" stroke-width="3" stroke-miterlimit="10"/>
  <path d="M368.063 50.5262H311.076C307.879 50.5262 305.287 53.1253 305.287 56.3315V76.6084C305.287 79.8146 307.879 82.4137 311.076 82.4137H368.063C371.26 82.4137 373.852 79.8146 373.852 76.6084V56.3315C373.852 53.1253 371.26 50.5262 368.063 50.5262Z" fill="#16161D"/>
  <path opacity="0.1" d="M368.386 77.5197H310.752V78.1176H368.386V77.5197Z" fill="black"/>
  <path opacity="0.3" d="M368.386 55.5086H310.752V77.4313H368.386V55.5086Z" fill="black"/>
  <path opacity="0.1" d="M324.167 74.8994C328.557 74.8994 332.117 71.3302 332.117 66.9275C332.117 62.5247 328.557 58.9556 324.167 58.9556C319.777 58.9556 316.218 62.5247 316.218 66.9275C316.218 71.3302 319.777 74.8994 324.167 74.8994Z" fill="black"/>
  <path opacity="0.1" d="M354.972 74.8994C359.362 74.8994 362.921 71.3302 362.921 66.9275C362.921 62.5247 359.362 58.9556 354.972 58.9556C350.581 58.9556 347.022 62.5247 347.022 66.9275C347.022 71.3302 350.581 74.8994 354.972 74.8994Z" fill="black"/>
  <path d="M345.53 82.4128H333.607V89.39H345.53V82.4128Z" fill="#16161D"/>
  <path d="M364.412 87.3962H314.727V127.256H364.412V87.3962Z" fill="#16161D"/>
  <path d="M365.405 135.228H313.733V140.21H365.405V135.228Z" fill="#16161D"/>
  <path d="M322.18 152.168V158.147V167.115V172.098V175.087H331.123V172.098V167.115V158.147V152.168V145.192H322.18V152.168Z" fill="#16161D"/>
  <path d="M349.01 145.192V152.168V158.147V167.115V172.098V175.087H357.953V172.098V167.115V158.147V152.168V145.192H349.01Z" fill="#16161D"/>
  <path d="M307.96 96.3648V105.582C305.505 106.011 303.218 107.117 301.353 108.775C299.624 110.381 298.28 112.358 297.421 114.558C296.325 117.383 295.671 120.361 295.484 123.386C295.203 127.341 295.387 131.316 296.034 135.229H286.097C285.683 130.468 285.77 125.678 286.357 120.936C286.826 117.016 287.902 113.194 289.546 109.608C292.425 103.552 296.52 100.267 300.117 98.4831C302.554 97.2335 305.226 96.5118 307.96 96.3648Z" fill="#16161D"/>
  <path opacity="0.3" d="M331.123 145.192H322.18V152.168H331.123V145.192Z" fill="black"/>
  <path opacity="0.3" d="M331.123 158.147H322.18V167.115H331.123V158.147Z" fill="black"/>
  <path opacity="0.3" d="M331.123 172.098H322.18V175.087H331.123V172.098Z" fill="black"/>
  <path opacity="0.3" d="M357.953 145.192H349.009V152.168H357.953V145.192Z" fill="black"/>
  <path opacity="0.3" d="M357.953 158.147H349.009V167.115H357.953V158.147Z" fill="black"/>
  <path opacity="0.3" d="M357.953 172.098H349.009V175.087H357.953V172.098Z" fill="black"/>
  <path opacity="0.3" d="M307.96 96.3648V105.581C305.505 106.011 303.218 107.117 301.353 108.775L300.117 98.4831C302.554 97.2335 305.226 96.5118 307.96 96.3648Z" fill="black"/>
  <path opacity="0.3" d="M297.421 114.558C296.325 117.383 295.672 120.361 295.484 123.386L286.357 120.936C286.826 117.016 287.902 113.194 289.546 109.608L297.421 114.558Z" fill="black"/>
  <path d="M371.179 96.3648V105.582C373.634 106.011 375.921 107.117 377.785 108.775C379.514 110.381 380.859 112.358 381.718 114.558C382.814 117.383 383.467 120.361 383.655 123.386C383.936 127.341 383.751 131.316 383.105 135.229H393.042C393.456 130.468 393.369 125.678 392.782 120.936C392.313 117.016 391.237 113.194 389.593 109.608C386.714 103.552 382.619 100.267 379.022 98.4831C376.584 97.2335 373.912 96.5118 371.179 96.3648Z" fill="#16161D"/>
  <path opacity="0.3" d="M371.179 96.3648V105.581C373.634 106.011 375.921 107.117 377.785 108.775L379.022 98.4831C376.584 97.2335 373.912 96.5118 371.179 96.3648Z" fill="black"/>
  <path opacity="0.3" d="M381.718 114.558C382.814 117.383 383.467 120.361 383.655 123.386L392.782 120.936C392.313 117.016 391.237 113.194 389.593 109.608L381.718 114.558Z" fill="black"/>
  <path opacity="0.1" d="M345.53 82.4128H333.607V83.2387H345.53V82.4128Z" fill="black"/>
  <path opacity="0.1" d="M365.294 94.4981V111.186C364.7 110.543 364.37 109.698 364.371 108.821V96.8612C364.37 95.9848 364.7 95.1406 365.294 94.4981Z" fill="black"/>
  <path opacity="0.1" d="M314.904 95.5985V108.091C314.844 108.881 314.517 109.627 313.977 110.205V93.4847C314.517 94.0628 314.844 94.8086 314.904 95.5985Z" fill="black"/>
  <path opacity="0.1" d="M361.927 127.256H317.212V127.847H361.927V127.256Z" fill="black"/>
  <path opacity="0.1" d="M338.078 140.211H316.218V140.669H338.078V140.211Z" fill="black"/>
  <path opacity="0.1" d="M361.928 140.211H340.067V140.669H361.928V140.211Z" fill="black"/>
  <path d="M322.078 21.0163H318.656V50.5262H322.078V21.0163Z" fill="#16161D"/>
  <path d="M361.314 21.0163H357.892V50.5262H361.314V21.0163Z" fill="#16161D"/>
  <path opacity="0.1" d="M320.253 25.134C322.394 25.134 324.131 23.3928 324.131 21.2451C324.131 19.0973 322.394 17.3562 320.253 17.3562C318.111 17.3562 316.375 19.0973 316.375 21.2451C316.375 23.3928 318.111 25.134 320.253 25.134Z" fill="black"/>
  <path d="M320.253 24.9052C322.394 24.9052 324.131 23.1641 324.131 21.0163C324.131 18.8685 322.394 17.1274 320.253 17.1274C318.111 17.1274 316.375 18.8685 316.375 21.0163C316.375 23.1641 318.111 24.9052 320.253 24.9052Z" fill="#16161D"/>
  <path opacity="0.1" d="M359.717 25.134C361.859 25.134 363.595 23.3928 363.595 21.2451C363.595 19.0973 361.859 17.3562 359.717 17.3562C357.575 17.3562 355.839 19.0973 355.839 21.2451C355.839 23.3928 357.575 25.134 359.717 25.134Z" fill="black"/>
  <path d="M359.717 24.9052C361.859 24.9052 363.595 23.1641 363.595 21.0163C363.595 18.8685 361.859 17.1274 359.717 17.1274C357.575 17.1274 355.839 18.8685 355.839 21.0163C355.839 23.1641 357.575 24.9052 359.717 24.9052Z" fill="#16161D"/>
  <path opacity="0.5" d="M279.025 191.989C277.499 193.521 277.151 195.625 276.609 197.575C275.062 203.145 271.418 208.283 266.34 212.056C262.62 214.821 257.633 217.881 258.515 222.005C258.726 222.991 259.282 223.911 259.429 224.904C260.062 229.206 253.505 231.472 250.966 235.237C249.075 238.041 249.581 241.514 250.143 244.708C250.83 248.618 251.663 252.788 254.861 255.666C255.724 256.443 256.753 257.117 257.355 258.054C258.704 260.152 257.531 262.902 258.758 265.054C260.393 267.923 265.543 268.048 268.532 266.113C271.521 264.178 272.902 260.998 274.227 258.015C277.807 249.955 282.208 241.868 289.648 235.999C296.782 230.372 307.159 226.006 308.383 217.814C308.908 214.302 307.578 210.453 309.609 207.359C310.569 205.896 312.173 204.813 313.259 203.415C316.496 199.253 314.086 193.231 309.347 190.275C302.192 185.812 285.248 185.74 279.025 191.989Z" fill="#DEE3F3"/>
  <path d="M404.438 42.343L372.911 52.2213L374.109 56.0664L405.636 46.1881L404.438 42.343Z" fill="#16161D"/>
  <path d="M418.474 191.998C418.474 191.998 401.189 188.531 396.58 183.909C391.971 179.287 371.23 171.198 368.925 176.976C366.621 182.754 337.813 202.398 357.402 205.864C376.991 209.331 403.494 210.486 409.256 208.175C415.017 205.864 418.474 191.998 418.474 191.998Z" fill="#A8A8A8"/>
  <path opacity="0.2" d="M357.402 203.718C376.991 207.185 403.494 208.34 409.255 206.029C413.643 204.269 416.692 195.813 417.897 191.878C418.262 191.955 418.474 191.998 418.474 191.998C418.474 191.998 415.017 205.864 409.255 208.175C403.494 210.487 376.991 209.331 357.402 205.864C351.748 204.864 350.131 202.514 350.74 199.54C351.223 201.48 353.194 202.973 357.402 203.718Z" fill="black"/>
  <path d="M456.858 40.8829C456.55 40.1134 456.059 39.431 455.428 38.8951C450.79 34.6559 443.288 35.9409 437.53 33.3515C436.203 32.755 434.842 31.9275 433.402 32.1542C431.39 32.4708 429.52 34.7672 427.767 33.7483L427.892 34.1319C427.85 34.1113 427.808 34.0907 427.767 34.0664C428.196 35.3796 428.626 36.6929 429.056 38.0061C429.551 39.5186 430.074 41.0752 431.037 42.3347C429.613 43.5801 428.523 45.1637 427.867 46.9406C427.21 48.7176 427.009 50.6311 427.281 52.5062C427.553 54.3813 428.289 56.1582 429.423 57.6742C430.556 59.1902 432.051 60.397 433.77 61.1842C433.83 61.316 433.891 61.4484 433.949 61.5822C434.004 61.6068 434.06 61.6282 434.115 61.6521C434.498 62.5331 434.783 63.4533 434.966 64.3963C433.474 64.6033 430.872 66.2584 428.312 68.7026L423.194 68.5271C419.887 68.4165 416.687 67.3255 413.999 65.392L398.694 54.3579C397.603 54.4653 396.575 54.9209 395.761 55.6577C393.861 53.6719 392.248 51.5973 392.385 50.3821C392.385 50.3821 385.268 37.0235 382.68 43.7028C380.092 50.3821 387.533 57.3794 387.533 57.3794L392.253 63.5118C392.067 64.5867 391.949 65.6723 391.9 66.7622C397.723 73.4415 418.105 79.4847 418.105 79.4847L421.283 79.6389C421.29 79.6975 421.295 79.7469 421.301 79.7955C421.106 80.6318 421.01 81.4884 421.017 82.3472C421.019 82.4706 421.021 82.5998 421.023 82.729C421.022 82.8137 421.015 82.8989 421.017 82.9833C421.178 93.6384 422.634 126.24 422.634 126.24C422.918 126.113 423.21 125.997 423.508 125.888L423.281 128.784C423.281 128.784 409.694 130.692 399.664 134.509C389.635 138.326 389.312 142.779 389.312 142.779V182.07C386.446 183.544 381.927 185.482 379.606 184.445C377.088 183.319 375.705 184.265 375.455 185.252V185.252C375.404 185.446 375.4 185.65 375.444 185.845L375.447 185.857C375.468 185.945 375.501 186.03 375.544 186.109L375.553 186.128C375.599 186.211 375.657 186.286 375.724 186.353C376.695 187.307 397.723 195.577 402.576 194.305C402.726 194.265 402.873 194.216 403.016 194.156C403.063 194.137 403.104 194.111 403.149 194.09C403.239 194.047 403.33 194.006 403.413 193.956C403.463 193.926 403.508 193.891 403.556 193.859C403.629 193.81 403.703 193.763 403.771 193.708C403.818 193.671 403.86 193.627 403.905 193.587C403.968 193.531 404.031 193.477 404.09 193.417C404.132 193.372 404.17 193.324 404.21 193.277C404.265 193.214 404.321 193.151 404.372 193.084C404.409 193.035 404.441 192.982 404.476 192.932C404.525 192.86 404.575 192.789 404.62 192.714C404.651 192.662 404.678 192.607 404.708 192.553C404.751 192.473 404.795 192.394 404.835 192.31C404.86 192.256 404.883 192.2 404.907 192.145C404.945 192.057 404.984 191.968 405.019 191.876C405.039 191.822 405.057 191.767 405.076 191.711C405.11 191.614 405.143 191.516 405.173 191.416C405.189 191.363 405.202 191.31 405.217 191.257C405.246 191.15 405.275 191.042 405.3 190.931C405.312 190.882 405.322 190.833 405.332 190.783C405.357 190.666 405.381 190.548 405.402 190.428C405.409 190.384 405.416 190.339 405.423 190.294C405.444 190.166 405.463 190.037 405.479 189.907C405.484 189.87 405.488 189.832 405.492 189.795C405.508 189.655 405.523 189.515 405.534 189.374C405.537 189.345 405.539 189.315 405.541 189.286C405.553 189.135 405.562 188.984 405.569 188.832C405.57 188.812 405.571 188.792 405.572 188.772C405.578 188.61 405.583 188.448 405.585 188.286L405.585 188.255C405.578 186.358 405.369 184.466 404.961 182.614L406.135 149.14C412.489 149.239 418.844 149.004 425.173 148.437L425.869 164.407C425.869 164.407 425.869 174.903 429.428 179.674C432.474 183.757 435.993 201.814 436.944 206.938C435.637 209.438 433.136 212.529 428.781 212.434C428.781 212.434 420.587 211.724 421.049 213.984L421.05 213.988C421.063 214.047 421.08 214.105 421.102 214.161L421.107 214.176C421.132 214.241 421.162 214.304 421.196 214.365L421.203 214.378C421.236 214.436 421.274 214.496 421.317 214.558C421.325 214.57 421.334 214.583 421.343 214.596C421.39 214.662 421.443 214.73 421.502 214.801L421.517 214.818C421.572 214.882 421.632 214.947 421.697 215.014C421.715 215.033 421.733 215.051 421.751 215.07C421.824 215.144 421.902 215.219 421.987 215.297C426.193 219.113 450.78 219.749 450.78 219.749L450.78 219.735L450.78 219.725L450.78 219.677L450.78 219.663C450.78 219.639 450.779 219.609 450.779 219.575L450.779 219.562C450.764 218.458 450.618 212.662 449.145 208.299H449.486C449.486 208.299 445.927 176.175 443.016 172.358C443.016 172.358 442.242 155.42 443.988 144.804C444.096 144.765 444.204 144.727 444.31 144.687C452.466 141.633 453.045 134.11 452.205 128.583C453.747 129.08 454.662 129.42 454.662 129.42C454.662 129.42 454.634 129.18 454.582 128.754C454.633 128.773 454.662 128.784 454.662 128.784C454.662 128.784 454.507 127.774 454.251 126.197C453.668 121.863 452.537 114.289 451.334 110.714C451.139 109.927 450.953 109.256 450.78 108.746C450.085 106.598 449.608 104.384 449.356 102.139C449.026 99.2306 448.859 96.3056 448.856 93.3782C448.883 89.4662 449.181 85.5608 449.75 81.6904C450.244 78.3101 450.689 74.4655 450.651 71.7809C450.685 70.8459 450.62 69.9099 450.457 68.9887C450.025 67.0065 448.118 65.7176 446.136 64.8976C446.008 64.8448 445.877 64.8013 445.748 64.7523C445.796 64.001 445.86 63.1497 445.942 62.2521C446.179 62.4172 446.448 62.532 446.732 62.5895C447.015 62.6471 447.307 62.6462 447.59 62.5869C448.443 62.3998 449.054 61.6865 449.599 61.0155C452.466 57.484 455.41 53.803 456.512 49.416C456.952 47.4566 457.155 45.4512 457.118 43.4431C457.118 43.3333 457.118 43.2233 457.118 43.113C457.161 42.3602 457.073 41.6055 456.858 40.8829Z" fill="url(#paint0_linear)"/>
  <path d="M430.752 58.0983C430.752 58.0983 435.096 64.6328 434.165 67.7445C433.234 70.8562 444.405 68.9892 444.405 68.9892C444.405 68.9892 444.715 56.8536 446.887 54.0531C449.059 51.2526 430.752 58.0983 430.752 58.0983Z" fill="#F7C4A7"/>
  <path d="M402.05 62.2991C402.05 62.2991 393.051 54.8311 393.361 52.0306C393.361 52.0306 386.535 38.9616 384.053 45.4961C381.57 52.0306 388.707 58.8763 388.707 58.8763L397.395 70.3894L402.05 62.2991Z" fill="#F7C4A7"/>
  <path d="M392.896 179.453C392.896 179.453 384.518 184.743 381.105 183.187C377.692 181.632 376.45 184.121 377.381 185.054C378.312 185.988 398.481 194.078 403.136 192.834C407.79 191.589 405.423 181.396 405.423 181.396L392.896 179.453Z" fill="#535461"/>
  <path d="M437.268 202.169C437.268 202.169 435.251 210.726 428.269 210.57C428.269 210.57 417.719 209.637 421.753 213.371C425.787 217.105 449.37 217.727 449.37 217.727C449.37 217.727 449.37 204.969 445.025 202.169C440.681 199.368 437.268 202.169 437.268 202.169Z" fill="#535461"/>
  <path d="M424.546 141.802L425.477 163.584C425.477 163.584 425.477 173.852 428.89 178.52C432.303 183.187 436.337 206.525 436.337 206.525H448.128C448.128 206.525 444.715 175.097 441.922 171.363C441.922 171.363 440.681 143.669 445.025 137.446L424.546 141.802Z" fill="#575988"/>
  <path opacity="0.1" d="M424.546 141.802L425.477 163.584C425.477 163.584 425.477 173.852 428.89 178.52C432.303 183.187 436.337 206.525 436.337 206.525H448.128C448.128 206.525 444.715 175.097 441.922 171.363C441.922 171.363 440.681 143.669 445.025 137.446L424.546 141.802Z" fill="black"/>
  <path d="M449.059 122.199C449.059 122.199 456.196 139.313 443.164 144.292C430.131 149.27 406.549 148.648 406.549 148.648L405.308 184.743C405.308 184.743 390.724 186.61 390.414 181.943V142.425C390.414 142.425 390.724 138.068 400.343 134.334C409.962 130.6 422.995 128.733 422.995 128.733L423.615 120.643L449.059 122.199Z" fill="#575988"/>
  <path opacity="0.1" d="M437.624 65.82C440.102 65.5453 442.61 65.9008 444.915 66.8537C446.816 67.656 448.645 68.917 449.059 70.8562C449.55 73.1528 449.006 78.3033 448.382 82.6603C447.383 89.4923 447.255 96.4241 448.003 103.288C448.323 106.147 448.764 108.64 449.37 109.752C451.231 113.175 453.093 129.356 453.093 129.356C453.093 129.356 432.614 121.576 422.374 126.244C422.374 126.244 420.978 94.3493 420.823 83.9252C420.702 75.8537 430.907 66.6554 434.32 66.3442C436.321 66.1619 435.637 66.0269 437.624 65.82Z" fill="black"/>
  <path d="M437.624 65.1977C440.102 64.923 442.61 65.2784 444.915 66.2314C446.816 67.0337 448.645 68.2946 449.059 70.2338C449.55 72.5304 449.006 77.6809 448.382 82.0379C447.383 88.8699 447.255 95.8017 448.003 102.666C448.245 104.86 448.703 107.026 449.37 109.13C450.766 113.33 453.093 128.733 453.093 128.733C453.093 128.733 432.614 120.954 422.374 125.622C422.374 125.622 420.978 93.7269 420.823 83.3028C420.702 75.2314 430.907 66.0331 434.32 65.7219C436.321 65.5395 435.637 65.4046 437.624 65.1977Z" fill="#E14B5A"/>
  <path opacity="0.1" d="M443.164 82.3693L421.133 81.1247C421.133 81.1247 419.731 70.2933 422.911 70.4046L444.715 71.1673C444.715 71.1673 449.369 76.7683 443.164 82.3693Z" fill="black"/>
  <path d="M443.164 81.747L418.03 80.5023C418.03 80.5023 398.481 74.5902 392.896 68.0557C392.896 68.0557 393.206 56.5425 399.412 55.9201L414.091 66.7151C416.657 68.6022 419.731 69.671 422.911 69.7822L444.715 70.545C444.715 70.545 449.37 76.146 443.164 81.747Z" fill="#E14B5A"/>
  <path opacity="0.1" d="M444.25 59.4986C444.619 56.5478 445.953 55.5691 446.887 54.3643C449.059 51.5638 430.752 58.4095 430.752 58.4095C431.696 59.8679 432.523 61.3987 433.227 62.9878C434.689 63.6629 436.279 64.0118 437.889 64.0105C440.588 64.0105 442.319 61.0966 444.25 59.4986Z" fill="black"/>
  <path d="M437.889 63.6993C444.058 63.6993 449.059 58.684 449.059 52.4973C449.059 46.3106 444.058 41.2953 437.889 41.2953C431.719 41.2953 426.718 46.3106 426.718 52.4973C426.718 58.684 431.719 63.6993 437.889 63.6993Z" fill="#F7C4A7"/>
  <path opacity="0.1" d="M430.835 44.6455C429.645 43.3426 429.073 41.6045 428.534 39.9228L427.297 36.0685C428.979 37.0652 430.772 34.8187 432.701 34.5089C434.083 34.2871 435.388 35.0967 436.661 35.6803C442.184 38.2136 449.379 36.9564 453.827 41.1037C454.435 41.6311 454.905 42.2984 455.199 43.0485C455.406 43.76 455.49 44.5019 455.448 45.2419C455.484 47.2058 455.289 49.1672 454.867 51.0853C453.81 55.3772 450.986 58.9785 448.236 62.4335C447.714 63.0899 447.127 63.7877 446.31 63.9708C444.713 64.3284 443.478 62.5976 442.86 61.0786C442.042 59.0665 441.438 56.9732 441.06 54.8336C440.964 53.9185 440.714 53.0262 440.322 52.1942C439.361 50.4849 436.991 48.8675 435.55 47.5434C434.133 46.2421 432.158 46.0948 430.835 44.6455Z" fill="black"/>
  <path d="M430.835 44.3343C429.645 43.0314 429.073 41.2933 428.534 39.6116L427.297 35.7573C428.979 36.7541 430.772 34.5075 432.701 34.1977C434.083 33.9759 435.388 34.7855 436.661 35.3691C442.184 37.9024 449.379 36.6452 453.827 40.7925C454.435 41.3199 454.905 41.9872 455.199 42.7373C455.406 43.4489 455.49 44.1907 455.448 44.9307C455.484 46.8947 455.289 48.856 454.867 50.7741C453.81 55.066 450.986 58.6673 448.236 62.1223C447.714 62.7787 447.127 63.4765 446.31 63.6596C444.713 64.0172 443.478 62.2864 442.86 60.7674C442.042 58.7553 441.438 56.662 441.06 54.5224C440.964 53.6073 440.714 52.715 440.322 51.8831C439.361 50.1737 436.991 48.5563 435.55 47.2322C434.133 45.9309 432.158 45.7837 430.835 44.3343Z" fill="#632652"/>
  <path d="M440.836 55.7646C441.35 55.7646 441.767 54.859 441.767 53.742C441.767 52.6249 441.35 51.7194 440.836 51.7194C440.322 51.7194 439.906 52.6249 439.906 53.742C439.906 54.859 440.322 55.7646 440.836 55.7646Z" fill="#F7C4A7"/>
  <path opacity="0.1" d="M446.422 107.729C446.422 107.729 445.801 109.596 442.698 109.285C439.595 108.974 430.597 108.352 430.597 109.285" fill="black"/>
  <path opacity="0.5" d="M421.753 213.059C421.327 212.73 421.012 212.276 420.85 211.761C420.769 212.165 421.018 212.69 421.753 213.371C425.787 217.105 449.37 217.727 449.37 217.727C449.37 217.727 449.37 217.617 449.366 217.416C449.217 217.412 425.774 216.782 421.753 213.059Z" fill="white"/>
  <path opacity="0.5" d="M403.136 192.211C398.481 193.456 378.312 185.366 377.381 184.432C377.257 184.306 377.168 184.149 377.123 183.977C377.069 184.164 377.065 184.361 377.11 184.55C377.155 184.739 377.249 184.913 377.381 185.054C378.312 185.988 398.481 194.078 403.136 192.834C405.531 192.193 406.065 189.182 406.021 186.411C405.975 188.995 405.353 191.618 403.136 192.211Z" fill="white"/>
  <path d="M226.129 216.059C225.041 209.988 224.373 203.849 224.131 197.685V197.685C223.918 192.609 222.143 187.723 219.05 183.699C215.958 179.674 211.699 176.708 206.858 175.207C205.096 174.664 203.152 174.155 201.008 173.699C182.204 169.694 176.492 173.191 175.843 173.65C175.296 172.646 174.82 171.604 174.42 170.532C174.388 170.423 174.358 170.313 174.328 170.202C178.049 166.222 180.316 161.096 180.759 155.658C183.896 152.468 185.728 148.621 185.728 144.478C185.728 140.915 184.372 137.571 181.997 134.675V129.053C181.997 125.837 181.365 122.653 180.138 119.682C178.911 116.711 177.113 114.012 174.845 111.738C172.578 109.464 169.886 107.661 166.924 106.43C163.961 105.2 160.786 104.566 157.579 104.566H155.599C152.393 104.566 149.217 105.2 146.255 106.43C143.292 107.661 140.601 109.464 138.333 111.738C136.066 114.012 134.267 116.711 133.04 119.682C131.813 122.653 131.181 125.837 131.181 129.053V135.122C129.041 137.772 127.852 141.068 127.806 144.478C127.806 148.534 129.563 152.306 132.58 155.455C132.992 161.093 135.364 166.406 139.281 170.47C139.413 171.39 139.549 172.38 139.683 173.424L106.04 180.559C106.04 180.559 93.0696 181.093 84.7188 198.376C77.6492 213.008 63.5765 250.623 59.4245 261.821H59.4245L59.4245 261.822C58.672 263.851 58.2449 265.014 58.2449 265.014C58.2449 265.014 58.3826 264.875 58.6468 264.636C58.3855 265.344 58.2449 265.727 58.2449 265.727C58.2449 265.727 58.4491 265.52 58.8371 265.18C58.2479 269.866 58.1638 277.91 64.2859 278.912C69.4177 279.752 82.6363 280.097 92.6254 280.239V280.248H93.3182C99.9376 280.337 104.974 280.337 104.974 280.337V280.248H212.38V279.145C212.381 278.142 212.18 277.15 211.788 276.227C211.84 276.167 211.889 276.107 211.938 276.047C212.512 276.808 212.895 277.697 213.052 278.638C213.04 278.731 213.023 278.822 213.002 278.912C213.002 278.912 213.024 278.855 213.065 278.747C213.091 279.041 213.069 279.337 213.002 279.625C213.002 279.625 226.782 244.019 226.635 222.759C226.675 220.515 226.505 218.272 226.129 216.059ZM140.234 178.231C140.056 177.216 139.942 176.19 139.893 175.161L139.894 175.132C140.012 176.132 140.127 177.169 140.234 178.231ZM98.4888 254.71V263.196L93.1842 264.332L98.4888 254.71Z" fill="url(#paint1_linear)"/>
  <path d="M156.038 107.991H156.038C162.514 107.991 168.725 110.571 173.304 115.163C177.883 119.755 180.456 125.983 180.456 132.477V142.923H131.62V132.477C131.62 125.983 134.193 119.755 138.772 115.163C143.351 110.571 149.562 107.991 156.038 107.991Z" fill="#E14B5A"/>
  <path d="M156.209 165.525C171.58 165.525 184.042 156.939 184.042 146.347C184.042 135.755 171.58 127.169 156.209 127.169C140.837 127.169 128.376 135.755 128.376 146.347C128.376 156.939 140.837 165.525 156.209 165.525Z" fill="#E14B5A"/>
  <path d="M138.365 164.926C138.365 164.926 144.171 195.406 138.365 203.625C132.559 211.844 156.123 215.097 156.123 215.097L180.541 206.193L183.956 184.275C183.956 184.275 169.1 175.885 172.174 158.933L138.365 164.926Z" fill="#F7C4A7"/>
  <path d="M210.423 267.666C210.423 267.666 211.96 274.344 203.593 275.543C198.652 276.272 193.627 276.212 188.704 275.365L186.859 258.591H206.325L210.423 267.666Z" fill="#F7C4A7"/>
  <path d="M62.6594 259.118C62.6594 259.118 58.9644 274.173 67.3314 275.543C75.6983 276.913 106.434 276.913 106.434 276.913V259.105L92.5202 262.085L79.4549 249.515L62.6594 259.118Z" fill="#F7C4A7"/>
  <path opacity="0.1" d="M140.158 174.772L107.459 181.707C107.459 181.707 94.9936 182.221 86.9681 198.83C78.9427 215.44 61.5259 262.872 61.5259 262.872C61.5259 262.872 76.3814 247.803 93.7983 263.899L105.41 242.837L102.848 276.228H192.835V260.474C192.835 260.474 211.618 270.577 210.252 276.228C210.252 276.228 226.325 234.699 222.868 215.824C221.822 209.99 221.181 204.09 220.948 198.166V198.166C220.743 193.288 219.037 188.593 216.065 184.725C213.093 180.857 209 178.007 204.348 176.564C202.654 176.042 200.786 175.553 198.726 175.114C179.431 171.005 174.479 175.114 174.479 175.114C174.479 175.114 170.742 187.31 170.808 192.837C170.893 199.943 160.734 204.652 160.734 204.652C160.734 204.652 145.707 201.056 145.024 198.145C144.341 195.234 138.963 178.197 140.158 174.772Z" fill="black"/>
  <path d="M140.158 174.087L107.459 181.022C107.459 181.022 94.9935 181.536 86.9682 198.145C78.9428 214.755 61.5259 262.187 61.5259 262.187C61.5259 262.187 76.3814 247.118 93.7983 263.214L105.41 242.152L102.848 275.543H192.835V259.789C192.835 259.789 211.618 269.892 210.252 275.543C210.252 275.543 226.325 234.014 222.868 215.139C221.822 209.305 221.181 203.405 220.948 197.481V197.481C220.743 192.603 219.037 187.908 216.065 184.04C213.093 180.172 209 177.322 204.348 175.879C202.654 175.357 200.786 174.868 198.726 174.429C179.431 170.32 174.479 174.429 174.479 174.429C174.479 174.429 170.742 186.625 170.808 192.152C170.893 199.258 160.734 203.967 160.734 203.967C160.734 203.967 145.707 200.371 145.024 197.46C144.341 194.549 138.963 177.512 140.158 174.087Z" fill="#575988"/>
  <path opacity="0.1" d="M173.577 172.632C172.204 168.732 171.896 164.534 172.686 160.474L138.877 166.467C138.877 166.467 139.365 169.029 139.917 172.868C142.102 175.142 144.725 176.946 147.627 178.171C150.529 179.396 153.649 180.016 156.798 179.994C159.946 179.972 163.057 179.308 165.942 178.042C168.827 176.777 171.424 174.936 173.577 172.632Z" fill="black"/>
  <path d="M179.346 155.166C179.346 161.293 176.938 167.174 172.643 171.533C168.349 175.891 162.515 178.378 156.405 178.452C150.295 178.526 144.402 176.183 140.004 171.93C135.605 167.677 133.056 161.856 132.908 155.731C132.902 155.542 132.901 155.354 132.901 155.166C132.9 150.805 134.12 146.532 136.421 142.833C138.723 139.133 142.013 136.156 145.919 134.239C146.616 133.899 147.331 133.591 148.065 133.318C151.888 131.909 156.011 131.525 160.027 132.205C160.029 132.207 160.032 132.207 160.035 132.207C165.179 133.085 169.878 135.676 173.372 139.562C176.866 143.448 178.953 148.402 179.295 153.623C179.329 154.133 179.346 154.647 179.346 155.166Z" fill="#F7C4A7"/>
  <g opacity="0.1">
    <path opacity="0.1" d="M148.033 133.864C148.043 133.857 148.054 133.85 148.065 133.844C147.331 134.116 146.616 134.423 145.919 134.765C142.013 136.682 138.723 139.659 136.421 143.359C134.12 147.058 132.9 151.331 132.901 155.692C132.901 155.88 132.902 156.068 132.908 156.257C133.629 156.237 134.339 156.066 134.991 155.755C140.653 153.106 144.049 144.998 145.383 139.344C145.861 137.32 146.319 135.039 148.033 133.864Z" fill="black"/>
    <path opacity="0.1" d="M165.808 134.519C163.97 133.672 162.029 133.071 160.035 132.733C161.671 133.11 163.132 134.03 164.181 135.344C164.695 136.045 165.121 136.807 165.45 137.613C162.36 136.258 159.012 135.592 155.64 135.662C152.268 135.732 148.951 136.536 145.919 138.019C147.377 141.222 151.897 142.971 154.914 144.14C158.218 145.419 161.561 146.589 164.943 147.649C163.947 146.837 162.952 146.027 161.956 145.217C164.203 145.575 166.451 145.934 168.699 146.293C168.772 144.947 168.613 143.598 168.228 142.306C169.512 143.35 171.233 143.7 172.635 144.587C175.263 146.248 176.356 149.454 177.788 152.217C178.12 152.978 178.638 153.642 179.294 154.149C179.018 149.962 177.618 145.928 175.245 142.473C172.871 139.018 169.611 136.27 165.808 134.519Z" fill="black"/>
  </g>
  <path d="M148.033 133.339C148.043 133.331 148.054 133.324 148.065 133.318C147.331 133.59 146.616 133.897 145.919 134.239C142.013 136.156 138.723 139.133 136.421 142.833C134.12 146.532 132.9 150.805 132.901 155.166C132.901 155.354 132.902 155.542 132.908 155.731C133.629 155.712 134.339 155.541 134.991 155.229C140.653 152.58 144.049 144.472 145.383 138.818C145.861 136.794 146.319 134.513 148.033 133.339Z" fill="#632652"/>
  <path d="M165.808 133.993C163.971 133.146 162.029 132.545 160.035 132.207C161.671 132.584 163.132 133.504 164.181 134.818C164.695 135.519 165.121 136.281 165.45 137.087C162.36 135.732 159.013 135.066 155.64 135.136C152.268 135.206 148.951 136.01 145.919 137.493C147.377 140.696 151.897 142.445 154.914 143.614C158.218 144.893 161.561 146.063 164.943 147.123C163.947 146.311 162.952 145.501 161.956 144.691C164.203 145.049 166.451 145.408 168.699 145.767C168.772 144.421 168.613 143.072 168.229 141.781C169.512 142.825 171.233 143.174 172.635 144.061C175.263 145.722 176.356 148.928 177.788 151.691C178.12 152.452 178.638 153.117 179.295 153.623C179.018 149.436 177.618 145.402 175.245 141.947C172.871 138.492 169.611 135.744 165.808 133.993Z" fill="#632652"/>
  <path opacity="0.1" d="M130.254 151.325C130.254 151.325 154.16 121.53 181.822 151.325L179.431 144.647C179.431 144.647 166.454 125.64 157.233 129.75C148.012 133.859 138.962 136.77 138.962 136.77L130.254 151.325Z" fill="black"/>
  <path d="M130.254 150.799C130.254 150.799 154.16 121.005 181.822 150.799L179.431 144.121C179.431 144.121 166.454 125.114 157.233 129.224C148.012 133.333 138.962 136.244 138.962 136.244L130.254 150.799Z" fill="#E14B5A"/>
  <path opacity="0.1" d="M110.617 215.012C110.617 215.012 105.495 228.711 112.667 241.039C119.838 253.368 106.349 258.505 106.349 258.505" fill="black"/>
  <path opacity="0.1" d="M193.604 202.683C193.604 202.683 202.483 213.984 196.677 224.087C190.872 234.19 191.213 258.505 191.213 258.505" fill="black"/>
  <path d="M102.763 268.608H201.458C203.632 268.608 205.717 269.474 207.254 271.015C208.791 272.557 209.654 274.647 209.654 276.827H94.5665C94.5665 274.647 95.43 272.557 96.9671 271.015C98.5042 269.474 100.589 268.608 102.763 268.608H102.763Z" fill="#535461"/>
  <path d="M117.609 212.101H186.612C191.229 212.101 195.656 213.94 198.921 217.214C202.186 220.488 204.02 224.928 204.02 229.558V270.492H100.201V229.558C100.201 224.928 102.035 220.488 105.3 217.214C108.565 213.94 112.992 212.101 117.609 212.101Z" fill="#535461"/>
  <path d="M152.025 250.029C155.42 250.029 158.172 247.269 158.172 243.865C158.172 240.46 155.42 237.7 152.025 237.7C148.63 237.7 145.878 240.46 145.878 243.865C145.878 247.269 148.63 250.029 152.025 250.029Z" fill="white"/>
  <path opacity="0.1" d="M131.62 137.355C131.62 137.355 155.116 113.806 180.456 136.926" stroke="black" stroke-miterlimit="10"/>
  <path d="M186.393 135.855H184.033V149.265H186.393V135.855Z" fill="#6A5C99"/>
  <path d="M180.887 144.532C183.042 144.532 185.11 145.391 186.634 146.919C188.158 148.448 189.015 150.521 189.015 152.683V153.209C189.015 155.371 188.158 157.444 186.634 158.973C185.11 160.501 183.042 161.36 180.887 161.36V144.532Z" fill="#FFD037"/>
  <path d="M181.149 143.743H181.149C180.135 143.743 179.314 144.567 179.314 145.584V160.308C179.314 161.325 180.135 162.149 181.149 162.149C182.163 162.149 182.985 161.325 182.985 160.308V145.584C182.985 144.567 182.163 143.743 181.149 143.743Z" fill="#6A5C99"/>
  <path d="M125.442 149.528H127.802V136.118H125.442V149.528Z" fill="#6A5C99"/>
  <path d="M130.948 161.623C128.792 161.623 126.725 160.764 125.201 159.235C123.676 157.707 122.82 155.634 122.82 153.472V152.946C122.82 150.784 123.676 148.711 125.201 147.182C126.725 145.654 128.792 144.795 130.948 144.795V161.623Z" fill="#FFD037"/>
  <path d="M130.686 162.412H130.686C131.7 162.412 132.521 161.588 132.521 160.571V145.847C132.521 144.83 131.7 144.006 130.686 144.006C129.672 144.006 128.851 144.83 128.851 145.847V160.571C128.851 161.588 129.672 162.412 130.686 162.412Z" fill="#6A5C99"/>
  <path d="M183.754 121.522C180.558 114.86 173.6 106.805 158.599 106.162L158.6 106.144L158.42 106.152L158.408 106.152L158.408 106.153L153.094 106.407L153.095 106.433C138.193 107.121 131.266 115.144 128.081 121.785C125.963 126.284 124.84 131.189 124.787 136.163L126.622 136.118L128.457 136.076C128.537 131.642 129.555 127.276 131.445 123.266C135.491 114.934 142.934 110.502 153.567 110.093L153.567 110.09L158.268 109.829L158.267 109.83C168.901 110.239 176.344 114.671 180.39 123.003C182.279 127.013 183.298 131.379 183.378 135.813L185.213 135.855L187.048 135.9C186.995 130.926 185.872 126.021 183.754 121.522Z" fill="#FFD037"/>
  <path d="M267.593 276.935H17.2894V344.328H267.593V276.935Z" fill="#D6D6E3"/>
  <path opacity="0.1" d="M267.593 281.471H17.2894V290.22H267.593V281.471Z" fill="black"/>
  <path d="M284.381 275.963H0.5V284.711H284.381V275.963Z" fill="#D6D6E3"/>
  <path d="M194.887 254.208C194.887 254.208 205.6 273.903 232.381 268.531C259.162 263.16 246.218 318.216 246.218 318.216C246.218 318.216 241.836 344.479 244.92 344.328" stroke="#535461" stroke-width="3" stroke-miterlimit="10"/>
  <defs>
    <linearGradient id="paint0_linear" x1="416.266" y1="219.749" x2="416.266" y2="32.1159" gradientUnits="userSpaceOnUse">
      <stop stop-color="#808080" stop-opacity="0.25"/>
      <stop offset="0.53514" stop-color="#808080" stop-opacity="0.12"/>
      <stop offset="1" stop-color="#808080" stop-opacity="0.1"/>
    </linearGradient>
    <linearGradient id="paint1_linear" x1="59950.4" y1="121680" x2="59950.4" y2="52656.4" gradientUnits="userSpaceOnUse">
      <stop stop-color="#808080" stop-opacity="0.25"/>
      <stop offset="0.53514" stop-color="#808080" stop-opacity="0.12"/>
      <stop offset="1" stop-color="#808080" stop-opacity="0.1"/>
    </linearGradient>
  </defs>
</svg>
