<svg width="659" height="530" viewBox="0 0 659 530" fill="none" xmlns="http://www.w3.org/2000/svg">
  <path opacity="0.1" d="M413.403 85.4461C385.968 103.534 350.382 102.357 319.202 92.9544C288.022 83.5521 259.373 66.7835 229.004 54.8717C203.495 44.88 176.86 38.3419 149.754 35.4177C111.034 31.2441 67.7974 36.3241 40.816 65.566C10.7718 98.1359 13.0754 156.883 45.5724 186.768C62.1 201.974 83.7474 209.435 102.624 221.306C121.501 233.178 138.963 252.895 137.36 275.813C135.874 297.025 118.574 313.307 100.671 323.521C86.8297 331.415 69.783 340.033 68.1153 356.382C66.5061 372.203 80.8338 384.602 94.5192 391.651C139.164 414.649 194.165 414.426 238.634 391.069C254.5 382.735 269.087 371.655 285.725 365.162C329.416 348.109 377.551 365.277 423.812 371.554C463.092 376.856 502.988 374.119 541.263 363.498C564.169 357.126 587.166 347.385 603.259 329.237C614.862 316.148 622.077 299.589 628.884 283.24C636.122 265.797 643.078 248.233 649.753 230.546C653.763 219.926 657.709 209.104 658.74 197.74C660.616 177.156 652.719 156.809 641.953 139.432C616.387 98.1764 573.358 69.1713 526.767 61.805C480.175 54.4388 430.865 68.8399 394.721 100.314" fill="#16161D"/>
  <path opacity="0.1" d="M88.0821 530C136.729 530 176.164 521.962 176.164 512.048C176.164 502.133 136.729 494.095 88.0821 494.095C39.4357 494.095 0 502.133 0 512.048C0 521.962 39.4357 530 88.0821 530Z" fill="#16161D"/>
  <path opacity="0.1" d="M349.752 492.506C451.726 492.506 534.391 484.468 534.391 474.553C534.391 464.639 451.726 456.601 349.752 456.601C247.779 456.601 165.113 464.639 165.113 474.553C165.113 484.468 247.779 492.506 349.752 492.506Z" fill="#16161D"/>
  <path d="M475.081 346.736C475.081 346.736 500.966 298.94 539.972 285.181C556.331 279.398 570.613 268.528 580.379 253.673C585.001 246.611 588.993 239.124 592.306 231.304" stroke="#535461" stroke-width="2" stroke-miterlimit="10"/>
  <path d="M616.789 222.47C612.344 226.961 591.657 231.608 591.657 231.608C591.657 231.608 596.738 210.199 601.176 205.701C603.31 203.543 606.178 202.356 609.15 202.403C612.123 202.449 614.955 203.724 617.026 205.948C619.096 208.172 620.234 211.162 620.19 214.26C620.145 217.358 618.922 220.312 616.789 222.47Z" fill="#16161D"/>
  <path d="M605.089 261.222C599.015 262.474 579.23 254.654 579.23 254.654C579.23 254.654 594.655 239.556 600.722 238.298C602.18 237.962 603.687 237.932 605.156 238.211C606.625 238.49 608.026 239.072 609.276 239.923C610.526 240.774 611.601 241.877 612.437 243.167C613.273 244.456 613.853 245.907 614.144 247.434C614.435 248.96 614.43 250.532 614.13 252.057C613.831 253.582 613.242 255.029 612.398 256.313C611.555 257.597 610.474 258.693 609.219 259.536C607.964 260.379 606.56 260.952 605.089 261.222Z" fill="#16161D"/>
  <path d="M562.456 303.154C556.616 301.043 543.314 283.882 543.314 283.882C543.314 283.882 563.942 278.958 569.789 281.068C571.213 281.543 572.532 282.309 573.667 283.323C574.803 284.336 575.733 285.576 576.402 286.97C577.072 288.363 577.467 289.882 577.565 291.438C577.662 292.993 577.461 294.553 576.972 296.025C576.483 297.498 575.716 298.854 574.717 300.013C573.718 301.173 572.507 302.112 571.154 302.776C569.802 303.441 568.336 303.816 566.842 303.881C565.348 303.946 563.857 303.699 562.456 303.154Z" fill="#16161D"/>
  <path d="M523.386 327.309C517.28 326.26 501.395 311.677 501.395 311.677C501.395 311.677 520.926 303.194 527.033 304.236C528.485 304.486 529.875 305.031 531.125 305.841C532.375 306.651 533.46 307.709 534.317 308.956C535.175 310.203 535.788 311.614 536.123 313.108C536.457 314.601 536.506 316.149 536.266 317.663C536.027 319.177 535.504 320.626 534.727 321.929C533.95 323.232 532.935 324.363 531.739 325.257C530.542 326.151 529.189 326.79 527.756 327.139C526.323 327.487 524.838 327.538 523.386 327.289V327.309Z" fill="#16161D"/>
  <path d="M561.976 237.946C561.976 244.399 573.176 263.116 573.176 263.116C573.176 263.116 584.389 244.406 584.396 237.953C584.325 234.903 583.113 232.002 581.019 229.87C578.924 227.739 576.113 226.546 573.186 226.546C570.259 226.546 567.447 227.739 565.353 229.87C563.258 232.002 562.046 234.903 561.976 237.953V237.946Z" fill="#16161D"/>
  <path d="M516.605 266.782C518.454 272.938 534.508 287.305 534.508 287.305C534.508 287.305 539.842 265.957 537.993 259.802C537.105 256.842 535.125 254.37 532.489 252.932C529.853 251.493 526.777 251.205 523.937 252.131C521.098 253.057 518.727 255.12 517.347 257.868C515.967 260.616 515.691 263.822 516.579 266.782H516.605Z" fill="#16161D"/>
  <path d="M476.191 301.138C477.015 307.537 490.519 324.522 490.519 324.522C490.519 324.522 499.234 304.425 498.41 298.026C498.014 294.955 496.464 292.174 494.1 290.294C491.737 288.414 488.754 287.589 485.808 288.002C482.861 288.414 480.193 290.03 478.39 292.494C476.586 294.957 475.795 298.067 476.191 301.138Z" fill="#16161D"/>
  <path opacity="0.25" d="M616.789 222.47C612.344 226.961 591.657 231.608 591.657 231.608C591.657 231.608 596.738 210.199 601.176 205.701C603.31 203.543 606.178 202.356 609.15 202.403C612.123 202.449 614.955 203.724 617.026 205.948C619.096 208.172 620.234 211.162 620.19 214.26C620.145 217.358 618.922 220.312 616.789 222.47Z" fill="black"/>
  <path opacity="0.25" d="M605.089 261.222C599.015 262.474 579.23 254.654 579.23 254.654C579.23 254.654 594.655 239.556 600.722 238.298C602.18 237.962 603.687 237.932 605.156 238.211C606.625 238.49 608.026 239.072 609.276 239.923C610.526 240.774 611.601 241.877 612.437 243.167C613.273 244.456 613.853 245.907 614.144 247.434C614.435 248.96 614.43 250.532 614.13 252.057C613.831 253.582 613.242 255.029 612.398 256.313C611.555 257.597 610.474 258.693 609.219 259.536C607.964 260.379 606.56 260.952 605.089 261.222Z" fill="black"/>
  <path opacity="0.25" d="M562.456 303.154C556.616 301.043 543.314 283.882 543.314 283.882C543.314 283.882 563.942 278.958 569.789 281.068C571.213 281.543 572.532 282.309 573.667 283.323C574.803 284.336 575.733 285.576 576.402 286.97C577.072 288.363 577.467 289.882 577.565 291.438C577.662 292.993 577.461 294.553 576.972 296.025C576.483 297.498 575.716 298.854 574.717 300.013C573.718 301.173 572.507 302.112 571.154 302.776C569.802 303.441 568.336 303.816 566.842 303.881C565.348 303.946 563.857 303.699 562.456 303.154Z" fill="black"/>
  <path opacity="0.25" d="M523.386 327.309C517.28 326.26 501.395 311.677 501.395 311.677C501.395 311.677 520.926 303.194 527.033 304.236C528.485 304.486 529.875 305.031 531.125 305.841C532.375 306.651 533.46 307.709 534.317 308.956C535.175 310.203 535.788 311.614 536.123 313.108C536.457 314.601 536.506 316.149 536.266 317.663C536.027 319.177 535.504 320.626 534.727 321.929C533.95 323.232 532.935 324.363 531.739 325.257C530.542 326.151 529.189 326.79 527.756 327.139C526.323 327.487 524.838 327.538 523.386 327.289V327.309Z" fill="black"/>
  <path opacity="0.25" d="M561.976 237.946C561.976 244.399 573.176 263.116 573.176 263.116C573.176 263.116 584.389 244.406 584.396 237.953C584.325 234.903 583.113 232.002 581.019 229.87C578.924 227.739 576.113 226.546 573.186 226.546C570.259 226.546 567.447 227.739 565.353 229.87C563.258 232.002 562.046 234.903 561.976 237.953V237.946Z" fill="black"/>
  <path opacity="0.25" d="M516.605 266.782C518.454 272.938 534.508 287.305 534.508 287.305C534.508 287.305 539.842 265.957 537.993 259.802C537.105 256.842 535.125 254.37 532.489 252.932C529.853 251.493 526.777 251.205 523.937 252.131C521.098 253.057 518.727 255.12 517.347 257.868C515.967 260.616 515.691 263.822 516.579 266.782H516.605Z" fill="black"/>
  <path opacity="0.25" d="M476.191 301.138C477.015 307.537 490.519 324.522 490.519 324.522C490.519 324.522 499.234 304.425 498.41 298.026C498.014 294.955 496.464 292.174 494.1 290.294C491.737 288.414 488.754 287.589 485.808 288.002C482.861 288.414 480.193 290.03 478.39 292.494C476.586 294.957 475.795 298.067 476.191 301.138Z" fill="black"/>
  <path d="M476.574 345.782C476.574 345.782 481.655 291.154 511.933 262.102C524.708 249.997 533.374 233.9 536.63 216.226C538.109 207.823 538.848 199.296 538.836 190.752" stroke="#535461" stroke-width="2" stroke-miterlimit="10"/>
  <path d="M557.817 172.333C555.5 178.319 538.395 191.273 538.395 191.273C538.395 191.273 534.709 169.553 537.026 163.539C538.223 160.802 540.387 158.652 543.068 157.536C545.749 156.421 548.739 156.427 551.415 157.553C554.092 158.678 556.249 160.837 557.436 163.579C558.624 166.321 558.751 169.435 557.791 172.272L557.817 172.333Z" fill="#16161D"/>
  <path d="M562.177 212.689C557.116 216.402 535.987 217.613 535.987 217.613C535.987 217.613 544.222 197.32 549.284 193.58C551.716 191.836 554.709 191.163 557.615 191.707C560.52 192.251 563.102 193.967 564.8 196.484C566.498 199.001 567.175 202.114 566.684 205.148C566.193 208.182 564.574 210.892 562.177 212.689Z" fill="#16161D"/>
  <path d="M539.524 269.021C533.359 269.563 514.535 259.491 514.535 259.491C514.535 259.491 531.478 246.28 537.649 245.739C539.115 245.61 540.592 245.784 541.994 246.251C543.396 246.717 544.696 247.467 545.82 248.457C546.944 249.447 547.87 250.659 548.545 252.022C549.22 253.385 549.631 254.874 549.754 256.403C549.877 257.931 549.71 259.47 549.263 260.932C548.815 262.393 548.096 263.749 547.146 264.921C546.196 266.092 545.034 267.058 543.726 267.761C542.419 268.465 540.991 268.893 539.524 269.021Z" fill="#16161D"/>
  <path d="M513.179 307.618C507.189 309.235 487.002 302.626 487.002 302.626C487.002 302.626 501.563 286.615 507.553 284.999C510.43 284.221 513.486 284.667 516.048 286.238C518.611 287.809 520.469 290.376 521.215 293.376C521.961 296.376 521.534 299.561 520.027 302.232C518.519 304.903 516.056 306.84 513.179 307.618Z" fill="#16161D"/>
  <path d="M513.711 209.604C516.222 215.503 533.736 227.868 533.736 227.868C533.736 227.868 536.714 206.033 534.209 200.134C533.005 197.301 530.77 195.082 527.996 193.966C525.222 192.85 522.136 192.929 519.418 194.185C516.699 195.441 514.571 197.771 513.501 200.662C512.43 203.554 512.506 206.77 513.711 209.604Z" fill="#16161D"/>
  <path d="M483.446 255.155C487.534 259.998 507.799 266.349 507.799 266.349C507.799 266.349 504.373 244.582 500.291 239.732C498.329 237.4 495.559 235.976 492.59 235.773C489.62 235.57 486.695 236.605 484.458 238.65C482.221 240.695 480.854 243.583 480.66 246.678C480.465 249.773 481.458 252.822 483.42 255.155H483.446Z" fill="#16161D"/>
  <path d="M459.858 303.634C463.103 309.133 482.044 318.962 482.044 318.962C482.044 318.962 482.2 296.904 478.962 291.404C477.406 288.764 474.908 286.875 472.016 286.155C469.125 285.434 466.077 285.94 463.544 287.562C461.011 289.184 459.199 291.788 458.508 294.802C457.817 297.816 458.302 300.993 459.858 303.634Z" fill="#16161D"/>
  <path d="M182.887 0V18.5205V477.191H512.14V18.5205V0H182.887Z" fill="url(#paint0_linear)"/>
  <path d="M509.253 4.18707H185.774V22.3762H509.253V4.18707Z" fill="#F6F7F9"/>
  <g opacity="0.2">
    <path opacity="0.2" d="M509.253 4.18707H185.774V22.3762H509.253V4.18707Z" fill="#16161D"/>
  </g>
  <path d="M509.253 22.3762H185.774V473.004H509.253V22.3762Z" fill="#F6F7F9"/>
  <path d="M194.282 16.3627C195.916 16.3627 197.241 14.9818 197.241 13.2782C197.241 11.5747 195.916 10.1937 194.282 10.1937C192.647 10.1937 191.323 11.5747 191.323 13.2782C191.323 14.9818 192.647 16.3627 194.282 16.3627Z" fill="#F6F7F9"/>
  <path d="M202.302 16.3627C203.936 16.3627 205.261 14.9818 205.261 13.2782C205.261 11.5747 203.936 10.1937 202.302 10.1937C200.668 10.1937 199.343 11.5747 199.343 13.2782C199.343 14.9818 200.668 16.3627 202.302 16.3627Z" fill="#F6F7F9"/>
  <path d="M210.322 16.3627C211.957 16.3627 213.281 14.9818 213.281 13.2782C213.281 11.5747 211.957 10.1937 210.322 10.1937C208.688 10.1937 207.363 11.5747 207.363 13.2782C207.363 14.9818 208.688 16.3627 210.322 16.3627Z" fill="#F6F7F9"/>
  <g opacity="0.2">
    <path opacity="0.2" d="M451.513 50.157H243.507V58.6461H451.513V50.157Z" fill="#16161D"/>
  </g>
  <path d="M451.513 50.157H423.876V58.6461H451.513V50.157Z" fill="#16161D"/>
  <g opacity="0.2">
    <path opacity="0.2" d="M344.594 223.64H213.697V321.377H344.594V223.64Z" fill="#16161D"/>
  </g>
  <g opacity="0.2">
    <path opacity="0.2" d="M344.594 96.8574H213.697V194.594H344.594V96.8574Z" fill="#16161D"/>
  </g>
  <g opacity="0.2">
    <path opacity="0.2" d="M344.594 348.772H213.697V446.509H344.594V348.772Z" fill="#16161D"/>
  </g>
  <g opacity="0.2">
    <path opacity="0.2" d="M481.33 223.64H350.434V321.377H481.33V223.64Z" fill="#16161D"/>
  </g>
  <g opacity="0.2">
    <path opacity="0.2" d="M481.33 96.8574H350.434V194.594H481.33V96.8574Z" fill="#16161D"/>
  </g>
  <g opacity="0.2">
    <path opacity="0.2" d="M481.33 348.772H350.434V446.509H481.33V348.772Z" fill="#16161D"/>
  </g>
  <path d="M604.499 429.192C604.499 429.192 609.132 435.503 602.364 445.027C595.596 454.551 590.035 462.614 592.273 468.54C592.273 468.54 602.481 450.845 610.793 450.601C619.105 450.358 613.642 439.832 604.499 429.192Z" fill="#3ACC6C"/>
  <path opacity="0.1" d="M604.499 429.192C604.903 429.8 605.222 430.465 605.446 431.167C613.557 441.097 617.873 450.364 610.079 450.601C602.824 450.818 594.11 464.346 592.027 467.762C592.095 468.026 592.178 468.286 592.273 468.54C592.273 468.54 602.481 450.845 610.793 450.601C619.105 450.358 613.642 439.832 604.499 429.192Z" fill="black"/>
  <path d="M613.11 437.235C613.11 439.454 612.87 441.253 612.578 441.253C612.286 441.253 612.039 439.454 612.039 437.235C612.039 435.016 612.337 436.058 612.636 436.058C612.934 436.058 613.11 435.009 613.11 437.235Z" fill="#FFD037"/>
  <path d="M616.062 439.887C614.193 440.949 612.558 441.591 612.422 441.321C612.286 441.05 613.681 439.968 615.549 438.906C617.418 437.844 616.685 438.622 616.847 438.906C617.009 439.19 617.931 438.845 616.062 439.887Z" fill="#FFD037"/>
  <path d="M580.048 429.192C580.048 429.192 575.415 435.503 582.183 445.027C588.951 454.551 594.512 462.614 592.273 468.54C592.273 468.54 582.066 450.845 573.754 450.601C565.441 450.358 570.892 439.832 580.048 429.192Z" fill="#3ACC6C"/>
  <path opacity="0.1" d="M580.048 429.192C579.644 429.8 579.325 430.465 579.101 431.167C570.989 441.097 566.674 450.364 574.467 450.601C581.729 450.818 590.437 464.346 592.52 467.762C592.454 468.027 592.372 468.287 592.273 468.54C592.273 468.54 582.066 450.845 573.754 450.601C565.441 450.358 570.892 439.832 580.048 429.192Z" fill="black"/>
  <path d="M571.437 437.235C571.437 439.454 571.677 441.253 571.976 441.253C572.274 441.253 572.508 439.454 572.508 437.235C572.508 435.016 572.209 436.058 571.917 436.058C571.625 436.058 571.437 435.009 571.437 437.235Z" fill="#FFD037"/>
  <path d="M568.484 439.887C570.36 440.949 571.989 441.591 572.131 441.321C572.274 441.05 570.866 439.968 568.997 438.906C567.128 437.844 567.862 438.622 567.699 438.906C567.537 439.19 566.616 438.845 568.484 439.887Z" fill="#FFD037"/>
  <path opacity="0.1" d="M592.273 516.823C619.008 516.823 640.681 513.356 640.681 509.078C640.681 504.801 619.008 501.333 592.273 501.333C565.538 501.333 543.865 504.801 543.865 509.078C543.865 513.356 565.538 516.823 592.273 516.823Z" fill="#16161D"/>
  <path d="M617.191 460.037L616.958 462.006L616.633 464.793L616.497 465.949L616.172 468.736L616.03 469.9L615.705 472.68L612 504.336C611.669 507.164 607.243 509.362 601.897 509.362H582.65C577.303 509.362 572.917 507.164 572.553 504.336L568.841 472.666L568.517 469.886L568.381 468.723L568.05 465.936L567.913 464.779L567.589 461.992L567.355 460.024C567.174 458.461 569.594 457.108 572.592 457.108H611.961C614.978 457.108 617.379 458.461 617.191 460.037Z" fill="#65617D"/>
  <path d="M616.958 462.006L616.633 464.786H567.914L567.589 462.006H616.958Z" fill="#9D9CB5"/>
  <path d="M616.497 465.949L616.172 468.736H568.381L568.05 465.949H616.497Z" fill="#9D9CB5"/>
  <path d="M616.03 469.893L615.705 472.68H568.841L568.517 469.893H616.03Z" fill="#9D9CB5"/>
  <path d="M383.898 115.743C383.898 115.743 382.71 112.652 390.718 113.423C398.725 114.194 421.716 116.859 431.657 114.526C441.598 112.192 447.523 111.448 446.932 114.526C446.342 117.603 429.73 124.557 429.73 124.557L408.218 126.877L392.353 124.246L383.833 118.99L383.898 115.743Z" fill="#16161D"/>
  <path opacity="0.1" d="M446.951 114.526C446.354 117.603 429.749 124.557 429.749 124.557L408.238 126.877L392.372 124.253L383.859 118.997L383.917 115.75C383.834 115.483 383.834 115.195 383.915 114.927C383.997 114.659 384.156 114.424 384.371 114.255C385.105 113.579 386.818 113.051 390.737 113.43C398.751 114.201 421.735 116.859 431.676 114.526C439.775 112.625 445.212 111.779 446.601 113.173C446.772 113.343 446.896 113.56 446.957 113.798C447.019 114.037 447.017 114.288 446.951 114.526Z" fill="black"/>
  <path d="M459.735 161.355C445.894 164.132 432.841 170.158 421.566 178.976C420.996 177.393 419.922 176.063 418.523 175.208C417.568 174.59 416.526 174.134 415.434 173.855C414.441 173.591 413.488 174.22 412.612 175.127C411.604 176.289 410.758 177.594 410.1 179.003C394.974 168.18 372.029 161.273 372.029 161.273V159.109C372.029 158.683 372.101 158.169 372.178 157.587C372.256 157.005 372.354 156.491 372.477 155.862C374.424 145.54 382.12 121.953 382.12 121.953H384.501H390.821L407.693 125.606L426.673 124.395L445.79 120.248L448.269 119.707C452.402 123.089 457.094 146.764 458.937 156.843C459.17 158.121 459.352 159.177 459.488 159.954C459.651 160.834 459.735 161.355 459.735 161.355Z" fill="#16161D"/>
  <path d="M375.17 156.883C375.669 146.974 383.223 125.497 384.501 121.933H382.12C382.12 121.933 373.969 146.96 372.315 156.728C372.311 156.753 372.311 156.778 372.315 156.802C372.269 157.066 372.224 157.323 372.191 157.567C372.113 158.148 372.062 158.662 372.042 159.089V161.253C372.042 161.253 394.987 168.166 410.113 178.982C410.771 177.574 411.617 176.269 412.625 175.106C406.843 169.627 384.916 160.699 375.17 156.883Z" fill="#16161D"/>
  <path d="M459.488 159.927C459.43 159.582 459.359 159.183 459.281 158.744C459.183 158.175 459.066 157.533 458.937 156.816C457.094 146.724 452.402 123.042 448.269 119.68L445.79 120.221C447.295 124.435 456.997 151.952 456.172 157.323C439.95 160.705 423.507 171.697 418.536 175.208C419.934 176.063 421.009 177.393 421.579 178.976C432.854 170.158 445.907 164.132 459.748 161.355C459.748 161.355 459.651 160.834 459.488 159.927Z" fill="#16161D"/>
  <path opacity="0.1" d="M375.767 156.261C376.26 146.351 383.82 124.875 385.098 121.317H382.71C382.71 121.317 374.56 146.345 372.905 156.106C372.905 156.106 372.905 156.16 372.905 156.18C372.858 156.451 372.819 156.708 372.788 156.951C372.711 157.533 372.659 158.047 372.639 158.473V160.638C372.639 160.638 395.578 167.544 410.71 178.367C411.363 176.957 412.207 175.651 413.215 174.491C407.433 169.025 385.513 160.076 375.767 156.261Z" fill="black"/>
  <path d="M375.17 156.883C375.669 146.974 383.223 125.497 384.501 121.933H382.12C382.12 121.933 373.969 146.96 372.315 156.728C372.311 156.753 372.311 156.778 372.315 156.802C372.269 157.066 372.224 157.323 372.191 157.567C372.113 158.148 372.062 158.662 372.042 159.089V161.253C372.042 161.253 394.987 168.166 410.113 178.982C410.771 177.574 411.617 176.269 412.625 175.106C406.843 169.627 384.916 160.699 375.17 156.883Z" fill="#16161D"/>
  <path opacity="0.1" d="M458.898 159.305L458.69 158.121C458.586 157.553 458.476 156.917 458.346 156.194C456.51 146.108 451.812 122.426 447.678 119.058L445.206 119.606C446.711 123.82 456.412 151.337 455.588 156.708C439.366 160.09 422.916 171.082 417.952 174.586C419.351 175.444 420.425 176.776 420.995 178.36C432.266 169.538 445.317 163.51 459.157 160.732C459.157 160.732 459.06 160.225 458.898 159.305Z" fill="black"/>
  <path d="M459.488 159.927C459.43 159.582 459.359 159.183 459.281 158.744C459.183 158.175 459.066 157.533 458.937 156.816C457.094 146.724 452.402 123.042 448.269 119.68L445.79 120.221C447.295 124.435 456.997 151.952 456.172 157.323C439.95 160.705 423.507 171.697 418.536 175.208C419.934 176.063 421.009 177.393 421.579 178.976C432.854 170.158 445.907 164.132 459.748 161.355C459.748 161.355 459.651 160.834 459.488 159.927Z" fill="#16161D"/>
  <path opacity="0.1" d="M380.809 134.162C380.809 134.162 395.863 144.038 399.38 129.576L402.729 130.51C402.729 130.51 403.832 146.534 379.809 137.389L380.809 134.162Z" fill="black"/>
  <path d="M380.809 132.924C380.809 132.924 395.863 142.8 399.38 128.338L402.729 129.272C402.729 129.272 403.832 145.296 379.809 136.151L380.809 132.924Z" fill="#16161D"/>
  <path opacity="0.1" d="M428.179 130.043C428.179 130.043 430.125 141.86 450.754 136.131L450.027 133.899C450.027 133.899 435.94 139.986 430.833 129.414L428.179 130.043Z" fill="black"/>
  <path d="M428.179 128.805C428.179 128.805 430.125 140.622 450.754 134.893L450.027 132.661C450.027 132.661 435.94 138.748 430.833 128.176L428.179 128.805Z" fill="#16161D"/>
  <path opacity="0.1" d="M414.448 129.887V154.55H418.108C418.108 154.55 423.169 152.649 423.052 141.562C422.936 130.476 422.163 127.493 422.163 127.493L414.448 129.887Z" fill="black"/>
  <path d="M413.857 129.272V153.934H417.517C417.517 153.934 422.579 152.033 422.462 140.947C422.345 129.86 421.566 126.877 421.566 126.877L413.857 129.272Z" fill="#16161D"/>
  <path opacity="0.1" d="M448.249 120.925C446.757 123.82 433.208 128.575 430.813 129.394L430.45 129.515C430.45 129.515 429.593 129.745 428.159 130.056C423.799 131.003 414.078 132.762 406.745 131.22C405.681 131.003 404.578 130.767 403.456 130.543L400.86 129.955C392.424 128 383.696 125.443 382.146 123.191C382.146 123.191 382.567 115.838 383.988 116.034C385.41 116.23 401.275 123.191 401.275 123.191L401.502 123.225C401.911 123.279 402.839 123.4 404.143 123.556C409.296 124.144 420.152 125.078 425.992 123.448C426.271 123.367 426.531 123.285 426.784 123.191C427.225 123.035 427.686 122.873 428.159 122.69C435.674 119.917 446.926 114.952 446.926 114.952C446.926 114.952 449.898 117.739 448.249 120.925Z" fill="black"/>
  <path opacity="0.1" d="M446.951 114.526C446.354 117.603 429.749 124.557 429.749 124.557L408.238 126.877L392.372 124.253L383.859 118.997L383.917 115.75C383.834 115.483 383.834 115.195 383.915 114.927C383.997 114.659 384.156 114.424 384.371 114.255C387.194 115.148 401.243 121.31 401.243 121.31L401.47 121.344C401.879 121.398 402.807 121.52 404.111 121.675C409.263 122.264 420.119 123.197 425.959 121.567C426.239 121.486 426.498 121.405 426.751 121.31C427.192 121.161 427.653 120.992 428.127 120.81C434.921 118.3 444.778 113.998 446.601 113.2C446.768 113.368 446.888 113.58 446.95 113.813C447.012 114.046 447.012 114.292 446.951 114.526Z" fill="black"/>
  <path d="M448.249 119.68C446.757 122.575 433.208 127.324 430.813 128.142L430.45 128.271C430.45 128.271 429.593 128.494 428.159 128.805C423.799 129.752 414.078 131.511 406.745 129.968C405.681 129.752 404.578 129.515 403.456 129.292L400.86 128.704C392.424 126.749 383.696 124.192 382.146 121.939C382.146 121.939 382.567 114.587 383.988 114.789C385.41 114.992 401.275 121.939 401.275 121.939L401.502 121.973C401.911 122.027 402.839 122.156 404.143 122.305C409.296 122.893 420.152 123.827 425.992 122.196C426.271 122.115 426.531 122.034 426.784 121.939C427.225 121.79 427.686 121.621 428.159 121.439C435.674 118.665 446.926 113.7 446.926 113.7C446.926 113.7 449.898 116.508 448.249 119.68Z" fill="#16161D"/>
  <path opacity="0.1" d="M417.018 129.968C418.329 129.968 419.393 128.86 419.393 127.493C419.393 126.125 418.329 125.017 417.018 125.017C415.706 125.017 414.643 126.125 414.643 127.493C414.643 128.86 415.706 129.968 417.018 129.968Z" fill="black"/>
  <path d="M417.018 129.346C418.329 129.346 419.393 128.238 419.393 126.87C419.393 125.503 418.329 124.395 417.018 124.395C415.706 124.395 414.643 125.503 414.643 126.87C414.643 128.238 415.706 129.346 417.018 129.346Z" fill="#16161D"/>
  <path opacity="0.1" d="M404.708 122.278L404.059 129.258L401.463 128.67L402.112 121.946C402.476 122.014 403.41 122.142 404.708 122.278Z" fill="black"/>
  <path d="M404.124 122.278L403.475 129.258L400.879 128.67L401.528 121.946C401.885 122.014 402.826 122.142 404.124 122.278Z" fill="#16161D"/>
  <path opacity="0.1" d="M430.236 128.142L429.872 128.271C429.872 128.271 429.022 128.494 427.582 128.805L425.369 122.183C425.648 122.102 425.914 122.02 426.167 121.926C426.608 121.777 427.069 121.608 427.543 121.425L430.236 128.142Z" fill="black"/>
  <path d="M430.833 128.142L430.469 128.271C430.469 128.271 429.613 128.494 428.179 128.805L425.966 122.183C426.245 122.102 426.505 122.02 426.758 121.926C427.199 121.777 427.66 121.608 428.133 121.425L430.833 128.142Z" fill="#16161D"/>
  <g opacity="0.5">
    <path opacity="0.5" d="M263.468 110.102C266.504 110.123 269.48 110.984 272.092 112.598C272.092 112.598 279.995 113.599 284.304 112.598C288.613 111.597 290.793 108.106 291.61 109.101C292.428 110.095 292.448 119.464 292.448 119.464L288.736 129.826L280.352 136.313L267.063 132.322L262.663 120.6L263.468 110.102Z" fill="#16161D"/>
    <path opacity="0.1" d="M292.448 119.478L288.736 129.841L280.352 136.328L267.063 132.337L262.663 120.601L263.5 110.116H263.695C266.664 110.195 269.566 111.056 272.13 112.619C272.13 112.619 280.034 113.62 284.343 112.619C288.437 111.672 290.592 108.466 291.481 109.007C291.533 109.032 291.58 109.069 291.617 109.115C292.448 110.103 292.448 119.478 292.448 119.478Z" fill="black"/>
    <path opacity="0.1" d="M292.448 119.477L288.736 129.84L280.352 136.327L267.063 132.336L262.663 120.6L263.5 110.115H263.695C264.435 113.423 267.588 123.867 277.633 124.604C287.964 125.355 290.897 112.544 291.507 109.013C291.559 109.038 291.605 109.075 291.643 109.121C292.448 110.102 292.448 119.477 292.448 119.477Z" fill="black"/>
    <path opacity="0.5" d="M263.468 110.103C263.468 110.103 265.622 124.707 277.601 125.58C289.58 126.452 291.611 109.102 291.611 109.102C291.611 109.102 308.975 115.034 313.024 125.613C317.074 136.193 320.091 144.682 320.091 144.682C320.091 144.682 318.793 147.049 317.333 147.3C315.873 147.55 305.958 154.666 305.958 154.666C305.958 154.666 305.841 174.891 306.918 176.136C307.995 177.38 307.638 182.751 304.4 182.501C301.162 182.251 278.775 177.008 259.626 181.378C259.626 181.378 251.606 184.375 251.839 179.504C252.073 174.634 252.436 155.539 252.436 155.539C252.436 155.539 240.341 150.046 239.627 150.046C238.913 150.046 237.109 149.058 239.023 145.805C240.938 142.551 243.339 131.451 243.339 131.451C243.339 131.451 248.141 115.514 263.468 110.103Z" fill="#16161D"/>
    <path opacity="0.1" d="M300.708 136.327C300.708 136.327 304.303 139.073 303.466 141.197C302.629 143.321 300.708 136.327 300.708 136.327Z" fill="black"/>
    <path opacity="0.1" d="M305.977 138.965C305.642 140.183 305.642 141.474 305.977 142.692V138.965Z" fill="black"/>
    <path opacity="0.1" d="M308.372 145.817C308.372 145.817 308.852 149.199 307.418 149.558L308.372 145.817Z" fill="black"/>
    <path opacity="0.1" d="M259.516 135.454C259.516 135.454 252.813 141.542 255.084 143.943L259.516 135.454Z" fill="black"/>
    <path opacity="0.1" d="M255.324 150.187C255.324 150.187 255.214 156.552 257.063 157.053L255.324 150.187Z" fill="black"/>
    <path opacity="0.1" d="M274.603 171.528C274.603 171.528 279.145 168.288 280.352 168.41L274.603 171.528Z" fill="black"/>
    <path opacity="0.1" d="M279.145 174.903C279.145 174.903 284.064 171.278 285.381 171.521L279.145 174.903Z" fill="black"/>
  </g>
  <g opacity="0.5">
    <path opacity="0.5" d="M385.955 232.975C385.955 232.975 425.135 234.909 444.615 233.719L444.187 239.076L409.717 243.811L399.517 240.537L385.955 232.975Z" fill="#16161D"/>
    <path opacity="0.1" d="M444.641 233.719L444.213 239.076L409.75 243.811L399.543 240.537L385.955 232.975C385.955 232.975 386.759 233.022 388.193 233.083C396.694 233.468 427.303 234.713 444.109 233.759L444.641 233.719Z" fill="black"/>
    <path opacity="0.5" d="M458.203 309.898C450.637 314.633 424.376 310.047 424.376 310.047L417.095 282.99L408.958 310.513C397.401 314.829 373.561 308.579 373.561 308.579L382.84 249.053L384.443 240.848L385.955 232.975L400.659 237.588C400.659 237.588 405.078 240.713 423.494 239.82C441.909 238.927 444.615 233.732 444.615 233.732C445.427 233.976 446.199 236.959 446.977 240.666C448.106 246.077 449.255 253.017 450.611 255.31C452.921 259.166 458.203 309.898 458.203 309.898Z" fill="#16161D"/>
    <path opacity="0.1" d="M447.003 241.247C430.586 250.643 416.453 250.386 416.453 250.386C412.955 250.832 384.443 241.437 384.443 241.437L385.955 233.57L400.659 238.183C400.659 238.183 405.078 241.308 423.494 240.415C441.91 239.522 444.615 234.327 444.615 234.327C445.453 234.564 446.225 237.54 447.003 241.247Z" fill="black"/>
    <path opacity="0.1" d="M444.641 233.719L444.213 239.076L409.75 243.811L399.543 240.537L385.955 232.975C385.955 232.975 386.759 233.022 388.193 233.083L400.652 236.993C400.652 236.993 405.071 240.118 423.487 239.225C437.951 238.548 442.727 235.166 444.109 233.752L444.641 233.719Z" fill="black"/>
    <path opacity="0.5" d="M447.003 240.652C430.586 250.048 416.453 249.791 416.453 249.791C412.955 250.237 384.443 240.841 384.443 240.841L385.955 232.975L400.659 237.588C400.659 237.588 405.078 240.713 423.494 239.82C441.91 238.927 444.615 233.732 444.615 233.732C445.453 233.962 446.225 236.945 447.003 240.652Z" fill="#16161D"/>
    <path opacity="0.1" d="M419.237 248.37C420.065 248.37 420.736 247.67 420.736 246.808C420.736 245.945 420.065 245.245 419.237 245.245C418.409 245.245 417.738 245.945 417.738 246.808C417.738 247.67 418.409 248.37 419.237 248.37Z" fill="black"/>
    <path opacity="0.5" d="M419.237 247.775C420.065 247.775 420.736 247.075 420.736 246.212C420.736 245.349 420.065 244.65 419.237 244.65C418.409 244.65 417.738 245.349 417.738 246.212C417.738 247.075 418.409 247.775 419.237 247.775Z" stroke="#16161D" stroke-miterlimit="10"/>
    <path opacity="0.1" d="M380.913 274.189C380.913 274.189 383.554 282.374 385.41 282.225C387.265 282.076 380.913 274.189 380.913 274.189Z" fill="black"/>
    <path opacity="0.1" d="M379.199 282.225C379.199 282.225 380.841 287.136 382.554 287.954L379.199 282.225Z" fill="black"/>
    <path opacity="0.1" d="M379.199 287.359C379.199 287.359 381.795 290.782 383.333 291.6L379.199 287.359Z" fill="black"/>
    <path opacity="0.1" d="M448.898 256.413C448.898 256.413 451.325 260.207 448.898 261.026V256.413Z" fill="black"/>
    <path opacity="0.1" d="M450.001 262.582C447.185 259.098 448.924 267.317 448.924 267.317C448.924 267.317 450.722 263.475 450.001 262.582Z" fill="black"/>
    <path opacity="0.1" d="M451.422 266.823C451.422 266.823 447.14 273.445 447.996 274.189L451.422 266.823Z" fill="black"/>
    <path opacity="0.1" d="M394.767 256.555C389.517 256.555 384.04 254.079 383.735 253.93L383.969 253.382C384.073 253.436 394.553 258.178 400.224 254.62C402.365 253.267 403.566 250.886 403.799 247.518L404.37 247.565C404.124 251.137 402.826 253.653 400.516 255.128C398.76 256.14 396.772 256.633 394.767 256.555Z" fill="black"/>
    <path opacity="0.5" d="M394.767 255.96C389.517 255.96 384.04 253.484 383.735 253.335L383.969 252.794C384.073 252.841 394.553 257.583 400.224 254.025C402.365 252.672 403.566 250.291 403.799 246.923L404.37 246.97C404.124 250.541 402.826 253.058 400.516 254.532C398.76 255.544 396.772 256.038 394.767 255.96Z" fill="#16161D"/>
    <path opacity="0.1" d="M437.867 257.001C436.522 257.021 435.191 256.723 433.973 256.129C429.717 253.991 429.029 248.756 428.996 248.532L429.567 248.458C429.567 248.512 430.249 253.606 434.226 255.594C437.769 257.373 442.798 256.271 449.151 252.212L449.443 252.719C444.92 255.574 441.046 257.001 437.867 257.001Z" fill="black"/>
    <path opacity="0.5" d="M437.867 256.406C436.522 256.426 435.191 256.128 433.973 255.533C429.717 253.396 429.029 248.16 428.996 247.937L429.567 247.863C429.567 247.917 430.249 253.01 434.226 254.999C437.769 256.778 442.798 255.675 449.151 251.617L449.443 252.124C444.92 254.979 441.046 256.406 437.867 256.406Z" fill="#16161D"/>
  </g>
  <path d="M266.777 233.888C266.777 233.888 274.142 244.609 279.145 243.567C284.148 242.526 284.641 241.383 289.086 233.888L292.733 242.634L288.437 253.457L283.35 260.322L272.565 258.557L269.074 246.273L266.777 233.888Z" fill="#16161D"/>
  <path opacity="0.1" d="M292.733 242.627L288.437 253.45L283.35 260.316L272.565 258.55L269.074 246.266L266.777 233.888C266.777 233.888 267.426 234.821 268.438 236.106C270.91 239.184 275.615 244.298 279.145 243.547C284.077 242.519 284.628 241.389 288.911 234.172L289.086 233.867L292.733 242.627Z" fill="black"/>
  <path opacity="0.1" d="M292.733 242.627L288.437 253.45L283.35 260.316L272.565 258.55L269.074 246.266L266.777 233.888C266.777 233.888 267.426 234.821 268.438 236.106C270.047 241.518 273.506 250.196 279.145 250.122C285.511 250.048 288.081 239.056 288.911 234.192L289.086 233.888L292.733 242.627Z" fill="black"/>
  <path d="M262.884 233.57C262.884 233.57 260.385 233.259 261.683 236.485C262.981 239.712 265.375 250.325 264.181 252.51C262.987 254.695 263.584 260.627 258.393 261.777L259.886 267.912C259.886 267.912 260.184 281.441 259.587 283.422C258.99 285.404 258.886 296.322 259.088 297.465C259.289 298.608 259.191 306.103 258.393 306.421C257.595 306.739 257.095 310.371 259.691 310.994C262.287 311.616 273.363 311.934 275.362 312.556C277.361 313.178 291.533 312.556 291.533 312.556C291.533 312.556 297.522 311.724 299.021 311.203C300.52 310.682 300.818 309.438 300.319 307.043C299.819 304.649 297.522 287.271 298.022 285.086C298.521 282.902 298.625 261.567 298.625 261.567C298.625 261.567 294.732 260.214 294.732 256.257C294.732 252.3 293.233 241.687 296.328 235.031C296.328 235.031 293.83 233.245 293.434 233.563C293.038 233.881 289.268 232.738 289.268 232.738C289.268 232.738 287.321 250.846 279.178 250.947C271.034 251.049 267.406 232.738 267.406 232.738C267.406 232.738 267.478 231.074 262.884 233.57Z" fill="#16161D"/>
  <path opacity="0.1" d="M274.661 291.641C274.661 291.641 276.342 295.909 279.145 296.532C281.948 297.154 274.661 291.641 274.661 291.641Z" fill="black"/>
  <path opacity="0.1" d="M272.066 294.969C272.066 294.969 277.49 299.548 277.257 300.489L272.066 294.969Z" fill="black"/>
  <path opacity="0.1" d="M261.184 267.912C261.184 267.912 265.479 270.929 265.479 273.114L261.184 267.912Z" fill="black"/>
  <path opacity="0.1" d="M264.078 277.382C264.078 277.382 262.884 273.012 262.085 272.079L264.078 277.382Z" fill="black"/>
  <path opacity="0.1" d="M262.085 279.046C262.085 279.046 263.883 282.793 264.078 283.835L262.085 279.046Z" fill="black"/>
  <path opacity="0.1" d="M296.925 271.45C296.925 271.45 291.338 273.222 291.831 275.407L296.925 271.45Z" fill="black"/>
  <path opacity="0.1" d="M291.805 291.641C291.805 291.641 299.125 282.793 296.925 283.003C294.725 283.213 291.805 291.641 291.805 291.641Z" fill="black"/>
  <g opacity="0.1">
    <path opacity="0.1" d="M294.725 256.257C294.725 254.431 294.407 251.184 294.368 247.565C294.329 251.718 294.725 255.56 294.725 257.61C294.725 261.479 298.443 262.852 298.619 262.913C298.619 262.068 298.619 261.56 298.619 261.56C298.619 261.56 294.725 260.214 294.725 256.257Z" fill="black"/>
    <path opacity="0.1" d="M300.299 308.396C300.376 308.751 300.434 309.11 300.475 309.472C300.558 308.658 300.498 307.835 300.299 307.043C299.871 305.014 298.132 291.986 297.95 286.899C297.756 290.376 299.845 306.123 300.299 308.396Z" fill="black"/>
    <path opacity="0.1" d="M258.997 294.901C258.997 291.188 259.198 286.067 259.587 284.755C259.905 283.7 259.97 279.384 259.964 275.569C259.964 278.992 259.866 282.469 259.587 283.402C259.146 284.877 258.977 291.222 258.997 294.901Z" fill="black"/>
    <path opacity="0.1" d="M262.884 234.923C267.471 232.427 267.374 234.091 267.374 234.091C267.374 234.091 270.969 252.408 279.145 252.3C287.321 252.192 289.268 234.091 289.268 234.091C289.268 234.091 293.064 235.234 293.46 234.916C293.856 234.598 295.186 235.592 295.919 236.079C296.056 235.721 296.198 235.369 296.361 235.031C296.361 235.031 293.862 233.245 293.46 233.563C293.058 233.881 289.268 232.738 289.268 232.738C289.268 232.738 287.321 250.846 279.178 250.947C271.034 251.049 267.406 232.738 267.406 232.738C267.406 232.738 267.504 231.074 262.916 233.57C262.916 233.57 260.885 233.326 261.45 235.66C261.774 234.787 262.884 234.923 262.884 234.923Z" fill="black"/>
    <path opacity="0.1" d="M258.387 307.774C259.036 307.523 259.211 302.89 259.172 300.333C259.139 302.903 258.912 306.211 258.387 306.421C257.861 306.631 257.608 307.774 257.809 308.876C257.913 308.295 258.121 307.868 258.387 307.774Z" fill="black"/>
    <path opacity="0.1" d="M264.181 253.863C264.499 252.976 264.603 252.021 264.486 251.083C264.48 251.575 264.377 252.061 264.181 252.51C262.981 254.695 263.578 260.627 258.387 261.777L258.698 263.048C263.552 261.736 263.007 256.007 264.181 253.863Z" fill="black"/>
  </g>
  <path d="M293.019 360.812C290.566 365.466 265.667 360.812 265.667 360.812L265.732 360.346L266.225 356.74H292.461L292.96 360.339L293.019 360.812Z" fill="#16161D"/>
  <path opacity="0.1" d="M293.019 360.812C290.566 365.466 265.667 360.812 265.667 360.812L265.732 360.346C266.926 360.346 284.94 359.899 292.986 360.346L293.019 360.812Z" fill="black"/>
  <path d="M265.667 360.812C265.667 360.812 261.203 361.976 254.279 381.525C247.355 401.073 244.902 426.331 244.902 426.331C244.902 426.331 241.009 433.203 257.627 433.663C257.627 433.663 256.291 438.202 265.667 437.506C275.044 436.809 273.694 436.816 273.694 436.816C273.694 436.816 279.723 432.858 282.403 433.555C285.083 434.252 286.757 434.489 289.657 437.046C292.558 439.602 301.831 438.561 301.941 436.586C302.016 435.615 302.016 434.64 301.941 433.67C301.941 433.67 316.12 434.604 313.44 423.896C310.76 413.188 308.527 395.614 308.527 395.614C308.527 395.614 301.273 361.286 293.006 360.819C284.739 360.352 265.667 360.812 265.667 360.812Z" fill="#16161D"/>
  <path opacity="0.1" d="M262.68 374.324L257.428 433.678L257.874 433.721L263.126 374.367L262.68 374.324Z" fill="black"/>
  <path opacity="0.1" d="M273.686 374.279L273.456 436.774L273.903 436.775L274.134 374.281L273.686 374.279Z" fill="black"/>
  <path opacity="0.1" d="M287.697 374.266L287.249 374.283L289.487 437.012L289.935 436.995L287.697 374.266Z" fill="black"/>
  <path opacity="0.1" d="M301.727 433.67C300.948 397.921 295.108 373.448 295.037 373.232L295.471 373.117C295.53 373.36 301.402 397.88 302.175 433.69L301.727 433.67Z" fill="black"/>
  <path opacity="0.1" d="M266.446 364.303C266.446 364.303 265.667 364.769 266.446 367.008V364.303Z" fill="black"/>
  <path opacity="0.1" d="M268.685 364.303C268.685 364.303 266.563 365.696 268.685 368.03V364.303Z" fill="black"/>
  <path opacity="0.1" d="M288.554 364.303C288.554 364.303 291.455 367.211 290.786 368.03L288.554 364.303Z" fill="black"/>
  <path opacity="0.1" d="M290.89 363.606C290.89 363.606 291.344 367.096 293.019 368.03L290.89 363.606Z" fill="black"/>
  <g opacity="0.5">
    <path opacity="0.5" d="M409.393 358.026C409.393 358.026 420.346 353.48 425.083 359.027C429.82 364.574 421.839 371.324 421.839 371.324L418.491 378.292L410.613 377.392L408.757 367.76L409.393 358.026Z" fill="#16161D"/>
    <path opacity="0.1" d="M421.839 371.29L418.491 378.257L410.613 377.385L408.757 367.759L409.406 358.025L409.581 357.958C410.97 357.423 420.346 354.014 424.83 358.709C424.924 358.798 425.013 358.893 425.096 358.993C429.82 364.512 421.839 371.29 421.839 371.29Z" fill="black"/>
    <path opacity="0.1" d="M421.839 371.29L418.491 378.257L410.613 377.385L408.757 367.759L409.406 358.025L409.581 357.958C410.937 365.703 414.558 368.97 415.168 369.457L415.259 369.525L417.485 369.335C421.813 366.846 424.097 360.927 424.83 358.688C424.924 358.778 425.013 358.873 425.096 358.972C429.82 364.512 421.839 371.29 421.839 371.29Z" fill="black"/>
    <path opacity="0.5" d="M440.969 397.82C440.969 397.82 438.555 429.869 439.21 433.738C439.865 437.607 437.815 437.898 437.815 437.898C437.815 437.898 429.081 439.927 427.432 438.574C425.784 437.221 422.974 436.958 422.974 436.958C422.974 436.958 416.485 438.507 413.591 437.35C410.697 436.193 405.882 436.674 405.882 436.674C405.882 436.674 402.171 439 401.145 438.513C400.12 438.026 398.822 438.223 395.85 437.357C392.878 436.491 391.204 435.706 392.781 430.383C394.358 425.059 392.976 408.21 392.878 406.173C392.781 404.137 391.86 399.206 390.555 393.321C389.251 387.436 392.781 388.674 392.781 388.674C401.055 384.223 397.615 375.504 396.318 371.635C395.02 367.766 397.057 367.577 398.076 367.577C399.095 367.577 403.001 364.093 403.001 364.093L404.585 362.612L409.412 358.093C410.613 366.555 414.506 370.106 415.155 370.634L415.246 370.708L417.472 370.512C422.858 367.421 425.083 359.013 425.083 359.013C425.732 360.163 427.179 361.475 428.795 362.693C430.91 364.252 433.114 365.675 435.395 366.954C439.288 369.376 436.42 371.798 436.42 371.798C431.683 388.641 438.366 389.385 438.366 389.385C443.292 390.142 440.969 397.82 440.969 397.82Z" fill="#16161D"/>
    <path opacity="0.1" d="M404.468 367.61C404.468 367.61 403.073 368.388 403.073 369.254L404.468 367.61Z" fill="black"/>
    <path opacity="0.1" d="M405.305 369.254C405.305 369.254 403.449 371.283 403.774 371.872L405.305 369.254Z" fill="black"/>
    <path opacity="0.1" d="M405.305 371.879C405.305 371.879 403.91 373.428 404.468 374.3L405.305 371.879Z" fill="black"/>
    <path opacity="0.1" d="M414.597 371.798L408.757 377.676C408.543 371.141 405.513 365.913 404.02 363.707L408.848 359.189C410.029 367.719 413.955 371.27 414.597 371.798Z" fill="black"/>
    <path opacity="0.5" d="M415.155 370.634L409.315 376.519C409.107 369.978 406.071 364.756 404.585 362.544L409.412 358.025C410.613 366.555 414.506 370.106 415.155 370.634Z" fill="#16161D"/>
    <path opacity="0.1" d="M429.353 363.836C427.017 367.637 422.676 377.676 422.676 377.676L418.03 371.676C423.416 368.578 425.642 360.177 425.642 360.177C426.29 361.299 427.737 362.612 429.353 363.836Z" fill="black"/>
    <path opacity="0.5" d="M428.782 362.673C426.453 366.481 422.105 376.519 422.105 376.519L417.472 370.526C422.858 367.435 425.083 359.027 425.083 359.027C425.732 360.143 427.179 361.455 428.782 362.673Z" fill="#16161D"/>
    <path opacity="0.1" d="M425.369 424.735C425.369 424.735 424.376 433.528 423.805 434.029L425.369 424.735Z" fill="black"/>
    <path opacity="0.1" d="M433.539 426.284C433.539 426.284 434.655 432.574 434.188 434.029L433.539 426.284Z" fill="black"/>
    <path opacity="0.1" d="M409.763 426.669C409.763 426.669 408.744 432.574 409.763 433.251V426.669Z" fill="black"/>
    <path opacity="0.1" d="M403.735 425.797C403.735 425.797 402.891 432.771 403.086 434.029L403.735 425.797Z" fill="black"/>
    <path opacity="0.1" d="M434.934 391.813C434.934 391.813 432.338 393.944 432.52 394.519L434.934 391.813Z" fill="black"/>
    <path opacity="0.1" d="M436.79 393.173C436.79 393.173 431.819 397.529 434.304 397.042C436.79 396.555 436.79 393.173 436.79 393.173Z" fill="black"/>
  </g>
  <path d="M161.434 268.385L161.467 268.338L161.408 268.291L161.058 268.047L161.129 268.101C160.878 267.95 160.581 267.902 160.298 267.967C160.014 268.032 159.765 268.206 159.598 268.453L159.455 268.663L151.571 280.487L150.195 282.59C146.036 281.285 139.281 286.778 135.861 289.93C135.647 290.126 135.446 290.308 135.264 290.484C134.991 289.848 134.829 289.443 134.829 289.443C134.66 291.377 128.106 294.279 126.575 295.334C125.879 295.773 125.099 296.045 124.291 296.132C124.512 288.78 119.054 281.041 119.054 281.041L105.719 263.353C105.229 260.154 105.705 256.875 107.082 253.971C107.192 253.741 107.303 253.511 107.426 253.294H107.491C106.986 254.781 106.704 256.339 106.654 257.914C106.686 259.112 107.75 264.915 109.249 264.679C109.398 264.694 109.548 264.668 109.683 264.601C109.818 264.534 109.933 264.43 110.015 264.3C111.209 262.852 111.313 260.39 111.254 258.111C111.234 258.781 111.162 259.448 111.04 260.106C111.138 258.212 110.93 256.21 110.93 254.783C110.93 254.214 110.93 253.653 110.969 253.085H111.131C111.131 253.301 111.131 253.531 111.131 253.761C111.131 253.524 111.131 253.294 111.131 253.085H111.3C114.291 252.514 117.093 251.159 119.444 249.148C120.024 249.124 120.594 248.979 121.119 248.722C121.645 248.465 122.117 248.102 122.506 247.653C122.649 248.148 122.67 248.671 122.57 249.177C122.469 249.682 122.248 250.154 121.929 250.548C123.713 250.46 125.225 249.013 125.913 247.315C126.503 245.581 126.676 243.723 126.419 241.903C126.163 240.083 126.035 238.244 126.036 236.404C126.159 235.411 126.212 234.409 126.192 233.408C126.163 233.102 126.111 232.798 126.036 232.501H126.088C126.259 232.505 126.429 232.473 126.589 232.408C126.748 232.343 126.893 232.246 127.016 232.122C127.756 231.527 127.996 230.364 128.184 229.471C128.697 227.416 128.928 225.296 128.872 223.173C128.833 223.816 128.755 224.465 128.664 225.108C128.827 222.673 128.502 220.305 126.958 218.54C125.894 217.329 124.408 216.619 122.98 215.908C122.47 215.718 122.02 215.383 121.682 214.941C121.43 214.42 121.293 213.847 121.28 213.264C120.78 209.706 117.568 207.23 114.369 205.823C110.255 203.956 105.285 203.158 101.359 205.376C99.4119 206.452 97.9195 208.136 96.1674 209.509C93.9741 211.248 91.4434 212.465 89.1009 213.981C86.7583 215.496 84.5586 217.417 83.41 220.028C81.6904 224.086 82.9817 228.686 83.1959 233.09C83.5398 240.023 80.8014 247.295 75.3766 251.353C74.7264 251.769 74.1456 252.292 73.657 252.902C73.4186 253.211 73.2771 253.589 73.2515 253.985C73.226 254.38 73.3177 254.775 73.5142 255.114C73.7933 255.493 74.2345 255.709 74.5395 256.068C75.1559 256.798 75.0327 257.914 74.7926 258.848C74.0047 261.902 72.4345 264.675 70.2502 266.87C70.3476 267.587 71.1976 267.871 71.892 267.98C73.7289 268.261 75.5833 268.401 77.4401 268.399H78.2382C78.1539 268.622 78.063 268.859 77.9722 269.109C76.9664 271.869 75.6621 276.117 76.0969 278.715C76.7458 282.814 78.8223 301.557 77.797 304.845C76.7717 308.132 79.4452 331.97 79.4452 331.97C79.4452 331.97 79.8021 333.809 80.4186 336.556C78.8158 340.492 76.9859 344.862 76.0709 346.614C74.228 350.125 75.1365 368.05 81.4892 376.018C81.4892 376.018 84.0849 379.887 83.436 381.288C82.7871 382.688 83.5528 385.157 83.5528 385.157L84.5586 408.351C84.537 410.722 84.381 413.089 84.0913 415.44C81.3789 418.938 77.2 424.038 75.2338 424.87C72.1905 426.162 49.4918 454.863 49.4918 454.863C49.4918 454.863 49.6735 455.208 50.0304 455.769L49.3815 456.54L45.0274 461.803L44.6835 462.215C43.8658 462.053 38.4215 461.025 34.1063 460.7H33.6781V460.619C32.1657 460.438 30.6365 460.482 29.1357 460.747C28.8519 460.802 28.5899 460.943 28.383 461.153C26.91 463.034 26.1183 492.553 26.1183 492.553C26.1183 492.553 27.6887 507.333 32.6074 508.158C32.8581 508.249 33.1207 508.299 33.3861 508.307H33.6002C37.1043 508.036 38.7136 505.946 39.4403 504.512C39.6553 504.084 39.8188 503.629 39.927 503.159C39.927 503.159 39.356 500.528 40.8874 496.896C42.4188 493.263 45.2805 486.871 45.2805 486.871C45.2805 486.871 50.4717 481.182 49.5438 478.422C49.6865 478.199 49.8552 477.956 50.0369 477.678C51.9836 474.783 55.929 469.067 59.1216 465.252C59.3292 464.995 59.5369 464.759 59.7705 464.522C60.9319 465.033 62.1473 465.398 63.3913 465.611C63.3913 465.611 68.2711 463.622 70.0815 459.171C70.8537 457.277 73.8841 453.922 77.1091 450.696L77.0053 451.555L76.895 479.789C77.9437 480.54 79.0609 481.181 80.2304 481.703V482.38C80.2532 486.402 80.0191 490.423 79.5296 494.413L79.4322 495.042C79.0299 494.745 78.6795 494.643 78.4589 494.873C77.4596 495.928 76.8366 502.666 76.7782 505.77C76.7782 505.872 76.7782 505.973 76.7782 506.081C76.616 509.18 74.9223 513.684 80.0227 513.914C83.8383 514.084 100.288 514.341 109.087 514.476C113.828 514.569 118.44 512.865 122.065 509.68C124.862 507.184 126.556 504.215 122.747 502.03C122.513 501.894 122.266 501.766 121.994 501.637L113.558 500.285L99.1459 492.614C99.1459 492.614 99.0615 487.974 97.329 488.745C96.8142 488.862 96.3212 489.065 95.8689 489.347C95.7846 489.178 95.6937 488.995 95.6094 488.806C94.4355 486.381 93.8264 483.702 93.8314 480.986C93.8314 480.743 93.8314 480.492 93.8638 480.242C94.2859 479.841 94.6846 479.414 95.0578 478.964C95.0578 478.964 94.9475 468.418 96.0831 466.429C97.2187 464.441 100.736 444.283 100.736 444.283C100.736 444.283 100.846 440.536 103.117 438.31C105.388 436.085 104.59 429.639 104.59 429.639C104.59 429.639 107.77 427.88 108.789 422.144C109.807 416.408 113.104 403.88 113.104 403.88C113.104 403.88 119.911 385.367 119.463 373.658C119.015 361.949 120.112 355.847 120.112 355.847L121.527 328.628V328.209C122.091 328.655 122.474 329.02 122.474 329.02C122.474 329.02 122.474 328.912 122.474 328.723C122.682 328.905 122.798 329.02 122.798 329.02C122.798 329.02 123.525 316.669 123.279 311.771C127.25 310.364 133.298 308.051 133.661 306.874C134.167 305.122 140.981 299.582 140.981 299.582C140.833 299.557 140.692 299.502 140.565 299.42C140.78 299.318 141 299.197 141.214 299.068C145.679 296.579 153.972 289.301 152.577 284.863L161.661 271.274C161.946 270.838 162.078 270.313 162.037 269.788C161.996 269.262 161.783 268.767 161.434 268.385Z" fill="url(#paint1_linear)"/>
  <path d="M140.299 301.206C139.636 301.639 138.897 301.931 138.125 302.065C135.29 302.153 132.934 294.151 132.934 294.151C132.934 294.151 133.739 293.298 135.024 292.121C138.826 288.597 146.801 282.09 150.539 285.729C154.757 289.794 145.211 298.453 140.299 301.206Z" fill="#ECB4B6"/>
  <path d="M97.1927 492.046L86.7259 503.822C86.7259 503.822 77.0442 503.937 78.939 498.37C79.3176 497.164 79.587 495.923 79.7437 494.664C80.2206 490.71 80.4482 486.729 80.425 482.745C80.425 480.134 80.3861 478.301 80.3861 478.301C80.3861 478.301 95.6288 471.34 94.0714 478.592C93.8777 479.498 93.7733 480.423 93.76 481.351C93.7538 484.039 94.3493 486.691 95.499 489.096C95.9695 490.135 96.5368 491.123 97.1927 492.046Z" fill="#ECB4B6"/>
  <path opacity="0.1" d="M97.1927 492.046L86.7259 503.822C86.7259 503.822 77.0442 503.937 78.939 498.37C79.3176 497.164 79.587 495.923 79.7437 494.664C81.1258 495.78 83.1115 499.067 83.1115 499.067C83.1115 499.067 89.7887 501.096 91.6251 495.009C92.6503 491.626 94.2726 489.915 95.5185 489.097C95.9828 490.134 96.5435 491.122 97.1927 492.046Z" fill="black"/>
  <path d="M121.475 509.782C117.926 512.933 113.391 514.618 108.73 514.517C100.1 514.388 83.9746 514.124 80.2304 513.962C75.2209 513.732 76.882 509.274 77.0443 506.203C77.0443 506.095 77.0443 506 77.0443 505.899C77.1027 502.821 77.6932 496.152 78.6925 495.11C79.6918 494.068 83.1115 499.75 83.1115 499.75C83.1115 499.75 89.7887 501.779 91.6251 495.692C93.4615 489.604 97.1927 489.015 97.1927 489.015C98.8863 488.251 98.9707 492.844 98.9707 492.844L113.104 500.44L121.397 501.793C121.663 501.922 121.903 502.05 122.13 502.179C125.881 504.37 124.22 507.306 121.475 509.782Z" fill="#C17174"/>
  <path opacity="0.25" d="M95.3628 498.073C95.6997 498.073 95.9728 497.788 95.9728 497.437C95.9728 497.086 95.6997 496.801 95.3628 496.801C95.0259 496.801 94.7528 497.086 94.7528 497.437C94.7528 497.788 95.0259 498.073 95.3628 498.073Z" fill="white"/>
  <path opacity="0.25" d="M101.099 501.035C101.436 501.035 101.709 500.751 101.709 500.4C101.709 500.048 101.436 499.764 101.099 499.764C100.762 499.764 100.489 500.048 100.489 500.4C100.489 500.751 100.762 501.035 101.099 501.035Z" fill="white"/>
  <path opacity="0.25" d="M104.045 502.409C104.382 502.409 104.655 502.124 104.655 501.773C104.655 501.422 104.382 501.137 104.045 501.137C103.708 501.137 103.435 501.422 103.435 501.773C103.435 502.124 103.708 502.409 104.045 502.409Z" fill="white"/>
  <path opacity="0.25" d="M110.164 504.857C110.501 504.857 110.774 504.573 110.774 504.221C110.774 503.87 110.501 503.586 110.164 503.586C109.827 503.586 109.554 503.87 109.554 504.221C109.554 504.573 109.827 504.857 110.164 504.857Z" fill="white"/>
  <path opacity="0.25" d="M107.05 503.816C107.386 503.816 107.66 503.531 107.66 503.18C107.66 502.829 107.386 502.544 107.05 502.544C106.713 502.544 106.44 502.829 106.44 503.18C106.44 503.531 106.713 503.816 107.05 503.816Z" fill="white"/>
  <path d="M121.475 509.782C117.926 512.933 113.391 514.618 108.73 514.517C100.1 514.388 83.9746 514.124 80.2304 513.962C75.2209 513.732 76.882 509.274 77.0443 506.203L108.497 508.233C108.497 508.233 121.377 506.203 122.124 502.199C125.881 504.37 124.22 507.306 121.475 509.782Z" fill="#C17174"/>
  <path opacity="0.25" d="M121.475 509.782C117.926 512.933 113.391 514.618 108.73 514.517C100.1 514.388 83.9746 514.124 80.2304 513.962C75.2209 513.732 76.882 509.274 77.0443 506.203L108.497 508.233C108.497 508.233 121.377 506.203 122.124 502.199C125.881 504.37 124.22 507.306 121.475 509.782Z" fill="white"/>
  <path d="M62.9241 462.466C61.7668 463.45 60.71 464.556 59.7705 465.767C56.6492 469.541 52.7883 475.237 50.874 478.064C50.1342 479.173 49.6865 479.87 49.6865 479.87L45.5076 479.227C45.5076 479.227 41.0042 472.037 41.0626 471.868C41.121 471.699 44.6315 463.974 44.6315 463.974L45.9877 462.317L50.264 457.108L52.2107 454.754C52.2107 454.754 66.6943 459.625 62.9241 462.466Z" fill="#ECB4B6"/>
  <path opacity="0.1" d="M50.874 478.078C50.1342 479.187 49.6865 479.884 49.6865 479.884L45.5076 479.241C45.5076 479.241 41.0042 472.051 41.0626 471.882C41.121 471.712 44.6315 463.974 44.6315 463.974L45.9878 462.317L46.429 462.405H47.4932C43.762 466.463 47.7658 475.392 47.7658 475.392C47.7658 475.392 49.4918 475.561 50.874 478.078Z" fill="black"/>
  <path d="M46.2084 487.169C46.2084 487.169 43.4246 493.432 41.9191 497.031C40.4137 500.63 40.9717 503.234 40.9717 503.234C40.8657 503.703 40.7067 504.157 40.498 504.587C39.9645 505.693 39.1525 506.627 38.149 507.29C37.1455 507.952 35.9881 508.318 34.8007 508.348H34.5281C29.4537 508.212 27.8444 492.857 27.8444 492.857C27.8444 492.857 28.6231 463.629 30.0702 461.742C30.2692 461.532 30.525 461.39 30.8034 461.336C32.28 461.069 33.7859 461.026 35.2744 461.207C39.8621 461.552 45.7606 462.729 45.7606 462.729H46.8183C43.0871 466.788 47.0909 475.724 47.0909 475.724C47.0909 475.724 48.8754 475.893 50.264 478.504C51.6527 481.115 46.2084 487.169 46.2084 487.169Z" fill="#C17174"/>
  <path opacity="0.25" d="M40.0827 479.106C40.4196 479.106 40.6927 478.821 40.6927 478.47C40.6927 478.119 40.4196 477.834 40.0827 477.834C39.7459 477.834 39.4728 478.119 39.4728 478.47C39.4728 478.821 39.7459 479.106 40.0827 479.106Z" fill="white"/>
  <path opacity="0.25" d="M39.7778 484.172C40.1146 484.172 40.3877 483.887 40.3877 483.536C40.3877 483.185 40.1146 482.9 39.7778 482.9C39.4409 482.9 39.1678 483.185 39.1678 483.536C39.1678 483.887 39.4409 484.172 39.7778 484.172Z" fill="white"/>
  <path d="M40.0892 504.458C39.5556 505.564 38.7437 506.499 37.7402 507.161C36.7367 507.824 35.5793 508.189 34.3919 508.219H34.1258C29.0514 508.084 27.4356 492.729 27.4356 492.729C27.4356 492.729 28.2143 463.501 29.6613 461.613C29.8603 461.403 30.1162 461.262 30.3946 461.207C31.8712 460.941 33.3771 460.897 34.8655 461.079C34.7812 466.335 34.5411 482.941 34.8655 484.592C35.19 486.242 38.0646 500.055 40.0892 504.458Z" fill="#C17174"/>
  <path opacity="0.25" d="M40.0892 504.458C39.5556 505.564 38.7437 506.499 37.7402 507.161C36.7367 507.824 35.5793 508.189 34.3919 508.219H34.1258C29.0514 508.084 27.4356 492.729 27.4356 492.729C27.4356 492.729 28.2143 463.501 29.6613 461.613C29.8603 461.403 30.1162 461.262 30.3946 461.207C31.8712 460.941 33.3771 460.897 34.8655 461.079C34.7812 466.335 34.5411 482.941 34.8655 484.592C35.19 486.242 38.0646 500.055 40.0892 504.458Z" fill="white"/>
  <path d="M34.1193 508.233C29.0449 508.097 27.4291 492.742 27.4291 492.742C27.4291 492.742 28.2078 463.514 29.6549 461.627C29.8539 461.417 30.1097 461.275 30.3881 461.221C31.4523 462.872 32.3868 466.524 31.5432 474.56C29.9599 489.787 31.8676 490.747 31.8676 490.747C31.8676 490.747 34.2491 503.687 34.1193 508.233Z" fill="#C17174"/>
  <path opacity="0.1" d="M34.1193 508.233C29.0449 508.097 27.4291 492.742 27.4291 492.742C27.4291 492.742 28.2078 463.514 29.6549 461.627C29.8539 461.417 30.1097 461.275 30.3881 461.221C31.4523 462.872 32.3868 466.524 31.5432 474.56C29.9599 489.787 31.8676 490.747 31.8676 490.747C31.8676 490.747 34.2491 503.687 34.1193 508.233Z" fill="black"/>
  <path opacity="0.1" d="M140.299 301.206C139.636 301.639 138.897 301.931 138.125 302.065C135.29 302.153 132.934 294.151 132.934 294.151C132.934 294.151 133.739 293.298 135.024 292.121C135.952 294.286 138.508 300.123 140.299 301.206Z" fill="black"/>
  <path d="M122.104 298.324C122.104 298.324 124.44 298.5 125.939 297.458C127.438 296.417 133.869 293.542 134.037 291.627C134.037 291.627 137.872 301.368 140.046 301.72C140.046 301.72 133.369 307.199 132.869 308.937C132.37 310.676 119.346 314.944 119.346 314.944L122.104 298.324Z" fill="#FF748E"/>
  <path opacity="0.1" d="M122.104 298.324C122.104 298.324 124.44 298.5 125.939 297.458C127.438 296.417 133.869 293.542 134.037 291.627C134.037 291.627 137.872 301.368 140.046 301.72C140.046 301.72 133.369 307.199 132.869 308.937C132.37 310.676 119.346 314.944 119.346 314.944L122.104 298.324Z" fill="black"/>
  <path opacity="0.1" d="M62.9241 462.466C61.7668 463.45 60.71 464.556 59.7704 465.767C54.7349 463.568 51.4904 459.077 50.2575 457.108L52.2042 454.754C52.2042 454.754 66.6942 459.625 62.9241 462.466Z" fill="black"/>
  <path d="M86.7388 413.141C86.7388 413.141 78.5756 424.511 75.5907 425.79C72.6057 427.068 50.3549 455.485 50.3549 455.485C50.3549 455.485 55.1373 464.65 63.9299 466.152C63.9299 466.152 68.7123 464.184 70.4968 459.773C72.2813 455.363 86.2976 442.903 86.2976 442.903L86.7388 413.141Z" fill="#5E5A6B"/>
  <path opacity="0.1" d="M86.7388 413.141C86.7388 413.141 78.5756 424.511 75.5907 425.79C72.6057 427.068 50.3549 455.485 50.3549 455.485C50.3549 455.485 55.1373 464.65 63.9299 466.152C63.9299 466.152 68.7123 464.184 70.4968 459.773C72.2813 455.363 86.2976 442.903 86.2976 442.903L86.7388 413.141Z" fill="black"/>
  <path opacity="0.1" d="M62.0092 451.19C64.479 451.46 66.9692 451.46 69.4391 451.19C73.8322 450.75 70.5228 453.537 62.0092 451.19Z" fill="black"/>
  <path opacity="0.1" d="M60.004 454.146C60.004 454.146 65.8442 457.622 68.1023 455.884C70.3605 454.146 65.9285 457.562 60.004 454.146Z" fill="black"/>
  <path opacity="0.1" d="M94.0845 478.592C93.8907 479.498 93.7863 480.423 93.773 481.351C89.2631 485.62 83.8318 484.301 80.438 482.745C80.438 480.134 80.3991 478.301 80.3991 478.301C80.3991 478.301 95.6418 471.313 94.0845 478.592Z" fill="black"/>
  <path d="M121.124 327.268L120.962 330.475L119.573 357.43C119.573 357.43 118.457 363.464 118.924 375.058C119.392 386.652 112.669 405.024 112.669 405.024C112.669 405.024 109.425 417.436 108.438 423.118C107.452 428.8 104.324 430.559 104.324 430.559C104.324 430.559 105.103 436.937 102.877 439.142C100.651 441.348 100.541 445.054 100.541 445.054C100.541 445.054 97.0889 465.009 95.9987 466.984C94.9086 468.959 94.9929 479.397 94.9929 479.397C87.7641 488.325 77.1935 480.208 77.1935 480.208L77.3038 452.252C77.3038 452.252 80.3082 426.5 82.534 422.901C84.7597 419.303 84.7597 409.447 84.7597 409.447L83.7669 386.449C83.7669 386.449 82.9752 384.014 83.6566 382.62C84.3379 381.227 81.7553 377.405 81.7553 377.405C75.5193 369.511 74.6174 351.762 76.4408 348.319C78.2642 344.876 83.6566 330.921 83.6566 330.921L91.0995 326.396L104.551 326.808L121.124 327.268Z" fill="#5E5A6B"/>
  <path opacity="0.1" d="M89.4708 463.974C89.4708 463.974 91.2293 470.326 92.6439 471.022C94.0585 471.719 89.4708 463.974 89.4708 463.974Z" fill="black"/>
  <path opacity="0.1" d="M91.8912 442.836C91.8912 442.836 96.4335 446.583 98.3802 446.576C100.327 446.57 91.8912 442.836 91.8912 442.836Z" fill="black"/>
  <path d="M119.346 285.797V293.454L114.499 291.276L109.665 289.104L99.1394 278.315C99.1394 278.315 90.814 272.681 86.3625 267.547C83.8188 264.618 82.5405 261.851 84.7792 260.39C85.8642 259.65 86.8449 258.755 87.6928 257.732C89.9301 254.983 91.8751 251.989 93.494 248.803C93.5654 248.674 93.6367 248.546 93.7016 248.417C95.869 244.271 97.303 240.733 97.303 240.733C97.303 240.733 103.403 242.762 107.322 245.658C107.64 245.888 107.939 246.124 108.224 246.368C110.411 248.235 111.501 250.426 109.483 252.564C108.965 253.123 108.485 253.719 108.049 254.35C107.723 254.818 107.424 255.306 107.153 255.811C107.037 256.041 106.92 256.264 106.816 256.487C105.466 259.366 104.999 262.609 105.479 265.775L119.346 285.797Z" fill="#ECB4B6"/>
  <path d="M118.457 231.182C118.71 231.642 119.061 232.034 119.294 232.501C119.688 233.531 119.815 234.651 119.664 235.748C119.538 237.482 119.647 239.227 119.989 240.929C120.333 242.458 120.975 243.933 121.027 245.502C121.098 247.714 119.995 249.763 118.931 251.678C119.509 251.659 120.078 251.519 120.602 251.264C121.126 251.009 121.595 250.646 121.981 250.196C122.122 250.684 122.144 251.201 122.047 251.7C121.95 252.2 121.735 252.666 121.423 253.058C123.168 252.97 124.667 251.536 125.316 249.858C125.908 248.125 126.08 246.266 125.816 244.447C125.562 242.644 125.436 240.824 125.439 239.002C125.56 238.017 125.61 237.024 125.589 236.032C125.426 234.064 124.291 232.352 123.149 230.756L120.891 227.523C120.734 227.258 120.509 227.045 120.242 226.907C118.107 225.96 117.86 230.059 118.457 231.182Z" fill="#464353"/>
  <path opacity="0.1" d="M109.522 252.564C109.003 253.123 108.524 253.719 108.088 254.35C107.762 254.818 107.463 255.306 107.192 255.811C107.076 256.041 106.959 256.264 106.855 256.487C104.282 256.337 101.773 255.597 99.5065 254.32C97.2397 253.043 95.271 251.261 93.7405 249.101C93.6692 248.999 93.5978 248.898 93.5329 248.789C93.6043 248.661 93.6757 248.532 93.7405 248.404C95.9079 244.257 97.342 240.72 97.342 240.72C97.342 240.72 103.442 242.749 107.361 245.644C107.679 245.874 107.977 246.111 108.263 246.354C110.424 248.235 111.514 250.399 109.522 252.564Z" fill="black"/>
  <path d="M125.342 237.568C125.343 241.838 123.908 245.974 121.287 249.257C118.666 252.539 115.024 254.76 110.995 255.533C109.946 255.732 108.882 255.832 107.815 255.831H107.737C107.549 255.831 107.355 255.831 107.166 255.831C103.732 255.698 100.41 254.515 97.6157 252.43C94.8211 250.344 92.6767 247.447 91.4496 244.101C90.2224 240.754 89.9667 237.105 90.7143 233.608C91.4618 230.111 93.1796 226.92 95.6537 224.433C98.1279 221.946 101.249 220.273 104.629 219.621C108.009 218.97 111.498 219.369 114.661 220.769C117.825 222.169 120.524 224.508 122.422 227.495C124.32 230.482 125.333 233.985 125.336 237.568H125.342Z" fill="#ECB4B6"/>
  <path opacity="0.1" d="M110.112 282.726C110.112 282.726 118.937 287.914 116.679 283.537L105.161 265.788L118.237 283.301C118.237 283.301 126.582 295.253 122.02 303.485C122.02 303.485 121.371 310.331 122.13 311.954C122.889 313.577 121.909 330.894 121.909 330.894C121.909 330.894 118.788 327.877 117.121 328.452C115.453 329.027 103.682 330.055 103.682 330.055L110.112 282.726Z" fill="black"/>
  <path opacity="0.1" d="M121.124 327.268L120.962 330.475C119.904 329.676 118.431 328.784 117.451 329.122C115.784 329.703 103.993 330.752 103.993 330.752L104.532 326.754L121.124 327.268Z" fill="black"/>
  <path d="M110.443 282.726C110.443 282.726 119.275 287.914 117.01 283.537L105.492 265.788L118.568 283.301C118.568 283.301 126.912 295.253 122.351 303.485C122.351 303.485 121.702 310.331 122.461 311.954C123.22 313.577 122.24 330.894 122.24 330.894C122.24 330.894 119.126 327.877 117.458 328.452C115.79 329.027 103.993 330.082 103.993 330.082L110.443 282.726Z" fill="#464353"/>
  <path opacity="0.1" d="M115.161 291.621C114.648 297.201 112.448 303.837 112.448 303.837C112.448 303.837 110.891 320.308 108.873 325.205C106.855 330.103 107.757 336.806 106.647 349.218C106.245 353.69 104.863 356.761 103 358.83C99.9376 362.213 95.564 362.95 92.1118 362.74L91.2942 362.672C85.7266 362.098 80.3861 334.141 80.3861 334.141C80.3861 334.141 77.8295 310.358 78.8288 307.084C79.8281 303.81 77.8424 285.296 77.1741 281.238C76.7458 278.66 78.0241 274.473 79.0105 271.727C79.588 270.144 80.0617 269.021 80.0617 269.021C80.0617 269.021 81.9565 262.758 85.0712 259.511C85.5007 259.051 86.0143 258.686 86.5817 258.438C87.1491 258.189 87.7586 258.062 88.3741 258.063C89.8384 258.125 91.2606 258.592 92.4947 259.416C92.5446 259.446 92.5923 259.48 92.6374 259.518C92.6374 259.518 112.896 281.096 114.784 286.081C115.31 287.481 115.362 289.47 115.161 291.621Z" fill="black"/>
  <path d="M114.499 291.276C113.98 296.849 111.78 303.485 111.78 303.485C111.78 303.485 110.223 319.963 108.218 324.833C106.212 329.704 107.108 336.434 105.992 348.846C105.589 353.311 104.207 356.382 102.345 358.458C99.2822 361.84 94.9086 362.571 91.4564 362.368L90.6388 362.3C85.0712 361.719 79.7307 333.762 79.7307 333.762C79.7307 333.762 77.174 309.986 78.1733 306.739C79.1727 303.492 77.174 284.931 76.5057 280.866C76.0774 278.295 77.3557 274.101 78.3421 271.355C78.9196 269.772 79.3933 268.683 79.3933 268.683C79.3933 268.683 81.2881 262.419 84.4028 259.173C84.831 258.712 85.3446 258.346 85.9123 258.099C86.4801 257.851 87.0903 257.726 87.7057 257.732C89.1712 257.787 90.595 258.254 91.8263 259.085L91.969 259.179C91.969 259.179 112.228 280.757 114.116 285.743C114.642 287.129 114.713 289.125 114.499 291.276Z" fill="#FF748E"/>
  <path opacity="0.1" d="M91.8068 376.194C91.8068 376.194 87.2126 380.456 85.6293 380.253C84.0459 380.05 91.8068 376.194 91.8068 376.194Z" fill="black"/>
  <path opacity="0.1" d="M93.0268 380.287C93.0268 380.287 88.186 382.627 86.7389 382.992C85.2919 383.358 91.1579 379.685 93.0268 380.287Z" fill="black"/>
  <path opacity="0.1" d="M111.754 316.249C111.754 316.249 118.931 316.337 120.015 318.685C121.098 321.032 114.064 315.289 111.754 316.249Z" fill="black"/>
  <path opacity="0.1" d="M110.748 320.335C110.748 320.335 116.257 321.553 117.925 322.946C119.593 324.339 110.748 320.335 110.748 320.335Z" fill="black"/>
  <path opacity="0.1" d="M101.488 306.157C101.488 306.157 100.84 329.731 98.3607 332.781C95.8819 335.832 101.488 306.157 101.488 306.157Z" fill="black"/>
  <path opacity="0.1" d="M95.3109 372.799C95.3109 372.799 90.7037 393.592 99.9441 394.877C109.184 396.162 106.329 371.202 106.329 371.202L95.3109 372.799Z" fill="black"/>
  <path d="M94.9734 372.454C94.9734 372.454 90.3922 393.247 99.6131 394.546C108.834 395.845 105.992 370.871 105.992 370.871L94.9734 372.454Z" fill="#ECB4B6"/>
  <path opacity="0.1" d="M125.232 235.552C124.975 235.154 124.757 234.73 124.583 234.287C123.356 231.622 120.203 232.934 117.893 234.199L116.66 235.856C116.097 236.544 115.624 237.306 115.252 238.122C115.015 238.785 114.818 239.463 114.661 240.151C114.343 241.328 113.876 242.451 113.454 243.601C112.055 247.425 111.226 251.449 110.995 255.533C109.946 255.732 108.882 255.832 107.815 255.831H107.737V255.75C107.854 255.29 107.952 254.823 108.042 254.356C108.525 251.724 108.585 249.027 108.218 246.375C108.218 246.314 108.218 246.26 108.218 246.199C108.133 245.61 108.023 245.015 107.977 244.426C107.763 244.832 107.556 245.245 107.329 245.664C105.933 248.37 104.467 251.076 101.832 252.26C100.763 252.697 99.6363 252.962 98.4905 253.044C97.0761 253.123 95.6744 253.366 94.3116 253.768C93.8469 253.9 93.4267 254.165 93.0981 254.532C92.7313 255.098 92.5203 255.758 92.4881 256.44C92.3475 257.34 92.1303 258.225 91.8392 259.085C90.6477 262.294 88.7858 265.187 86.3885 267.553L85.785 268.162C84.7572 269.268 83.5314 270.153 82.1771 270.767C80.9466 271.198 79.6527 271.399 78.355 271.362C78.9326 269.779 79.4063 268.69 79.4063 268.69C79.4063 268.69 81.3011 262.426 84.4158 259.179C84.844 258.718 85.3575 258.353 85.9253 258.105C86.4931 257.858 87.1032 257.733 87.7187 257.739C90.0438 254.873 92.0589 251.75 93.7276 248.424C92.1328 246.169 91.0574 243.561 90.5845 240.802C90.1115 238.044 90.2538 235.209 91.0003 232.517C91.7468 229.825 93.0774 227.349 94.8892 225.279C96.701 223.209 98.9455 221.601 101.449 220.581C103.952 219.56 106.647 219.153 109.325 219.392C112.004 219.631 114.593 220.509 116.894 221.958C119.194 223.408 121.144 225.389 122.592 227.75C124.04 230.111 124.948 232.787 125.245 235.572L125.232 235.552Z" fill="black"/>
  <path d="M126.348 221.299C125.31 220.095 123.85 219.392 122.454 218.695C121.958 218.499 121.521 218.167 121.189 217.735C120.947 217.218 120.814 216.653 120.8 216.077C120.313 212.547 117.159 210.105 114.025 208.671C109.989 206.824 105.142 206.033 101.268 208.224C99.386 209.293 97.9 210.964 96.1999 212.323C94.0455 214.041 91.5667 215.245 89.2696 216.747C86.9725 218.249 84.7792 220.129 83.689 222.74C82.0019 226.731 83.2672 231.311 83.4814 235.667C83.8123 242.539 81.1324 249.716 75.8113 253.781C75.1703 254.191 74.5999 254.71 74.1242 255.317C73.8916 255.624 73.754 255.997 73.7296 256.387C73.7053 256.777 73.7954 257.166 73.9879 257.502C74.254 257.881 74.6952 258.097 74.9872 258.449C75.5972 259.173 75.4739 260.275 75.2338 261.209C74.4652 264.224 72.9268 266.966 70.7823 269.143C70.8732 269.86 71.7038 270.137 72.3851 270.246C74.1874 270.525 76.0073 270.663 77.8294 270.658C79.2495 270.78 80.6772 270.554 81.9987 269.998C83.3202 269.443 84.4989 268.573 85.4411 267.459C88.6856 264.28 91.4304 260.309 92.1637 255.736C92.2019 255.055 92.4124 254.397 92.7737 253.829C93.107 253.468 93.5254 253.204 93.9871 253.064C96.4075 252.199 99.1783 252.625 101.508 251.556C104.545 250.203 106.05 246.821 107.64 243.723C107.692 244.311 107.796 244.907 107.887 245.502C108.35 248.685 108.196 251.933 107.432 255.053C106.998 256.819 106.368 258.577 106.414 260.397C106.446 261.75 107.763 268.818 109.496 266.701C111.228 264.584 110.593 259.903 110.593 257.279C110.595 252.365 111.459 247.494 113.143 242.905C113.558 241.761 114.032 240.632 114.35 239.455C114.507 238.767 114.702 238.09 114.934 237.425C115.311 236.61 115.786 235.849 116.348 235.159L117.588 233.502C119.898 232.224 123.051 230.925 124.278 233.59C124.745 234.612 124.998 235.741 126.225 234.747C126.945 234.158 127.179 233.002 127.367 232.122C128.139 228.436 128.775 224.1 126.348 221.299Z" fill="#464353"/>
  <path opacity="0.1" d="M102.864 285.161C102.39 272.667 85.6163 270.083 81.7034 281.9C81.6717 281.98 81.6456 282.061 81.6255 282.144C79.0624 290.146 80.1785 310.412 80.1785 310.412C80.1785 310.412 80.5094 324.022 81.7359 328.547C82.9623 333.072 86.408 346.059 86.408 348.163C86.408 350.267 89.6071 358.255 90.9503 358.837C92.2935 359.419 92.9749 363.937 93.3058 364.749C93.6367 365.561 94.6036 376.12 94.6036 376.12C94.6036 376.12 107.179 375.308 107.4 373.218C107.621 371.128 104.616 360.921 104.616 360.921C104.616 360.921 102.403 356.747 102.118 353.385C101.832 350.023 100.093 348.495 100.437 346.174C100.781 343.854 99.4315 342.698 99.4315 341.189C99.4315 339.681 98.4321 335.622 98.4321 335.622C98.4321 335.622 96.3167 333.877 96.6541 331.794C96.9916 329.71 93.6497 325.53 94.5387 324.022C95.4277 322.513 95.6483 318.8 95.6483 318.8C95.6483 318.8 96.7645 302.099 97.5431 297.573C98.3218 293.048 102.884 285.743 102.884 285.743C102.884 285.743 102.877 285.533 102.864 285.161Z" fill="black"/>
  <path opacity="0.1" d="M102.345 358.458C99.2822 361.84 94.9086 362.571 91.4564 362.368C91.0541 360.785 90.4701 358.837 89.62 358.472C88.2703 357.89 85.0777 349.888 85.0777 347.805C85.0777 345.721 81.632 332.72 80.4056 328.188C79.1792 323.656 78.8482 310.06 78.8482 310.06C78.8482 310.06 77.7321 289.767 80.2953 281.785C80.2953 281.711 80.3407 281.63 80.3732 281.549C84.2666 269.725 101.06 272.316 101.534 284.809C101.534 285.181 101.534 285.384 101.534 285.384C101.534 285.384 96.9916 292.689 96.1934 297.215C95.3953 301.74 94.3116 318.441 94.3116 318.441C94.3116 318.441 94.0845 322.155 93.1955 323.663C92.3065 325.171 95.6418 329.352 95.3109 331.435C94.98 333.519 97.0889 335.264 97.0889 335.264C97.0889 335.264 98.0882 339.322 98.0882 340.837C98.0882 342.353 99.4249 343.503 99.094 345.823C98.7631 348.143 100.541 349.651 100.827 353.013C101.065 354.898 101.577 356.734 102.345 358.458Z" fill="black"/>
  <path d="M102.196 284.816C101.722 272.322 84.9479 269.738 81.035 281.556L80.9571 281.792C78.394 289.801 79.5101 310.067 79.5101 310.067C79.5101 310.067 79.841 323.67 81.0675 328.195C82.2939 332.72 85.7396 345.715 85.7396 347.811C85.7396 349.908 88.9387 357.904 90.2819 358.485C91.6251 359.067 92.3065 363.592 92.6374 364.404C92.9683 365.216 93.9352 375.768 93.9352 375.768C93.9352 375.768 106.511 374.956 106.732 372.873C106.952 370.79 103.954 360.576 103.954 360.576C103.954 360.576 101.735 356.395 101.45 353.033C101.164 349.672 99.386 348.163 99.7234 345.843C100.061 343.523 98.7176 342.359 98.7176 340.851C98.7176 339.343 97.7183 335.284 97.7183 335.284C97.7183 335.284 95.6029 333.546 95.9403 331.455C96.2778 329.365 92.9359 325.192 93.8249 323.683C94.7139 322.175 94.9345 318.468 94.9345 318.468C94.9345 318.468 96.0506 301.76 96.8293 297.235C97.608 292.71 102.17 285.404 102.17 285.404C102.17 285.404 102.209 285.188 102.196 284.816Z" fill="#FF748E"/>
  <path opacity="0.1" d="M81.5411 316.946C81.8721 316.594 88.2183 309.289 90.217 311.9C92.2156 314.511 81.5411 316.946 81.5411 316.946Z" fill="black"/>
  <path opacity="0.1" d="M82.1252 322.601C82.3718 322.337 88.465 322.08 89.9704 318.543C91.4759 315.005 82.1252 322.601 82.1252 322.601Z" fill="black"/>
  <g opacity="0.1">
    <path opacity="0.1" d="M75.1819 258.449C75.3317 258.633 75.4443 258.847 75.5128 259.078C75.6355 258.683 75.6694 258.264 75.612 257.854C75.5546 257.443 75.4075 257.052 75.1819 256.71C74.8834 256.352 74.4486 256.142 74.1761 255.763C74.1761 255.763 74.1436 255.703 74.1242 255.669C73.9737 255.951 73.8991 256.27 73.9082 256.593C73.9174 256.915 74.0099 257.229 74.1761 257.502C74.4811 257.881 74.8834 258.097 75.1819 258.449Z" fill="black"/>
    <path opacity="0.1" d="M83.6761 235.917C83.6761 235.241 83.6761 234.564 83.6761 233.942C83.5593 231.574 83.1375 229.146 83.0272 226.772C82.8909 229.68 83.5138 232.731 83.6761 235.68C83.6761 235.748 83.6696 235.822 83.6761 235.917Z" fill="black"/>
    <path opacity="0.1" d="M109.684 264.963C108.14 266.85 106.926 261.418 106.66 259.274C106.618 259.647 106.599 260.022 106.602 260.397C106.641 261.75 107.951 268.818 109.684 266.701C110.859 265.267 110.982 262.825 110.904 260.573C110.82 262.298 110.56 263.894 109.684 264.963Z" fill="black"/>
    <path opacity="0.1" d="M108.075 245.502C108.207 246.412 108.287 247.329 108.315 248.248C108.371 246.747 108.291 245.243 108.075 243.757C107.99 243.168 107.88 242.573 107.828 241.978C106.225 245.103 104.739 248.444 101.703 249.818C99.347 250.88 96.6022 250.46 94.1818 251.326C93.7171 251.458 93.2969 251.723 92.9683 252.09C92.6033 252.657 92.3925 253.316 92.3584 253.998C91.6186 258.571 88.8673 262.541 85.6292 265.72C84.6871 266.835 83.5084 267.704 82.1869 268.26C80.8654 268.815 79.4377 269.041 78.0176 268.92C76.1978 268.921 74.3803 268.783 72.5798 268.507C72.3006 268.462 72.0266 268.388 71.7622 268.284C71.5091 268.582 71.2431 268.866 70.9705 269.143C71.0614 269.86 71.8985 270.137 72.5798 270.246C74.3799 270.525 76.1976 270.663 78.0176 270.658C79.4377 270.78 80.8654 270.554 82.1869 269.998C83.5084 269.443 84.6871 268.573 85.6292 267.459C88.8737 264.28 91.6186 260.309 92.3584 255.736C92.3934 255.055 92.6042 254.396 92.9683 253.829C93.2995 253.465 93.7187 253.201 94.1818 253.064C96.6022 252.199 99.373 252.625 101.703 251.556C104.739 250.203 106.245 246.821 107.828 243.723C107.88 244.311 107.99 244.907 108.075 245.502Z" fill="black"/>
    <path opacity="0.1" d="M127.555 230.384C127.367 231.263 127.127 232.413 126.406 233.008C125.186 233.996 124.94 232.873 124.46 231.852C123.233 229.187 120.079 230.499 117.769 231.764L116.53 233.421C115.967 234.109 115.494 234.871 115.122 235.687C114.884 236.349 114.689 237.027 114.538 237.716C114.213 238.893 113.746 240.016 113.324 241.159C111.647 245.75 110.785 250.621 110.781 255.533C110.781 255.757 110.781 256 110.781 256.25C110.896 251.684 111.754 247.172 113.318 242.905C113.74 241.761 114.207 240.632 114.531 239.455C114.683 238.766 114.878 238.088 115.115 237.425C115.487 236.609 115.961 235.847 116.524 235.159L117.763 233.502C120.073 232.224 123.227 230.925 124.453 233.59C124.927 234.612 125.173 235.741 126.4 234.747C127.12 234.158 127.36 233.002 127.548 232.122C128.038 230.084 128.256 227.986 128.197 225.886C128.093 227.4 127.879 228.904 127.555 230.384Z" fill="black"/>
  </g>
  <path d="M142.733 296.241L143.077 296.484C142.923 296.378 142.791 296.24 142.69 296.079C142.588 295.918 142.518 295.738 142.485 295.549C142.452 295.359 142.455 295.165 142.496 294.977C142.536 294.789 142.612 294.611 142.72 294.455L158.19 271.091C158.292 270.935 158.422 270.802 158.574 270.7C158.726 270.597 158.896 270.526 159.074 270.492C159.252 270.458 159.434 270.462 159.611 270.502C159.788 270.542 159.956 270.618 160.104 270.726L159.76 270.476C160.242 270.823 160.573 271.356 160.679 271.957C160.785 272.558 160.657 273.179 160.325 273.682L145.809 295.645C145.475 296.148 144.965 296.493 144.388 296.604C143.812 296.716 143.217 296.585 142.733 296.241Z" fill="#464353"/>
  <path d="M159.926 270.564L160.188 270.752L143.159 296.522L142.898 296.334C142.651 296.157 142.482 295.885 142.428 295.578C142.373 295.271 142.438 294.954 142.608 294.697L158.352 270.871C158.522 270.614 158.783 270.438 159.077 270.381C159.372 270.325 159.676 270.393 159.922 270.57L159.926 270.564Z" fill="#9F9EFF"/>
  <path d="M158.013 274.086L157.965 274.051C157.915 274.015 157.846 274.028 157.811 274.08L156.549 275.991C156.514 276.043 156.527 276.115 156.577 276.151L156.625 276.186C156.675 276.222 156.744 276.208 156.779 276.156L158.041 274.245C158.076 274.193 158.063 274.122 158.013 274.086Z" fill="#464353"/>
  <path d="M486.288 190.752C486.293 193.064 485.64 195.325 484.412 197.25C483.184 199.174 481.435 200.676 479.388 201.564C477.341 202.452 475.087 202.688 472.911 202.24C470.735 201.792 468.736 200.682 467.166 199.049C465.597 197.416 464.527 195.335 464.092 193.068C463.658 190.801 463.878 188.451 464.725 186.315C465.573 184.179 467.009 182.353 468.853 181.068C470.696 179.783 472.864 179.097 475.081 179.097C478.049 179.097 480.896 180.324 482.996 182.509C485.097 184.694 486.281 187.659 486.288 190.752ZM473.784 196.935L482.102 188.27C482.236 188.128 482.311 187.937 482.311 187.739C482.311 187.54 482.236 187.349 482.102 187.208L481.077 186.139C481.011 186.068 480.931 186.012 480.844 185.974C480.757 185.936 480.663 185.916 480.568 185.916C480.473 185.916 480.379 185.936 480.292 185.974C480.204 186.012 480.125 186.068 480.058 186.139L473.277 193.208L470.111 189.92C469.974 189.78 469.79 189.702 469.598 189.702C469.407 189.702 469.223 189.78 469.086 189.92L468.067 190.989C467.999 191.058 467.945 191.141 467.909 191.232C467.872 191.323 467.853 191.421 467.853 191.52C467.853 191.619 467.872 191.717 467.909 191.808C467.945 191.899 467.999 191.982 468.067 192.051L472.765 196.948C472.831 197.019 472.911 197.075 472.998 197.113C473.085 197.151 473.179 197.171 473.274 197.171C473.369 197.171 473.463 197.151 473.55 197.113C473.638 197.075 473.717 197.019 473.784 196.948V196.935Z" fill="#3ACC6C"/>
  <path d="M350.531 318.962C350.531 321.272 349.874 323.531 348.642 325.452C347.411 327.373 345.661 328.87 343.613 329.755C341.565 330.639 339.312 330.87 337.138 330.419C334.964 329.969 332.967 328.856 331.4 327.222C329.833 325.588 328.766 323.507 328.333 321.241C327.901 318.975 328.123 316.626 328.971 314.491C329.819 312.357 331.255 310.532 333.098 309.249C334.941 307.965 337.108 307.28 339.324 307.28C342.297 307.28 345.147 308.511 347.249 310.702C349.35 312.892 350.531 315.864 350.531 318.962ZM338.027 325.144L346.372 316.479C346.439 316.41 346.493 316.326 346.53 316.235C346.567 316.143 346.586 316.044 346.586 315.945C346.586 315.846 346.567 315.747 346.53 315.655C346.493 315.564 346.439 315.48 346.372 315.411L345.32 314.382C345.253 314.312 345.173 314.255 345.085 314.217C344.997 314.179 344.903 314.159 344.808 314.159C344.712 314.159 344.618 314.179 344.53 314.217C344.442 314.255 344.362 314.312 344.295 314.382L337.514 321.417L334.347 318.116C334.281 318.046 334.202 317.99 334.114 317.951C334.027 317.913 333.933 317.893 333.838 317.893C333.743 317.893 333.649 317.913 333.562 317.951C333.474 317.99 333.395 318.046 333.329 318.116L332.303 319.178C332.169 319.321 332.094 319.513 332.094 319.713C332.094 319.912 332.169 320.104 332.303 320.247L337.001 325.144C337.068 325.215 337.148 325.271 337.236 325.31C337.324 325.348 337.419 325.368 337.514 325.368C337.609 325.368 337.704 325.348 337.792 325.31C337.88 325.271 337.96 325.215 338.027 325.144Z" fill="#3ACC6C"/>
  <path d="M350.531 446.576C350.531 448.887 349.874 451.145 348.642 453.066C347.411 454.988 345.661 456.485 343.613 457.369C341.565 458.253 339.312 458.485 337.138 458.034C334.964 457.583 332.967 456.47 331.4 454.837C329.833 453.203 328.766 451.121 328.333 448.855C327.901 446.589 328.123 444.24 328.971 442.106C329.819 439.971 331.255 438.147 333.098 436.863C334.941 435.58 337.108 434.894 339.324 434.894C342.297 434.894 345.147 436.125 347.249 438.316C349.35 440.507 350.531 443.478 350.531 446.576ZM338.027 452.759L346.372 444.094C346.439 444.024 346.493 443.941 346.53 443.849C346.567 443.757 346.586 443.659 346.586 443.559C346.586 443.46 346.567 443.362 346.53 443.27C346.493 443.178 346.439 443.095 346.372 443.025L345.353 441.963C345.286 441.892 345.206 441.836 345.118 441.798C345.03 441.759 344.936 441.74 344.84 441.74C344.745 441.74 344.65 441.759 344.562 441.798C344.474 441.836 344.394 441.892 344.327 441.963L337.546 449.032L334.38 445.731C334.313 445.66 334.234 445.604 334.147 445.566C334.059 445.528 333.965 445.508 333.87 445.508C333.776 445.508 333.682 445.528 333.594 445.566C333.507 445.604 333.427 445.66 333.361 445.731L332.336 446.793C332.202 446.936 332.127 447.127 332.127 447.327C332.127 447.527 332.202 447.719 332.336 447.862L337.034 452.759C337.101 452.83 337.181 452.886 337.269 452.924C337.357 452.963 337.451 452.982 337.546 452.982C337.642 452.982 337.736 452.963 337.824 452.924C337.912 452.886 337.992 452.83 338.059 452.759H338.027Z" fill="#3ACC6C"/>
  <defs>
    <linearGradient id="paint0_linear" x1="347.514" y1="477.191" x2="347.514" y2="0" gradientUnits="userSpaceOnUse">
      <stop stop-color="#808080" stop-opacity="0.25"/>
      <stop offset="0.54" stop-color="#808080" stop-opacity="0.12"/>
      <stop offset="1" stop-color="#808080" stop-opacity="0.1"/>
    </linearGradient>
    <linearGradient id="paint1_linear" x1="32266.5" y1="254426" x2="32266.5" y2="111834" gradientUnits="userSpaceOnUse">
      <stop stop-color="#808080" stop-opacity="0.25"/>
      <stop offset="0.54" stop-color="#808080" stop-opacity="0.12"/>
      <stop offset="1" stop-color="#808080" stop-opacity="0.1"/>
    </linearGradient>
  </defs>
</svg>
